<?xml version="1.0" encoding="UTF-8"?>
<svg version="1.1" xmlns="http://www.w3.org/2000/svg" width="997" height="586">
<path d="M0 0 C329.01 0 658.02 0 997 0 C997 193.38 997 386.76 997 586 C667.99 586 338.98 586 0 586 C0 392.62 0 199.24 0 0 Z " fill="#0A0A0C" transform="translate(0,0)"/>
<path d="M0 0 C2.8125 2.3125 2.8125 2.3125 5 5 C6.30197193 6.09596371 7.61561691 7.17813599 8.9375 8.25 C16.13459287 14.52194672 20.34138256 21.66417335 21.203125 31.26245117 C21.88585909 47.50640204 19.59092381 58.3076757 8.5625 70.75 C7.716875 71.4925 6.87125 72.235 6 73 C5.46246094 73.47953125 4.92492187 73.9590625 4.37109375 74.453125 C-4.24795336 81.57868378 -14.26804589 84.88381172 -25.41015625 84.5078125 C-31.63594509 83.6271242 -37.226656 81.45674213 -43 79 C-43 78.34 -43 77.68 -43 77 C-43.72058594 76.77828125 -44.44117188 76.5565625 -45.18359375 76.328125 C-48.67199673 74.68310834 -50.5136571 72.63369862 -53.0625 69.75 C-54.31740234 68.35007813 -54.31740234 68.35007813 -55.59765625 66.921875 C-57.96928574 64.03735653 -59.98896983 61.13962216 -62 58 C-66.30144621 58.53768078 -69.97931301 59.65572861 -73.97265625 61.25 C-76 62 -76 62 -79.875 62.9375 C-83.09174253 63.62813349 -83.09174253 63.62813349 -84 65.9375 C-84.33 66.618125 -84.66 67.29875 -85 68 C-86.00933594 68.40734375 -87.01867187 68.8146875 -88.05859375 69.234375 C-92.71422016 71.13065064 -96.24599174 74.09342343 -100.0625 77.3125 C-100.79984375 77.92843018 -101.5371875 78.54436035 -102.296875 79.17895508 C-113.27355166 88.47772108 -123.23422005 98.58320051 -132 110 C-132.54398438 110.69222656 -133.08796875 111.38445312 -133.6484375 112.09765625 C-135.21303704 114.29985271 -136.15719749 116.6236715 -137.171875 119.1171875 C-138.53793176 122.22303352 -140.27308197 125.08210401 -142 128 C-142.99 128 -143.98 128 -145 128 C-145 128.99 -145 129.98 -145 131 C-117.28 131 -89.56 131 -61 131 C-60.67 129.68 -60.34 128.36 -60 127 C-52.61435419 115.92153129 -42.96600292 109.11597238 -30 106 C-18.8385391 104.37272159 -8.91217522 105.46026136 1 111 C1 111.66 1 112.32 1 113 C1.81984375 113.08894531 1.81984375 113.08894531 2.65625 113.1796875 C6.00225608 114.35078963 8.08110245 116.63592405 10.5 119.125 C10.98903809 119.62201416 11.47807617 120.11902832 11.98193359 120.63110352 C21.32308294 130.34558378 21.51122397 139.34423886 21.3671875 152.24609375 C21.0761976 159.75587159 18.99233243 166.13900921 16 173 C15.34 173 14.68 173 14 173 C13.6596875 174.0828125 13.6596875 174.0828125 13.3125 175.1875 C10.67050346 180.84892117 5.82563995 183.99423295 0.625 187.1875 C-0.45523437 187.86167969 -1.53546875 188.53585938 -2.6484375 189.23046875 C-16.27571479 196.42528998 -30.96492284 192.84805053 -45 189 C-45.17789063 188.03900391 -45.17789063 188.03900391 -45.359375 187.05859375 C-45.57078125 186.37925781 -45.7821875 185.69992188 -46 185 C-47.65697379 184.30959426 -49.3255761 183.6469365 -51 183 C-52.70779973 181.37550757 -54.37550757 179.70779973 -56 178 C-56.721875 177.54625 -57.44375 177.0925 -58.1875 176.625 C-60.86112148 174.22796006 -61.11186681 171.40385848 -62 168 C-91.35987074 167.86317921 -120.71971889 167.75697041 -150.07984312 167.69360802 C-153.54460297 167.68610362 -157.00936219 167.6783377 -160.47412109 167.67041016 C-161.16390386 167.66883629 -161.85368663 167.66726243 -162.56437191 167.66564088 C-173.73915882 167.63951969 -184.91376088 167.59220507 -196.08843806 167.53708322 C-207.55130621 167.48101061 -219.0140242 167.44810437 -230.47703338 167.43546903 C-236.91714735 167.42763295 -243.35684181 167.40916081 -249.79682159 167.36561966 C-255.85431645 167.32499505 -261.91121769 167.31231066 -267.96883583 167.32135391 C-270.19574264 167.31969874 -272.42266863 167.30770412 -274.64945793 167.28476715 C-277.68348495 167.25503957 -280.71525248 167.26204316 -283.74932861 167.2784729 C-284.6364863 167.26099585 -285.52364399 167.2435188 -286.43768525 167.22551215 C-288.77848249 167.25992374 -290.75331541 167.34115648 -293 168 C-295.57970856 170.77628155 -295.57970856 170.77628155 -297 174 C-302.73807457 182.38762267 -312.02689233 187.93184403 -322 190 C-325.08042857 190.2396373 -328.16112887 190.23096227 -331.25 190.25 C-332.48169922 190.2809375 -332.48169922 190.2809375 -333.73828125 190.3125 C-341.5595151 190.36207993 -347.47547787 188.18493925 -354.125 184.125 C-354.91132813 183.65320313 -355.69765625 183.18140625 -356.5078125 182.6953125 C-366.01708646 176.22662144 -370.59626764 167.95518229 -374 157 C-375.83110083 147.27071243 -374.83136876 136.73064066 -370 128 C-368.45113107 125.84545397 -366.78660395 123.97466752 -365 122 C-364.71769531 121.2059375 -364.43539063 120.411875 -364.14453125 119.59375 C-361.63098662 113.89752599 -354.91190337 109.61927968 -349.3125 107.125 C-336.64204071 102.82182515 -323.6917575 102.33772173 -311 107 C-303.5784561 111.04811485 -298.87855187 117.29532352 -294 124 C-293.44570313 124.67933594 -292.89140625 125.35867187 -292.3203125 126.05859375 C-291 128 -291 128 -291 131 C-256.35 131 -221.7 131 -186 131 C-185.01 128.03 -185.01 128.03 -184 125 C-182.81420898 122.796875 -182.81420898 122.796875 -181.49609375 120.75 C-181.00753906 119.98405518 -180.51898438 119.21811035 -180.015625 118.42895508 C-179.49484375 117.6273999 -178.9740625 116.82584473 -178.4375 116 C-177.89738281 115.15912842 -177.35726562 114.31825684 -176.80078125 113.4519043 C-175.70925542 111.75334655 -174.61537318 110.05630058 -173.51904297 108.36083984 C-172.20549707 106.31937587 -170.91100091 104.26831796 -169.62890625 102.20703125 C-161.77652767 89.62969 -153.04898834 77.92190119 -142.9375 67.0625 C-142.29409668 66.36979004 -141.65069336 65.67708008 -140.98779297 64.96337891 C-136.38555383 60.12851794 -136.38555383 60.12851794 -133 59 C-132.67 58.01 -132.34 57.02 -132 56 C-129.84796532 54.1399646 -127.70024386 52.40191112 -125.4375 50.6875 C-124.80142822 50.19838135 -124.16535645 49.7092627 -123.51000977 49.20532227 C-122.2472917 48.23604257 -120.9822841 47.26973719 -119.71484375 46.30664062 C-118.29048568 45.22133817 -116.87803243 44.12043283 -115.46875 43.015625 C-111.18739501 39.6893415 -107.61881636 37 -102 37 C-102 36.34 -102 35.68 -102 35 C-96.75798066 30.53457612 -91.64407708 28.39875307 -85 27 C-84.34 26.34 -83.68 25.68 -83 25 C-80.25902377 23.93599235 -77.53163774 22.94435432 -74.75 22 C-73.99847656 21.73960938 -73.24695313 21.47921875 -72.47265625 21.2109375 C-70.31764772 20.46627487 -68.15908788 19.73273144 -66 19 C-64.87078125 18.608125 -63.7415625 18.21625 -62.578125 17.8125 C-60 17 -60 17 -58 17 C-57.938125 16.46375 -57.87625 15.9275 -57.8125 15.375 C-55.32070605 8.09129462 -47.46551981 2.33903664 -40.94921875 -1.15234375 C-28.60645454 -6.5198384 -12.05203052 -5.47169338 0 0 Z " fill="#70A9D6" transform="translate(660,25)"/>
<path d="M0 0 C2.8125 2.3125 2.8125 2.3125 5 5 C6.30197193 6.09596371 7.61561691 7.17813599 8.9375 8.25 C16.13459287 14.52194672 20.34138256 21.66417335 21.203125 31.26245117 C21.88585909 47.50640204 19.59092381 58.3076757 8.5625 70.75 C7.716875 71.4925 6.87125 72.235 6 73 C5.46246094 73.47953125 4.92492187 73.9590625 4.37109375 74.453125 C-4.24795336 81.57868378 -14.26804589 84.88381172 -25.41015625 84.5078125 C-31.63594509 83.6271242 -37.226656 81.45674213 -43 79 C-43 78.34 -43 77.68 -43 77 C-43.72058594 76.77828125 -44.44117188 76.5565625 -45.18359375 76.328125 C-48.67199673 74.68310834 -50.5136571 72.63369862 -53.0625 69.75 C-54.31740234 68.35007813 -54.31740234 68.35007813 -55.59765625 66.921875 C-57.96928574 64.03735653 -59.98896983 61.13962216 -62 58 C-66.30144621 58.53768078 -69.97931301 59.65572861 -73.97265625 61.25 C-76 62 -76 62 -79.875 62.9375 C-83.09174253 63.62813349 -83.09174253 63.62813349 -84 65.9375 C-84.33 66.618125 -84.66 67.29875 -85 68 C-86.00933594 68.40734375 -87.01867187 68.8146875 -88.05859375 69.234375 C-92.71422016 71.13065064 -96.24599174 74.09342343 -100.0625 77.3125 C-101.16851563 78.23639526 -101.16851563 78.23639526 -102.296875 79.17895508 C-113.27355166 88.47772108 -123.23422005 98.58320051 -132 110 C-132.81597656 111.03833984 -132.81597656 111.03833984 -133.6484375 112.09765625 C-135.21574063 114.30365805 -136.15781934 116.638658 -137.19140625 119.12890625 C-139.47696531 124.41771199 -141.5402828 128.52699096 -147 131 C-149.9377374 131.25239537 -152.65195767 131.35087237 -155.58203125 131.29296875 C-156.39621017 131.28872391 -157.2103891 131.28447906 -158.04924011 131.28010559 C-160.63733668 131.26337753 -163.22464071 131.22573712 -165.8125 131.1875 C-167.57225434 131.17244553 -169.33202095 131.15875846 -171.09179688 131.14648438 C-175.39483437 131.11349336 -179.69728303 131.0617524 -184 131 C-182.42546395 124.32664402 -180.77005197 118.84858808 -176.875 113.1875 C-176.06580186 111.99129405 -175.25722533 110.79466739 -174.44921875 109.59765625 C-174.03978027 109.00098145 -173.6303418 108.40430664 -173.20849609 107.78955078 C-171.66907207 105.50995925 -170.21909291 103.18039129 -168.765625 100.84545898 C-161.18160215 88.74296599 -152.67283381 77.51792377 -142.9375 67.0625 C-142.29409668 66.36979004 -141.65069336 65.67708008 -140.98779297 64.96337891 C-136.38555383 60.12851794 -136.38555383 60.12851794 -133 59 C-132.67 58.01 -132.34 57.02 -132 56 C-129.84796532 54.1399646 -127.70024386 52.40191112 -125.4375 50.6875 C-124.48339233 49.95382202 -124.48339233 49.95382202 -123.51000977 49.20532227 C-122.2472917 48.23604257 -120.9822841 47.26973719 -119.71484375 46.30664062 C-118.29048568 45.22133817 -116.87803243 44.12043283 -115.46875 43.015625 C-111.18739501 39.6893415 -107.61881636 37 -102 37 C-102 36.34 -102 35.68 -102 35 C-96.75798066 30.53457612 -91.64407708 28.39875307 -85 27 C-84.34 26.34 -83.68 25.68 -83 25 C-80.25902377 23.93599235 -77.53163774 22.94435432 -74.75 22 C-73.99847656 21.73960938 -73.24695313 21.47921875 -72.47265625 21.2109375 C-70.31764772 20.46627487 -68.15908788 19.73273144 -66 19 C-64.87078125 18.608125 -63.7415625 18.21625 -62.578125 17.8125 C-60 17 -60 17 -58 17 C-57.938125 16.46375 -57.87625 15.9275 -57.8125 15.375 C-55.32070605 8.09129462 -47.46551981 2.33903664 -40.94921875 -1.15234375 C-28.60645454 -6.5198384 -12.05203052 -5.47169338 0 0 Z " fill="#EEF4F7" transform="translate(660,25)"/>
<path d="M0 0 C1.93410556 0.05524164 3.86836274 0.10542045 5.80273438 0.15039062 C10.51809598 0.27097854 15.22611764 0.46036505 19.9375 0.6875 C14.62086961 11.51850528 8.16141486 22.03498849 0.9375 31.6875 C-0.16658203 33.1725 -0.16658203 33.1725 -1.29296875 34.6875 C-5.8004998 40.68053987 -10.50247829 46.48742661 -15.375 52.1875 C-15.86637451 52.76274414 -16.35774902 53.33798828 -16.86401367 53.93066406 C-19.79585469 57.32432608 -22.76239588 60.64299775 -26.0625 63.6875 C-26.7225 63.6875 -27.3825 63.6875 -28.0625 63.6875 C-28.3925 64.6775 -28.7225 65.6675 -29.0625 66.6875 C-30.92492977 68.30635841 -32.77237305 69.78501698 -34.75 71.25 C-35.32435791 71.68256104 -35.89871582 72.11512207 -36.49047852 72.56079102 C-38.3404048 73.94667308 -40.19983468 75.31879588 -42.0625 76.6875 C-42.68576172 77.14737305 -43.30902344 77.60724609 -43.95117188 78.08105469 C-45.7952805 79.43679115 -47.64577963 80.78313329 -49.5 82.125 C-50.06614014 82.53758057 -50.63228027 82.95016113 -51.21557617 83.37524414 C-54.69569612 85.8628037 -58.19575873 87.8675605 -62.0625 89.6875 C-63.1246875 90.20570313 -64.186875 90.72390625 -65.28125 91.2578125 C-66.90546875 92.02738281 -66.90546875 92.02738281 -68.5625 92.8125 C-70.18671875 93.58980469 -70.18671875 93.58980469 -71.84375 94.3828125 C-74.96234986 95.64690516 -77.73407316 96.27645934 -81.0625 96.6875 C-81.0625 97.3475 -81.0625 98.0075 -81.0625 98.6875 C-91.43607631 102.13169134 -91.43607631 102.13169134 -97.0625 101.6875 C-97.0625 102.3475 -97.0625 103.0075 -97.0625 103.6875 C-97.84625 104.30625 -98.63 104.925 -99.4375 105.5625 C-102.09613233 107.38579833 -102.09613233 107.38579833 -102.88671875 109.5390625 C-106.59397229 116.31311382 -116.65211521 121.83065665 -123.80859375 124.1015625 C-128.11535556 124.87708984 -132.31699232 125.07380129 -136.6875 125.125 C-137.47519775 125.13539307 -138.26289551 125.14578613 -139.07446289 125.15649414 C-146.38553566 125.04587058 -152.59908497 123.03167783 -159.0625 119.6875 C-159.0625 119.0275 -159.0625 118.3675 -159.0625 117.6875 C-159.64257812 117.4296875 -160.22265625 117.171875 -160.8203125 116.90625 C-168.81632873 112.55998334 -174.66531069 103.91097226 -177.875 95.578125 C-180.70317651 85.12958402 -180.17405206 72.70233552 -176.0625 62.6875 C-175.4025 62.0275 -174.7425 61.3675 -174.0625 60.6875 C-173.35539322 59.03758418 -172.68306011 57.37187744 -172.0625 55.6875 C-171.4025 55.6875 -170.7425 55.6875 -170.0625 55.6875 C-169.80082031 55.089375 -169.53914063 54.49125 -169.26953125 53.875 C-167.3040809 50.31301879 -164.17999021 48.22088529 -161.0625 45.6875 C-160.2375 44.924375 -159.4125 44.16125 -158.5625 43.375 C-155.42115728 41.25459366 -152.80000179 40.98063739 -149.0625 40.6875 C-149.0625 40.0275 -149.0625 39.3675 -149.0625 38.6875 C-140.83263552 35.94421184 -128.04831422 35.86604248 -119.94140625 39.02734375 C-117.17313403 40.43972754 -114.59610533 41.8915266 -112.0625 43.6875 C-112.0625 44.3475 -112.0625 45.0075 -112.0625 45.6875 C-111.485 45.95175781 -110.9075 46.21601563 -110.3125 46.48828125 C-103.80733976 49.95544131 -99.12575496 55.05044759 -96.0625 61.6875 C-96.0625 62.6775 -96.0625 63.6675 -96.0625 64.6875 C-71.06326497 52.70789739 -49.95885007 37.72002686 -32.99609375 15.47265625 C-32.30157104 14.61692017 -32.30157104 14.61692017 -31.59301758 13.74389648 C-29.94414044 11.6212754 -29.94414044 11.6212754 -28.4597168 8.82055664 C-21.39650724 -2.3277684 -11.8530345 -0.58856308 0 0 Z " fill="#B4DEF1" transform="translate(465.0625,203.3125)"/>
<path d="M0 0 C9.9 0 19.8 0 30 0 C33.375 10.375 33.375 10.375 34.42724609 13.64208984 C34.70648926 14.48980957 34.98573242 15.3375293 35.2734375 16.2109375 C35.69761963 17.51490479 35.69761963 17.51490479 36.13037109 18.84521484 C36.90257878 21.16330145 36.90257878 21.16330145 39 23 C39.77783203 24.83178711 39.77783203 24.83178711 40.5078125 27.02734375 C40.77207031 27.81947266 41.03632813 28.61160156 41.30859375 29.42773438 C41.57800781 30.25595703 41.84742188 31.08417969 42.125 31.9375 C42.40214844 32.76185547 42.67929688 33.58621094 42.96484375 34.43554688 C45 40.60618073 45 40.60618073 45 44 C45.66 44 46.32 44 47 44 C47.495 47.465 47.495 47.465 48 51 C48.66 51 49.32 51 50 51 C50.15855469 51.65484375 50.31710938 52.3096875 50.48046875 52.984375 C52.35432607 60.31415942 55.00093202 67.0669694 58 74 C60.46208094 79.97813488 62.85479373 85.93304954 64.609375 92.1640625 C67.03741313 100.66219596 70.47132226 108.65220872 74.125 116.6875 C76.87593894 122.84915592 79 128.19306315 79 135 C71.08 135 63.16 135 55 135 C52.45863806 128.64659515 50.47739125 123.47779239 49 117 C48.67 116.01 48.34 115.02 48 114 C47.34 113.67 46.68 113.34 46 113 C43.66706026 108.59333606 44 106.44049235 44 101 C24.53 101 5.06 101 -15 101 C-15.33 102.98 -15.66 104.96 -16 107 C-16.66 107 -17.32 107 -18 107 C-18.04898438 107.65226562 -18.09796875 108.30453125 -18.1484375 108.9765625 C-18.57242229 113.93279853 -19.15665573 118.33019451 -21 123 C-21.66 123 -22.32 123 -23 123 C-23.12375 123.86625 -23.2475 124.7325 -23.375 125.625 C-24 129 -24 129 -26 135 C-33.59 135 -41.18 135 -49 135 C-47.875 126 -47.875 126 -46 122 C-45.34 122 -44.68 122 -44 122 C-43.938125 120.7625 -43.87625 119.525 -43.8125 118.25 C-43.25271951 113.0659459 -41.3664242 108.85040857 -39.2578125 104.12109375 C-38.00259471 101.00643843 -37.21877427 98.02579308 -36.5 94.75 C-35.43920996 90.09698913 -33.8929388 87.00182821 -31.1953125 83.125 C-29.22013136 79.61356686 -28.55661173 75.81622091 -27.6875 71.91015625 C-26.7879932 68.10258486 -25.45174523 64.62936307 -24 61 C-23.67 60.01 -23.34 59.02 -23 58 C-22.34 58 -21.68 58 -21 58 C-20.64035156 56.16115234 -20.64035156 56.16115234 -20.2734375 54.28515625 C-18.90794301 48.15243013 -16.7759484 42.33152037 -14.625 36.4375 C-14.04492188 34.81038086 -14.04492188 34.81038086 -13.453125 33.15039062 C-11.54769935 27.88489391 -9.52875442 22.83982443 -6.93310547 17.87915039 C-5.26810646 14.52606369 -4.02619297 11.01510193 -2.75 7.5 C-1.8425 5.025 -0.935 2.55 0 0 Z " fill="#F5F6F6" transform="translate(132,390)"/>
<path d="M0 0 C0.88171875 -0.01611328 1.7634375 -0.03222656 2.671875 -0.04882812 C12.66459164 -0.05615416 25.65125558 2.88312557 33.25390625 9.79296875 C34.44566141 11.24623758 35.53865479 12.77883617 36.625 14.3125 C37.45 15.055 38.275 15.7975 39.125 16.5625 C49.06291888 27.49421076 50.33984455 41.94507294 49.984375 56.0390625 C49.63653679 62.98826491 48.86606065 72.64651881 44.10546875 78.03125 C43.61691406 78.4540625 43.12835938 78.876875 42.625 79.3125 C42.00625 80.26125 41.3875 81.21 40.75 82.1875 C38.63154197 85.30287946 36.28031428 87.65718572 33.625 90.3125 C33.191875 91.158125 32.75875 92.00375 32.3125 92.875 C28.35582092 98.59020312 21.58476221 99.77396296 15.125 101.0625 C4.33823478 103.01078157 -6.2231554 103.98892841 -16.375 99.3125 C-18.1791002 98.86084766 -19.99170309 98.44126904 -21.8125 98.0625 C-30.07804446 95.89690468 -35.39666834 90.00213317 -40.375 83.3125 C-40.375 82.6525 -40.375 81.9925 -40.375 81.3125 C-41.035 81.3125 -41.695 81.3125 -42.375 81.3125 C-48.11531891 68.82730638 -48.11531891 68.82730638 -47.375 62.3125 C-48.035 62.3125 -48.695 62.3125 -49.375 62.3125 C-49.4332462 58.58339934 -49.46867917 54.85441636 -49.5 51.125 C-49.51675781 50.06990234 -49.53351563 49.01480469 -49.55078125 47.92773438 C-49.55722656 46.90615234 -49.56367188 45.88457031 -49.5703125 44.83203125 C-49.58078613 43.89464111 -49.59125977 42.95725098 -49.60205078 41.99145508 C-49.35549741 39.0823904 -48.55881503 36.96577134 -47.375 34.3125 C-47.01496978 32.90238164 -46.67919703 31.48570755 -46.375 30.0625 C-46.045 28.825 -45.715 27.5875 -45.375 26.3125 C-44.715 25.9825 -44.055 25.6525 -43.375 25.3125 C-42.983125 24.301875 -42.59125 23.29125 -42.1875 22.25 C-39.32710086 15.1933808 -32.99836973 8.47970456 -26.125 5.2578125 C-17.33290164 1.58550312 -9.48563352 -0.03436824 0 0 Z " fill="#F1F4F4" transform="translate(433.375,424.6875)"/>
<path d="M0 0 C1.0828125 0.62841797 1.0828125 0.62841797 2.1875 1.26953125 C9.84146608 6.21770073 14.49430263 14.18579703 17.16796875 22.734375 C19.64366826 34.31088539 21.49241341 48.79581357 17 60 C16.34 60 15.68 60 15 60 C14.95875 60.928125 14.9175 61.85625 14.875 62.8125 C13.57503832 71.71362653 7.71420347 79.35060413 1 85 C0.18402344 85.70769531 0.18402344 85.70769531 -0.6484375 86.4296875 C-5.28879685 90.11147496 -10.2899522 91.64133911 -16 93 C-16.74765625 93.18691406 -17.4953125 93.37382813 -18.265625 93.56640625 C-30.50365852 95.50700871 -45.9294413 95.36150134 -56.6796875 88.71484375 C-68.76468644 79.7833378 -75.60279344 68.65243764 -79 54 C-80.40041918 39.6232662 -79.85068878 22.56246338 -71.1171875 10.53125 C-53.93268999 -10.01405329 -22.78858153 -14.34707953 0 0 Z " fill="#D1E9F2" transform="translate(722,433)"/>
<path d="M0 0 C1.07572266 -0.020625 2.15144531 -0.04125 3.25976562 -0.0625 C4.28650391 -0.06765625 5.31324219 -0.0728125 6.37109375 -0.078125 C7.31782959 -0.0874707 8.26456543 -0.09681641 9.23999023 -0.10644531 C10.00641846 0.01118164 10.77284668 0.12880859 11.5625 0.25 C13.83643764 3.66090646 14.06254893 5.71468065 14.5625 9.75 C15.37591333 15.96034619 16.38264389 22.09968624 17.5625 28.25 C18.2225 28.25 18.8825 28.25 19.5625 28.25 C19.90058686 30.31172613 20.23277361 32.3744203 20.5625 34.4375 C20.8409375 36.16033203 20.8409375 36.16033203 21.125 37.91796875 C21.49739477 40.75415393 21.64846021 43.39719564 21.5625 46.25 C22.2225 46.25 22.8825 46.25 23.5625 46.25 C25.07989622 49.38595218 25.71495726 52.13011038 26 55.5625 C26.41946539 60.21545867 27.8456212 63.92047954 29.5625 68.25 C29.5625 69.24 29.5625 70.23 29.5625 71.25 C30.2225 71.25 30.8825 71.25 31.5625 71.25 C31.72105469 70.0640625 31.87960937 68.878125 32.04296875 67.65625 C33.29556396 58.80157068 34.90805197 50.45549021 37.7890625 41.98510742 C39.62500781 36.4527829 40.4872378 31.01975972 41.10546875 25.23828125 C41.56111985 22.25902405 42.41845237 20.02545128 43.5625 17.25 C44.34532781 14.49710893 45.01608211 11.71937219 45.6875 8.9375 C46.30625 6.400625 46.925 3.86375 47.5625 1.25 C55.1525 1.25 62.7425 1.25 70.5625 1.25 C68.44682835 11.82835825 66.07163695 22.24530767 62.84375 32.54296875 C61.22397777 37.7667342 59.95014729 42.92998321 58.9921875 48.31640625 C58.5625 50.25 58.5625 50.25 57.5625 51.25 C57.19057954 53.03405598 56.86439705 54.82776915 56.5625 56.625 C56.05465931 59.63236907 55.52846946 62.35209163 54.5625 65.25 C53.9025 65.25 53.2425 65.25 52.5625 65.25 C52.42972656 66.17683594 52.29695312 67.10367188 52.16015625 68.05859375 C51.98355469 69.25613281 51.80695313 70.45367187 51.625 71.6875 C51.45097656 72.88246094 51.27695312 74.07742188 51.09765625 75.30859375 C50.5625 78.25 50.5625 78.25 49.5625 79.25 C49.05695805 81.82366812 48.66269714 84.40873829 48.2578125 87 C47.36552449 91.1706945 45.91123535 95.20379394 44.5625 99.25 C35.9825 99.25 27.4025 99.25 18.5625 99.25 C18.5625 97.6 18.5625 95.95 18.5625 94.25 C17.9025 94.25 17.2425 94.25 16.5625 94.25 C15.33795093 90.41307957 14.4638201 86.89142994 14.125 82.875 C13.74282497 78.86216221 12.76113251 75.36354015 11.37890625 71.5859375 C9.00623311 64.79714067 7.55308759 57.83632942 6.0625 50.8125 C4.35264077 42.7371633 4.35264077 42.7371633 2.4140625 34.71484375 C1.67529413 31.70893759 1.37072196 29.31844863 1.5625 26.25 C0.0775 26.745 0.0775 26.745 -1.4375 27.25 C-1.55025269 28.10380249 -1.55025269 28.10380249 -1.6652832 28.97485352 C-2.01649686 31.58891314 -2.38312847 34.20059376 -2.75 36.8125 C-2.92692383 38.15538086 -2.92692383 38.15538086 -3.10742188 39.52539062 C-3.8837127 44.95942642 -5.16530874 49.27051702 -7.4375 54.25 C-8.1947032 57.28514951 -8.1947032 57.28514951 -8.625 60.1875 C-8.78355469 61.14527344 -8.94210937 62.10304688 -9.10546875 63.08984375 C-9.21503906 63.80269531 -9.32460938 64.51554687 -9.4375 65.25 C-10.0975 65.25 -10.7575 65.25 -11.4375 65.25 C-11.54707031 66.15621094 -11.65664063 67.06242187 -11.76953125 67.99609375 C-12.59346267 74.32629855 -13.54808615 80.16640957 -15.77734375 86.1484375 C-16.7349083 89.1967791 -16.99132217 92.22659927 -17.2265625 95.40234375 C-17.4375 97.25 -17.4375 97.25 -18.4375 99.25 C-26.6875 99.25 -34.9375 99.25 -43.4375 99.25 C-46.81454499 91.37022836 -46.81454499 91.37022836 -47.75390625 87.54296875 C-47.96080078 86.70830078 -48.16769531 85.87363281 -48.38085938 85.01367188 C-48.58517578 84.16353516 -48.78949219 83.31339844 -49 82.4375 C-49.31227539 81.17969727 -49.31227539 81.17969727 -49.63085938 79.89648438 C-50.67908783 75.62142099 -51.62353642 71.34861663 -52.44140625 67.0234375 C-53.21580941 63.0671382 -54.33459777 59.4481493 -55.8125 55.6875 C-58.07518752 49.60486354 -59.67489748 43.54842889 -61.00537109 37.19897461 C-61.73530515 33.81624469 -62.58191496 30.71969649 -63.98828125 27.55078125 C-65.22843191 24.72617934 -65.97762424 22.38753592 -66.5 19.375 C-67.23900722 15.30114507 -68.10468308 11.2837444 -69.0703125 7.2578125 C-69.4375 5.25 -69.4375 5.25 -69.4375 1.25 C-62.1775 1.25 -54.9175 1.25 -47.4375 1.25 C-44.76630974 11.21281774 -42.1374997 21.11882247 -40.0625 31.22265625 C-39.50311308 33.93218665 -38.88656833 36.62034645 -38.25 39.3125 C-37.56486805 42.34746467 -37.23568931 45.12193435 -37.4375 48.25 C-36.7775 48.25 -36.1175 48.25 -35.4375 48.25 C-35.24414062 49.51457031 -35.05078125 50.77914062 -34.8515625 52.08203125 C-34.58892921 53.74224885 -34.32588705 55.40240181 -34.0625 57.0625 C-33.93617188 57.89587891 -33.80984375 58.72925781 -33.6796875 59.58789062 C-33.55078125 60.39033203 -33.421875 61.19277344 -33.2890625 62.01953125 C-33.17385254 62.75792236 -33.05864258 63.49631348 -32.93994141 64.25708008 C-32.48060634 66.54767611 -32.48060634 66.54767611 -30.4375 69.25 C-24.05825704 62.87075704 -23.37989223 47.20318198 -21.83251953 38.57299805 C-20.94998962 33.69315399 -19.85112296 29.01005405 -18.4375 24.25 C-17.94029658 22.35842026 -17.45007574 20.46499851 -16.96484375 18.5703125 C-16.70509766 17.5596875 -16.44535156 16.5490625 -16.17773438 15.5078125 C-15.63670173 13.39633717 -15.09768112 11.2843454 -14.56054688 9.171875 C-14.30208984 8.16898437 -14.04363281 7.16609375 -13.77734375 6.1328125 C-13.54394287 5.21902832 -13.31054199 4.30524414 -13.07006836 3.36376953 C-11.49153003 -1.91102198 -4.62125565 0.02207167 0 0 Z " fill="#C7E5F1" transform="translate(814.4375,425.75)"/>
<path d="M0 0 C29.7 0 59.4 0 90 0 C90 6.6 90 13.2 90 20 C67.89 20 45.78 20 23 20 C23 32.87 23 45.74 23 59 C44.12 59 65.24 59 87 59 C87 65.6 87 72.2 87 79 C65.88 79 44.76 79 23 79 C23 97.48 23 115.96 23 135 C15.41 135 7.82 135 0 135 C0 90.45 0 45.9 0 0 Z " fill="#F3F6F7" transform="translate(500,390)"/>
<path d="M0 0 C1.99923308 0.00934467 3.99847774 0.01645295 5.99772644 0.0214386 C11.21754493 0.04037824 16.43664938 0.08936434 21.65618896 0.1449585 C26.99921006 0.19643465 32.3423484 0.21901279 37.68554688 0.24414062 C48.1383317 0.29749761 58.59059047 0.38264941 69.04296875 0.48828125 C69.04296875 1.47828125 69.04296875 2.46828125 69.04296875 3.48828125 C67.84671875 3.79765625 66.65046875 4.10703125 65.41796875 4.42578125 C54.15856418 8.2200947 44.68974608 16.27683913 35.8828125 24.0078125 C34.12966769 25.53910129 32.33599617 27.02687563 30.484375 28.4375 C27.86638286 30.451856 27.86638286 30.451856 25.9206543 33.57275391 C23.57160866 36.41445596 23.07504822 36.4823349 19.12988281 37.21362305 C17.60623406 37.23421545 16.08194987 37.22377273 14.55859375 37.1875 C13.33604889 37.19738701 13.33604889 37.19738701 12.08880615 37.20747375 C9.4893574 37.2249167 6.89230242 37.20302844 4.29296875 37.17578125 C1.70839366 37.16441995 -0.87545753 37.16196101 -3.46002197 37.17622375 C-5.06399276 37.18351274 -6.66813381 37.17575203 -8.27191162 37.14982605 C-13.97674953 37.15310807 -18.6591704 38.42638183 -23.95703125 40.48828125 C-25.50390625 41.07609375 -25.50390625 41.07609375 -27.08203125 41.67578125 C-32.85092006 45.31268941 -37.46264577 50.67581386 -39.5234375 57.2421875 C-41.26377333 66.25744067 -40.04915862 75.89262866 -36.95703125 84.48828125 C-34.89565952 87.37253928 -32.74519676 89.69530132 -30.20703125 92.17578125 C-27.95703125 94.48828125 -27.95703125 94.48828125 -27.95703125 96.48828125 C-42.14703125 96.48828125 -56.33703125 96.48828125 -70.95703125 96.48828125 C-71.28703125 92.85828125 -71.61703125 89.22828125 -71.95703125 85.48828125 C-72.61703125 85.48828125 -73.27703125 85.48828125 -73.95703125 85.48828125 C-78.53526015 66.56221 -75.95308367 49.97421453 -66.64453125 32.98828125 C-59.39357122 21.50098352 -49.3554294 11.42967857 -36.47868347 6.49467468 C-33.92234634 5.51135275 -33.92234634 5.51135275 -31.39839172 4.23469543 C-21.02348984 -0.4869541 -11.20231231 -0.15514267 0 0 Z " fill="#EFF5F7" transform="translate(487.95703125,47.51171875)"/>
<path d="M0 0 C13.53 0 27.06 0 41 0 C45.62974397 10.41692393 47.34882802 17.27315676 47.3125 28.375 C47.32861328 29.35210937 47.34472656 30.32921875 47.36132812 31.3359375 C47.36523064 37.20531971 46.65889091 42.18629001 44.75512695 47.74511719 C43.96637555 50.1004059 43.41189874 52.45125634 42.875 54.875 C41.20586225 60.57713545 37.71851292 64.78057013 34.05859375 69.3359375 C32.34990886 71.54717677 31.23236547 73.52971787 30 76 C28.34928604 77.02611949 26.68029994 78.02308143 25 79 C24.13375 79.86625 23.2675 80.7325 22.375 81.625 C20 84 20 84 17 85 C16.505 86.485 16.505 86.485 16 88 C13.41079721 89.15610915 10.92978761 90.10828558 8.25 91 C7.55261719 91.2475 6.85523438 91.495 6.13671875 91.75 C3.77303632 92.56185515 1.39534869 93.2866141 -1 94 C-1.87776596 94.26150345 -2.75553192 94.5230069 -3.65989685 94.79243469 C-13.49402317 97.39129136 -22.90352048 97.38645311 -32.98828125 97.29296875 C-34.78573753 97.28736015 -36.58319846 97.28309604 -38.38066101 97.28010559 C-43.06762789 97.2687562 -47.75430731 97.23937667 -52.44116211 97.20599365 C-57.24133417 97.17507681 -62.04155354 97.16155447 -66.84179688 97.14648438 C-76.22798955 97.11449555 -85.61397069 97.06342203 -95 97 C-93.652217 92.956651 -91.845429 92.48384163 -88.1875 90.375 C-78.93167805 84.89287331 -70.40527095 78.54794196 -62.5234375 71.21484375 C-61 70 -61 70 -59 70 C-59 69.34 -59 68.68 -59 68 C-57.37550757 66.29220027 -55.70779973 64.62449243 -54 63 C-53.67 62.67 -53.34 62.34 -53 62 C-50.46417416 61.86429534 -47.95186305 61.78933149 -45.4140625 61.75390625 C-43.82681853 61.72091334 -42.23957908 61.68770278 -40.65234375 61.65429688 C-38.15352156 61.60728258 -35.65470982 61.56297294 -33.15576172 61.52319336 C-17.82680402 62.33366748 -17.82680402 62.33366748 -4.36572266 57.47875977 C-3.91503418 56.99076904 -3.4643457 56.50277832 -3 56 C-2.21625 55.731875 -1.4325 55.46375 -0.625 55.1875 C5.23795872 52.53520915 7.4028002 47.54288545 9.8125 41.875 C13.25759503 32.28106448 13.10729658 24.05541762 9.28125 14.61328125 C7.2427565 10.45550029 4.72266092 6.73393498 2 3 C1.01 1.515 1.01 1.515 0 0 Z " fill="#B9E0F1" transform="translate(507,204)"/>
<path d="M0 0 C7.26 0 14.52 0 22 0 C22.00410889 1.94696777 22.00821777 3.89393555 22.01245117 5.89990234 C22.03192516 12.36612377 22.07435412 18.83188382 22.13209057 25.29787254 C22.16623665 29.21444582 22.19145105 33.13063417 22.19555664 37.04736328 C22.1998665 40.83435982 22.22854798 44.6204899 22.27343178 48.40721512 C22.28632178 49.84468138 22.29074489 51.2822518 22.28615379 52.71976852 C22.26434702 61.6290772 23.23389931 68.32336276 28 76 C28.66 77.32 29.32 78.64 30 80 C36.27 80.33 42.54 80.66 49 81 C49 80.34 49 79.68 49 79 C55.625 75.125 55.625 75.125 59 74 C60.08431094 72.25132517 60.08431094 72.25132517 61 70 C61.50670731 69.09752533 62.01341461 68.19505066 62.53547668 67.26522827 C64.1335026 63.70234925 64.39400179 61.32701895 64.43237305 57.44384766 C64.45216721 56.16297272 64.47196136 54.88209778 64.49235535 53.56240845 C64.49912358 52.17962796 64.50557062 50.79684588 64.51171875 49.4140625 C64.528579 47.9877265 64.54673105 46.56140524 64.56611633 45.13510132 C64.61347688 41.39679571 64.64337593 37.65854988 64.66955566 33.92004395 C64.69943201 30.09891968 64.74593788 26.27800106 64.79101562 22.45703125 C64.87689001 14.97143893 64.9427666 7.48587613 65 0 C72.59 0 80.18 0 88 0 C88 32.67 88 65.34 88 99 C80.41 99 72.82 99 65 99 C65 95.37 65 91.74 65 88 C63.68 88.99 62.36 89.98 61 91 C60.236875 91.28875 59.47375 91.5775 58.6875 91.875 C55.70728462 93.12253202 53.53865593 94.76187402 51.0390625 96.78125 C45.59226723 100.0368058 39.72851918 100.3607636 33.5625 100.3125 C32.8104126 100.30686035 32.0583252 100.3012207 31.28344727 100.29541016 C22.29362034 100.09787453 15.57496999 97.27610771 9 91 C-0.847019 78.84372433 -0.15416618 65.52097834 -0.09765625 50.5859375 C-0.09578705 49.12049407 -0.09436552 47.65505 -0.09336853 46.18960571 C-0.08958288 42.36580628 -0.07978719 38.54204591 -0.06866455 34.71826172 C-0.05836462 30.80306527 -0.05385267 26.8878624 -0.04882812 22.97265625 C-0.03816066 15.31508445 -0.02059674 7.65755271 0 0 Z " fill="#F6F8F8" transform="translate(219,427)"/>
<path d="M0 0 C7.26 0 14.52 0 22 0 C22.495 11.385 22.495 11.385 23 23 C29.93 23.33 36.86 23.66 44 24 C44 29.61 44 35.22 44 41 C33.605 41.495 33.605 41.495 23 42 C22.90965166 49.5103791 22.83625724 57.02055613 22.79275131 64.53134632 C22.771871 68.01890556 22.74354682 71.50607394 22.69824219 74.9934082 C22.64648938 79.00215417 22.62705864 83.01048922 22.609375 87.01953125 C22.58872986 88.27272659 22.56808472 89.52592194 22.54681396 90.8170929 C22.54651184 91.97806992 22.54620972 93.13904694 22.54589844 94.33520508 C22.53257477 95.87075798 22.53257477 95.87075798 22.51898193 97.43733215 C22.75123047 100.15468124 22.75123047 100.15468124 25.02838135 101.72904968 C25.6790155 102.14846329 26.32964966 102.56787689 27 103 C27 103.66 27 104.32 27 105 C32.94 105 38.88 105 45 105 C45 110.61 45 116.22 45 122 C39.05233974 122.84966575 33.58896546 123.2159202 27.625 123.25 C26.73039062 123.270625 25.83578125 123.29125 24.9140625 123.3125 C18.32654298 123.35079953 11.07574815 123.01783657 6.1328125 118.16796875 C5.80023438 117.51441406 5.46765625 116.86085938 5.125 116.1875 C4.77695312 115.54167969 4.42890625 114.89585937 4.0703125 114.23046875 C3.71710938 113.49441406 3.36390625 112.75835938 3 112 C2.48994919 111.10111053 1.97989838 110.20222107 1.45439148 109.27609253 C-0.15123023 105.65934604 -0.36354865 103.28800118 -0.34057617 99.35205078 C-0.34034958 98.05115509 -0.34012299 96.7502594 -0.33988953 95.40994263 C-0.32457301 94.00506235 -0.30892508 92.60018565 -0.29296875 91.1953125 C-0.2873677 89.74657634 -0.28310001 88.29783447 -0.28010559 86.84909058 C-0.26869677 83.05139245 -0.2392644 79.25404307 -0.20599365 75.45648193 C-0.17520678 71.5752026 -0.16158192 67.69386646 -0.14648438 63.8125 C-0.11439023 56.20815656 -0.06165545 48.60417174 0 41 C-4.62 41 -9.24 41 -14 41 C-14 35.39 -14 29.78 -14 24 C-9.38 24 -4.76 24 0 24 C0 16.08 0 8.16 0 0 Z " fill="#F3F5F6" transform="translate(333,403)"/>
<path d="M0 0 C7.59 0 15.18 0 23 0 C23 45.21 23 90.42 23 137 C15.74 137 8.48 137 1 137 C0 136 0 136 -0.12304783 133.75298977 C-0.12166514 132.25000631 -0.12166514 132.25000631 -0.12025452 130.71665955 C-0.12162918 129.57095993 -0.12300385 128.42526031 -0.12442017 127.24484253 C-0.12082489 125.97673737 -0.11722961 124.7086322 -0.11352539 123.40209961 C-0.11324352 122.06206769 -0.11340125 120.72203561 -0.1139679 119.38200378 C-0.11425587 115.73340562 -0.1083592 112.08484005 -0.10139394 108.43624949 C-0.09516034 104.62722484 -0.0945566 100.8181995 -0.09336853 97.00917053 C-0.09025523 89.79142246 -0.08204186 82.57368946 -0.07201904 75.35594803 C-0.06085786 67.14084743 -0.05534744 58.92574612 -0.05032361 50.71063983 C-0.03985925 33.80708425 -0.02205939 16.90354429 0 0 Z " fill="#E4EBEE" transform="translate(605,389)"/>
<path d="M0 0 C1.08039551 -0.00942627 1.08039551 -0.00942627 2.18261719 -0.01904297 C7.79174994 0.11316314 13.02973363 1.02472616 17.109375 5.21875 C17.64304687 6.10046875 17.64304687 6.10046875 18.1875 7 C19.74551476 9.50160116 21.35311953 11.42119274 23.4375 13.5 C29.98083668 24.82500579 28.25838276 39.00854826 25.09375 51.18359375 C24.8771875 51.94800781 24.660625 52.71242188 24.4375 53.5 C23.7775 53.5 23.1175 53.5 22.4375 53.5 C22.19 54.428125 21.9425 55.35625 21.6875 56.3125 C20.33327923 59.76576296 19.66586028 60.79614318 16.4375 62.5 C13.1875 63.1875 13.1875 63.1875 10.4375 63.5 C10.4375 64.16 10.4375 64.82 10.4375 65.5 C3.7197368 67.03584549 -5.01131619 68.29578046 -11.375 65.0625 C-17.03664356 61.07104129 -22.52116592 55.5445095 -24.22485352 48.69750977 C-24.99201662 43.70457042 -24.88923603 38.66455425 -24.875 33.625 C-24.89111328 32.49191406 -24.90722656 31.35882813 -24.92382812 30.19140625 C-24.92863095 21.90173154 -24.05622442 15.20496199 -19.375 8.25 C-18.446875 7.3425 -17.51875 6.435 -16.5625 5.5 C-16.06621094 5.01273437 -15.56992187 4.52546875 -15.05859375 4.0234375 C-10.38058093 0.2768411 -5.77779514 0.03848553 0 0 Z " fill="#0D0F11" transform="translate(691.5625,442.5)"/>
<path d="M0 0 C1.17179216 0.73076754 2.31984878 1.50134415 3.4375 2.3125 C4.03433594 2.69792969 4.63117188 3.08335937 5.24609375 3.48046875 C6.9375 4.6875 6.9375 4.6875 9.4375 7.3125 C9.8125 10.625 9.8125 10.625 9.4375 13.3125 C10.0975 13.3125 10.7575 13.3125 11.4375 13.3125 C11.4375 14.3025 11.4375 15.2925 11.4375 16.3125 C12.0975 16.3125 12.7575 16.3125 13.4375 16.3125 C16.1388967 25.80426292 16.45630269 39.85413428 11.9375 48.6875 C10.53125 50.8984375 10.53125 50.8984375 9.4375 52.3125 C8.7775 52.3125 8.1175 52.3125 7.4375 52.3125 C7.210625 52.869375 6.98375 53.42625 6.75 54 C4.39608306 58.14737746 1.77517094 60.73921246 -2.625 62.625 C-11.36558639 64.15113413 -18.32999238 64.12323998 -26.30859375 59.9921875 C-33.80272492 54.40730638 -36.76332645 46.21300521 -38.5625 37.3125 C-39.13314511 32.30336996 -38.89442994 27.33294035 -38.5625 22.3125 C-38.5521875 21.51972656 -38.541875 20.72695313 -38.53125 19.91015625 C-38.2200585 13.36216843 -34.40052956 8.31833079 -30.04296875 3.703125 C-22.50088712 -3.06285852 -9.10166908 -4.34837962 0 0 Z " fill="#0D0E0F" transform="translate(445.5625,445.6875)"/>
<path d="M0 0 C4.86329226 2.84192387 9.66031055 5.81167012 11.9140625 11.11328125 C13.64445382 17.86504177 14.23129221 25.59533269 11.65234375 32.17578125 C8.03512626 37.91509967 3.2534626 42.20717913 -3.25 44.375 C-9.69722019 44.82947618 -17.32203606 45.28305778 -23.25 42.375 C-29.40098785 36.58301922 -33.29124562 29.46931165 -33.75 21 C-33.52668308 14.21674845 -31.26840523 9.2108404 -26.3125 4.5546875 C-18.59732884 -1.49470807 -9.36536416 -4.38145691 0 0 Z " fill="#CDE9F7" transform="translate(648.25,152.625)"/>
<path d="M0 0 C5.90704303 3.21485146 9.88764218 6.57774841 12.15234375 13.0234375 C12.64734375 13.5184375 12.64734375 13.5184375 13.15234375 14.0234375 C14.12246542 22.16509148 13.49096852 28.19592551 8.80078125 35 C6.79703017 37.45958071 4.82620137 39.3094262 2.15234375 41.0234375 C1.42144531 41.54292969 0.69054687 42.06242187 -0.0625 42.59765625 C-3.51641038 44.36578709 -5.9825227 44.42342759 -9.84765625 44.3984375 C-11.64203125 44.41003906 -11.64203125 44.41003906 -13.47265625 44.421875 C-20.09348995 43.6402488 -25.29686553 38.93862689 -29.59765625 34.0234375 C-32.28464215 29.72426007 -33.12345127 26.07926114 -33.09765625 21.0234375 C-33.1028125 20.0128125 -33.10796875 19.0021875 -33.11328125 17.9609375 C-32.84129051 14.9530399 -32.11086743 12.75036957 -30.84765625 10.0234375 C-30.18765625 10.0234375 -29.52765625 10.0234375 -28.84765625 10.0234375 C-28.60015625 9.2603125 -28.35265625 8.4971875 -28.09765625 7.7109375 C-26.72634953 4.76262805 -25.61254835 3.66509218 -22.84765625 2.0234375 C-22.18765625 2.0234375 -21.52765625 2.0234375 -20.84765625 2.0234375 C-20.84765625 1.3634375 -20.84765625 0.7034375 -20.84765625 0.0234375 C-14.5625209 -2.07160762 -6.29591721 -2.1590937 0 0 Z " fill="#080C0F" transform="translate(338.84765625,150.9765625)"/>
<path d="M0 0 C3.13736584 1.92069673 5.33587351 4.1828414 7.3125 7.3125 C7.3125 7.9725 7.3125 8.6325 7.3125 9.3125 C7.9725 9.3125 8.6325 9.3125 9.3125 9.3125 C10.38340792 12.81651072 10.47888464 16.09704216 10.5 19.75 C10.51417969 20.86246094 10.52835938 21.97492188 10.54296875 23.12109375 C10.12326106 28.93297819 7.88638606 32.20137979 4.0625 36.5 C3.31484375 37.35980469 2.5671875 38.21960938 1.796875 39.10546875 C-2.4450197 42.8738186 -6.87274558 43.71245143 -12.48046875 43.4765625 C-13.20878906 43.42242187 -13.93710937 43.36828125 -14.6875 43.3125 C-15.50863281 43.27898437 -16.32976563 43.24546875 -17.17578125 43.2109375 C-21.31409952 42.77135893 -23.81757086 42.20849443 -26.7734375 39.1640625 C-28.58537808 36.61817131 -30.16344352 34.0388677 -31.6875 31.3125 C-32.326875 30.3225 -32.96625 29.3325 -33.625 28.3125 C-35.62333395 22.67014532 -35.29419744 17.38240891 -33.625 11.6875 C-26.50520242 -0.71472804 -13.86998154 -6.46393479 0 0 Z " fill="#111214" transform="translate(649.6875,44.6875)"/>
<path d="M0 0 C1.04285156 -0.00257813 2.08570313 -0.00515625 3.16015625 -0.0078125 C5.9375 0.125 5.9375 0.125 8.9375 1.125 C8.9375 1.785 8.9375 2.445 8.9375 3.125 C9.68 3.2075 10.4225 3.29 11.1875 3.375 C14.48052595 4.27309799 15.79726788 5.50916074 17.9375 8.125 C17.9375 8.785 17.9375 9.445 17.9375 10.125 C18.5975 10.125 19.2575 10.125 19.9375 10.125 C22.58268502 17.07654623 23.49151313 25.2025584 21.21484375 32.4140625 C17.64298133 38.97934807 11.97812412 43.77812529 4.9375 46.125 C-2.60866172 47.07848614 -7.96517153 45.66982595 -14.0625 41.125 C-16.375 38.75 -16.375 38.75 -18.0625 36.125 C-18.805 35.073125 -19.5475 34.02125 -20.3125 32.9375 C-22.79915551 28.42431815 -22.52459954 24.13878002 -22.0625 19.125 C-22.02640625 18.35800781 -21.9903125 17.59101563 -21.953125 16.80078125 C-21.17172126 10.21630558 -17.45197828 7.07177536 -12.5703125 2.875 C-8.3939903 -0.0393183 -5.02509777 -0.01245377 0 0 Z " fill="#0A0F13" transform="translate(329.0625,261.875)"/>
<path d="M0 0 C0.99 0 1.98 0 3 0 C5.98074286 6.4501321 8.34104035 12.8232473 9.9375 19.75 C11.42628027 26.18667141 13.44738698 32.23683752 15.84814453 38.38793945 C17.63279497 42.96403959 19.15309328 47.54365379 20.45703125 52.27734375 C20.8579926 54.01193733 20.8579926 54.01193733 22 55 C22 56.65 22 58.3 22 60 C8.14 60 -5.72 60 -20 60 C-19.33846256 56.69231282 -18.7049785 53.88951939 -17.625 50.76171875 C-16.56160756 47.6457466 -15.51449938 44.52679808 -14.5 41.39453125 C-14 39.8671875 -13.5 38.33984375 -13 36.8125 C-12.62875 35.66104492 -12.62875 35.66104492 -12.25 34.48632812 C-10.80961842 30.10891849 -9.10661346 26.11119721 -7 22 C-6.51497575 20.1245729 -6.033402 18.2477579 -5.6015625 16.359375 C-4.19859533 10.85682844 -2.54409124 5.08818249 0 0 Z " fill="#121315" transform="translate(145,411)"/>
<path d="M0 0 C0.84575089 0.00202423 1.69150177 0.00404846 2.56288147 0.00613403 C3.89205345 0.00350555 3.89205345 0.00350555 5.24807739 0.00082397 C8.19222442 -0.00359583 11.13631191 -0.0006561 14.08045959 0.00271606 C16.11687736 0.00204306 18.15329504 0.00107307 20.18971252 -0.00018311 C24.46368675 -0.00166025 28.73764013 0.00049502 33.01161194 0.00515747 C38.50329498 0.01085477 43.99492916 0.00757585 49.48661041 0.00158501 C53.69348014 -0.00202015 57.90033818 -0.00088223 62.10720825 0.0017128 C64.13271083 0.00238219 66.15821446 0.00155321 68.18371582 -0.00076675 C71.00935189 -0.00329254 73.83490766 0.00054626 76.66053772 0.00613403 C77.5062886 0.0041098 78.35203949 0.00208557 79.22341919 0 C84.99744719 0.02126616 84.99744719 0.02126616 86.11170959 1.13552856 C86.21073067 2.67334448 86.24250527 4.215623 86.24452209 5.75662231 C86.24581116 6.69183716 86.24710022 7.627052 86.24842834 8.59060669 C86.24456116 9.57480591 86.24069397 10.55900513 86.23670959 11.57302856 C86.24057678 12.5533606 86.24444397 13.53369263 86.24842834 14.54373169 C86.24713928 15.4802356 86.24585022 16.4167395 86.24452209 17.38162231 C86.24339417 18.24456909 86.24226624 19.10751587 86.24110413 19.99661255 C86.11170959 22.13552856 86.11170959 22.13552856 85.11170959 24.13552856 C63.00170959 24.13552856 40.89170959 24.13552856 18.11170959 24.13552856 C18.11170959 36.01552856 18.11170959 47.89552856 18.11170959 60.13552856 C39.23170959 60.13552856 60.35170959 60.13552856 82.11170959 60.13552856 C82.11170959 67.06552856 82.11170959 73.99552856 82.11170959 81.13552856 C81.78170959 81.13552856 81.45170959 81.13552856 81.11170959 81.13552856 C81.11170959 74.53552856 81.11170959 67.93552856 81.11170959 61.13552856 C59.99170959 61.13552856 38.87170959 61.13552856 17.11170959 61.13552856 C17.11170959 48.26552856 17.11170959 35.39552856 17.11170959 22.13552856 C39.22170959 22.13552856 61.33170959 22.13552856 84.11170959 22.13552856 C84.11170959 15.53552856 84.11170959 8.93552856 84.11170959 2.13552856 C54.41170959 2.13552856 24.71170959 2.13552856 -5.88829041 2.13552856 C-5.88829041 46.68552856 -5.88829041 91.23552856 -5.88829041 137.13552856 C1.70170959 137.13552856 9.29170959 137.13552856 17.11170959 137.13552856 C16.78170959 137.79552856 16.45170959 138.45552856 16.11170959 139.13552856 C8.52170959 139.13552856 0.93170959 139.13552856 -6.88829041 139.13552856 C-6.91140855 121.15983578 -6.92926919 103.18414807 -6.94010258 85.20844364 C-6.9452657 76.86260028 -6.95230871 68.5167663 -6.96372986 60.17092896 C-6.9736762 52.89934087 -6.98014371 45.62775957 -6.9823789 38.35616487 C-6.98368609 34.50353335 -6.98677248 30.65092128 -6.99402046 26.79829597 C-7.00077989 23.17620185 -7.00290753 19.55413528 -7.00139809 15.93203545 C-7.00180677 13.96055628 -7.00720237 11.98908016 -7.01271057 10.01760864 C-7.01133591 8.85508072 -7.00996124 7.6925528 -7.00854492 6.49479675 C-7.00946671 5.47805909 -7.01038851 4.46132143 -7.01133823 3.41377354 C-6.76496248 -1.14790244 -3.89627934 0.01435028 0 0 Z " fill="#46484A" transform="translate(505.88829040527344,387.8644714355469)"/>
<path d="M0 0 C4.28303488 0.46466888 6.64070973 3.18275442 9.5 6.125 C9.98903809 6.62201416 10.47807617 7.11902832 10.98193359 7.63110352 C20.32308294 17.34558378 20.51122397 26.34423886 20.3671875 39.24609375 C20.0761976 46.75587159 17.99233243 53.13900921 15 60 C14.34 60 13.68 60 13 60 C12.773125 60.721875 12.54625 61.44375 12.3125 62.1875 C9.67050346 67.84892117 4.82563995 70.99423295 -0.375 74.1875 C-1.45523437 74.86167969 -2.53546875 75.53585938 -3.6484375 76.23046875 C-17.27571479 83.42528998 -31.96492284 79.84805053 -46 76 C-46.11859375 75.35933594 -46.2371875 74.71867187 -46.359375 74.05859375 C-46.57078125 73.37925781 -46.7821875 72.69992188 -47 72 C-48.65697379 71.30959426 -50.3255761 70.6469365 -52 70 C-53.70779973 68.37550757 -55.37550757 66.70779973 -57 65 C-57.721875 64.54625 -58.44375 64.0925 -59.1875 63.625 C-61 62 -61 62 -63 55 C-138.9 54.67 -214.8 54.34 -293 54 C-293 53.67 -293 53.34 -293 53 C-263.64006085 52.95439296 -234.2801242 52.91899003 -204.92015688 52.89786934 C-201.4553975 52.89536787 -197.99063818 52.89277923 -194.52587891 52.89013672 C-193.83609614 52.8896121 -193.14631337 52.88908748 -192.43562809 52.88854696 C-181.26092846 52.87983996 -170.08624937 52.86406837 -158.91156194 52.84569441 C-147.44869649 52.82700354 -135.98584774 52.81603474 -124.52296662 52.81182301 C-118.08301671 52.80921105 -111.64311341 52.8030535 -105.20317841 52.78853989 C-99.1458229 52.77499866 -93.08853337 52.77077034 -87.03116417 52.77378464 C-84.80428649 52.77323292 -82.57740669 52.76923496 -80.35054207 52.76158905 C-77.31716994 52.751682 -74.28404897 52.75401565 -71.25067139 52.75949097 C-70.3635137 52.75366528 -69.47635601 52.7478396 -68.56231475 52.74183738 C-67.74968618 52.74581948 -66.9370576 52.74980158 -66.09980392 52.75390434 C-65.39959964 52.7531449 -64.69939535 52.75238546 -63.97797275 52.75160301 C-61.58611089 53.05197686 -60.02096756 53.68855449 -58 55 C-57.67 55.99 -57.34 56.98 -57 58 C-56.34 58 -55.68 58 -55 58 C-54.5978125 59.7015625 -54.5978125 59.7015625 -54.1875 61.4375 C-53.795625 62.613125 -53.40375 63.78875 -53 65 C-52.01 65.33 -51.02 65.66 -50 66 C-50 66.99 -50 67.98 -50 69 C-47.69 69.33 -45.38 69.66 -43 70 C-42.67 70.99 -42.34 71.98 -42 73 C-39.69 73.33 -37.38 73.66 -35 74 C-35 74.66 -35 75.32 -35 76 C-30.07438803 76.80184381 -25.38176768 77.13519708 -20.375 77.125 C-19.10398437 77.12757813 -17.83296875 77.13015625 -16.5234375 77.1328125 C-13.53591973 77.02020097 -10.89619112 76.69908062 -8 76 C-8 75.34 -8 74.68 -8 74 C-7.12859375 73.77570313 -6.2571875 73.55140625 -5.359375 73.3203125 C-1.43615897 71.77839736 0.73450157 69.79886726 3.75 66.875 C8.80453258 62 8.80453258 62 11 62 C10.9175 61.29875 10.835 60.5975 10.75 59.875 C11.08281029 56.04768167 12.8614148 54.17732658 15 51 C18.2800079 44.11061103 18.34355516 37.5200407 18 30 C17.67 30 17.34 30 17 30 C16.95101563 29.37351563 16.90203125 28.74703125 16.8515625 28.1015625 C16.73941406 26.87566406 16.73941406 26.87566406 16.625 25.625 C16.55539062 24.81289062 16.48578125 24.00078125 16.4140625 23.1640625 C16.17107412 20.79665809 16.17107412 20.79665809 14 19 C14 17.68 14 16.36 14 15 C13.34 15 12.68 15 12 15 C11.5875 14.071875 11.175 13.14375 10.75 12.1875 C9.04014879 9.07312814 7.8388153 7.95780365 5 6 C5 5.34 5 4.68 5 4 C3.02 3.34 1.04 2.68 -1 2 C-0.67 1.34 -0.34 0.68 0 0 Z " fill="#4B6696" transform="translate(661,138)"/>
<path d="M0 0 C7.59 0 15.18 0 23 0 C23 32.67 23 65.34 23 99 C15.41 99 7.82 99 0 99 C0 95.37 0 91.74 0 88 C-1.32 88.99 -2.64 89.98 -4 91 C-4.66 90.67 -5.32 90.34 -6 90 C-3.6875 87.5 -3.6875 87.5 -1 85 C-0.01 85 0.98 85 2 85 C2 88.96 2 92.92 2 97 C8.27 97 14.54 97 21 97 C21 65.32 21 33.64 21 1 C14.4 1 7.8 1 1 1 C1 22.45 1 43.9 1 66 C0.34 66 -0.32 66 -1 66 C-0.67 44.22 -0.34 22.44 0 0 Z " fill="#C7C9CA" transform="translate(284,427)"/>
<path d="M0 0 C0 0.66 0 1.32 0 2 C-2.56904115 1.55959295 -4.80907824 1.08727852 -7.1875 0 C-16.69568357 -3.38068749 -28.30630841 -2.23438644 -37.76171875 0.921875 C-40.93644458 2.45106231 -43.3288122 4.71836042 -46 7 C-46.80953125 7.44214844 -47.6190625 7.88429687 -48.453125 8.33984375 C-51.4038356 10.26323639 -52.82022319 12.19617944 -54.75 15.125 C-58 20 -58 20 -59 21 C-61.70838086 21.09514592 -64.39118513 21.12554932 -67.09985352 21.11352539 C-67.94856018 21.11367142 -68.79726685 21.11381744 -69.67169189 21.1139679 C-72.49078891 21.11326848 -75.30982071 21.10547478 -78.12890625 21.09765625 C-80.07803817 21.09579217 -82.02717055 21.09436822 -83.9763031 21.09336853 C-89.11706832 21.08954255 -94.25780547 21.07971159 -99.39855957 21.06866455 C-104.64005148 21.05845215 -109.8815479 21.05387128 -115.12304688 21.04882812 C-125.41537694 21.03808939 -135.70768614 21.02101201 -146 21 C-146 20.67 -146 20.34 -146 20 C-118.28 20 -90.56 20 -62 20 C-61.67 18.68 -61.34 17.36 -61 16 C-47.57077742 -4.14383386 -21.66685096 -12.1092181 0 0 Z " fill="#446289" transform="translate(661,136)"/>
<path d="M0 0 C76.23 0 152.46 0 231 0 C236 9 236 9 236 12 C231.21750099 9.28991723 231.74214681 8.09751385 230 2 C154.1 1.67 78.2 1.34 0 1 C0 0.67 0 0.34 0 0 Z " fill="#4F7089" transform="translate(368,191)"/>
<path d="M0 0 C0.99386719 0.00902344 1.98773437 0.01804688 3.01171875 0.02734375 C4.15060547 0.04474609 4.15060547 0.04474609 5.3125 0.0625 C5.3125 0.7225 5.3125 1.3825 5.3125 2.0625 C7.6225 2.3925 9.9325 2.7225 12.3125 3.0625 C12.3125 3.7225 12.3125 4.3825 12.3125 5.0625 C13.055 5.289375 13.7975 5.51625 14.5625 5.75 C19.83554119 8.26667875 22.41267471 13.24512845 24.61328125 18.47265625 C26.56061925 25.68542216 24.88264395 33.41967081 21.6328125 40.015625 C19.36185067 43.53628772 16.45402073 46.31808161 13.3125 49.0625 C12.3225 48.4025 11.3325 47.7425 10.3125 47.0625 C12.2925 46.5675 12.2925 46.5675 14.3125 46.0625 C14.42464844 45.47082031 14.53679688 44.87914062 14.65234375 44.26953125 C15.36907927 41.87334447 16.31738129 40.68038217 17.875 38.75 C22.03669585 32.33254438 21.30859226 23.96947909 19.8359375 16.71484375 C17.76472455 11.03772392 13.16251788 8.11447095 8.125 5.25 C1.27542998 3.11652737 -5.11285238 3.1488588 -11.6875 6.0625 C-13.68370166 6.74045528 -15.68288701 7.40983531 -17.6875 8.0625 C-16.6875 5.0625 -16.6875 5.0625 -14.9453125 3.9296875 C-14.24148438 3.60226563 -13.53765625 3.27484375 -12.8125 2.9375 C-12.11382813 2.60492188 -11.41515625 2.27234375 -10.6953125 1.9296875 C-6.9338786 0.30509932 -4.06680304 -0.04784474 0 0 Z " fill="#587DAE" transform="translate(639.6875,147.9375)"/>
<path d="M0 0 C1.2325074 -0.002062 1.2325074 -0.002062 2.48991394 -0.00416565 C3.38255447 -0.00057037 4.27519501 0.0030249 5.19488525 0.00672913 C6.61490593 0.00651009 6.61490593 0.00651009 8.06361389 0.00628662 C11.19105322 0.00698299 14.3184329 0.01476253 17.44586182 0.02259827 C19.61490852 0.02446342 21.78395565 0.02588687 23.95300293 0.02688599 C29.66090051 0.03070346 35.36877263 0.0405272 41.07666016 0.05158997 C46.90154679 0.06182062 52.72643754 0.06638716 58.55133057 0.07142639 C69.97972717 0.08215013 81.40810487 0.09921735 92.83648682 0.12025452 C92.83648682 0.45025452 92.83648682 0.78025452 92.83648682 1.12025452 C87.71253816 2.17221831 82.85250145 2.22194798 77.65338135 2.15101624 C75.77896439 2.13492149 73.904544 2.11922322 72.03012085 2.10386658 C71.04279087 2.09432827 70.05546089 2.08478996 69.03821182 2.07496262 C62.68894557 2.02319755 56.33940509 2.02919253 49.98996162 2.02360344 C44.41655751 2.01537776 38.84454789 1.98747321 33.27154541 1.91810608 C27.86939108 1.85199778 22.46946084 1.8396253 17.06698227 1.86336136 C15.0136725 1.86275197 12.96027019 1.84271954 10.90735245 1.80259323 C-0.34734473 1.15035915 -0.34734473 1.15035915 -10.10595703 5.61836243 C-12.28184723 8.54898163 -12.28184723 8.54898163 -13.76583862 11.66056824 C-15.16351318 14.12025452 -15.16351318 14.12025452 -17.34658813 14.96299744 C-18.24596603 15.04083969 -18.24596603 15.04083969 -19.16351318 15.12025452 C-18.50351318 14.79025452 -17.84351318 14.46025452 -17.16351318 14.12025452 C-16.44191894 12.47662318 -15.76999898 10.80975066 -15.16351318 9.12025452 C-14.50351318 9.12025452 -13.84351318 9.12025452 -13.16351318 9.12025452 C-13.08101318 8.54275452 -12.99851318 7.96525452 -12.91351318 7.37025452 C-11.93140401 4.42392701 -10.54076252 3.0899754 -8.16351318 1.12025452 C-5.39860509 0.22769591 -2.89415491 -0.00374891 0 0 Z " fill="#87BADA" transform="translate(375.16351318359375,188.87974548339844)"/>
<path d="M0 0 C1.99923308 0.00934467 3.99847774 0.01645295 5.99772644 0.0214386 C11.21754493 0.04037824 16.43664938 0.08936434 21.65618896 0.1449585 C26.99921006 0.19643465 32.3423484 0.21901279 37.68554688 0.24414062 C48.1383317 0.29749761 58.59059047 0.38264941 69.04296875 0.48828125 C69.04296875 1.47828125 69.04296875 2.46828125 69.04296875 3.48828125 C67.90593002 3.48161942 66.7688913 3.47495758 65.59739685 3.46809387 C54.87153826 3.40722661 44.1457148 3.36228158 33.41972256 3.33284473 C27.90563688 3.3172021 22.39169086 3.29598924 16.87768555 3.26196289 C11.55439446 3.22931973 6.23123755 3.21141768 0.90785408 3.20364952 C-1.12108407 3.19811494 -3.15001505 3.18730723 -5.17889595 3.17109108 C-8.02510458 3.14925111 -10.8707618 3.14631709 -13.71704102 3.14770508 C-14.55214203 3.13691925 -15.38724304 3.12613342 -16.24765015 3.11502075 C-20.18258361 3.13572654 -23.19199805 3.39815529 -26.78453064 5.07206726 C-29.95703125 6.48828125 -29.95703125 6.48828125 -32.39453125 6.17578125 C-32.91015625 5.94890625 -33.42578125 5.72203125 -33.95703125 5.48828125 C-22.6676035 -0.28017377 -12.39060249 -0.1715995 0 0 Z " fill="#A5A7A8" transform="translate(487.95703125,47.51171875)"/>
<path d="M0 0 C7.26 0 14.52 0 22 0 C22 6.6 22 13.2 22 20 C15.07 20 8.14 20 1 20 C1 39.14 1 58.28 1 78 C0.34 77.67 -0.32 77.34 -1 77 C-1.02312851 69.45501767 -1.04091769 61.91003899 -1.05181217 54.36502934 C-1.05703989 50.86191115 -1.0641355 47.35881715 -1.07543945 43.85571289 C-1.08834206 39.83219159 -1.09322912 35.80869586 -1.09765625 31.78515625 C-1.10539818 29.88987938 -1.10539818 29.88987938 -1.11329651 27.95631409 C-1.11337204 26.795186 -1.11344757 25.63405792 -1.11352539 24.43774414 C-1.11685631 22.8955294 -1.11685631 22.8955294 -1.12025452 21.32215881 C-1 19 -1 19 0 18 C1.56172745 17.91314397 3.12729344 17.89297781 4.69140625 17.90234375 C5.63564453 17.90556641 6.57988281 17.90878906 7.55273438 17.91210938 C9.04256836 17.92467773 9.04256836 17.92467773 10.5625 17.9375 C11.55958984 17.94201172 12.55667969 17.94652344 13.58398438 17.95117188 C16.05601487 17.96299977 18.52801472 17.98093585 21 18 C21 12.39 21 6.78 21 1 C14.07 1 7.14 1 0 1 C0 0.67 0 0.34 0 0 Z " fill="#4D4F50" transform="translate(356,426)"/>
<path d="M0 0 C1.09731445 0.01353516 1.09731445 0.01353516 2.21679688 0.02734375 C3.99884298 0.05063847 5.78071759 0.0864981 7.5625 0.125 C8.0575 1.61 8.0575 1.61 8.5625 3.125 C2.34925502 3.85530908 -3.27848757 4.35680249 -9.4375 3.125 C-9.7675 3.785 -10.0975 4.445 -10.4375 5.125 C-11.13875 5.24875 -11.84 5.3725 -12.5625 5.5 C-23.13605585 7.7985991 -29.59188025 17.09524932 -35.8359375 25.18359375 C-36.36445313 25.82425781 -36.89296875 26.46492188 -37.4375 27.125 C-37.7675 27.125 -38.0975 27.125 -38.4375 27.125 C-38.6875 24.875 -38.6875 24.875 -38.4375 22.125 C-37.14784824 20.74937146 -35.81060707 19.41733607 -34.4375 18.125 C-34.16035156 17.34382813 -33.88320313 16.56265625 -33.59765625 15.7578125 C-31.07740354 10.03845114 -24.37281335 5.75470776 -18.75 3.25 C-12.25573445 1.04440038 -6.81835883 -0.16219335 0 0 Z " fill="#8CBBD0" transform="translate(329.4375,128.875)"/>
<path d="M0 0 C0.33 0 0.66 0 1 0 C1 32.67 1 65.34 1 99 C-6.59 99 -14.18 99 -22 99 C-22 95.37 -22 91.74 -22 88 C-23.32 88.99 -24.64 89.98 -26 91 C-26.66 90.67 -27.32 90.34 -28 90 C-26.37660195 88.29115995 -24.70680947 86.62553283 -23 85 C-22.34 85 -21.68 85 -21 85 C-21 89.29 -21 93.58 -21 98 C-14.07 98 -7.14 98 0 98 C0 65.66 0 33.32 0 0 Z " fill="#909395" transform="translate(306,427)"/>
<path d="M0 0 C0 3.21378204 -0.3983451 3.87506559 -2 6.5 C-4.6228024 11.6327961 -4.9193273 16.34260121 -4 22 C-1.61570503 28.63455991 1.77298597 35.07752356 7.9375 38.75 C13.3226812 40.8403006 19.29442855 40.75118561 25 41 C24.505 41.99 24.505 41.99 24 43 C6.80462445 42.30836908 6.80462445 42.30836908 0.125 36.5 C-2 34 -2 34 -3 31 C-3.66 31 -4.32 31 -5 31 C-7.59316068 22.46417943 -9.45711755 15.41025684 -6 6.8671875 C-4.45041483 3.97382145 -2.47292269 2.13874395 0 0 Z " fill="#648FBB" transform="translate(620,157)"/>
<path d="M0 0 C0.66 0 1.32 0 2 0 C2.38063221 2.3260857 2.71269945 4.66055264 3 7 C2 8 2 8 0.24729919 8.12025452 C-0.51437057 8.11803391 -1.27604034 8.11581329 -2.06079102 8.11352539 C-2.92160782 8.11344986 -3.78242462 8.11337433 -4.66932678 8.11329651 C-5.60473801 8.10813522 -6.54014923 8.10297394 -7.50390625 8.09765625 C-8.45692123 8.0962413 -9.40993622 8.09482635 -10.39183044 8.09336853 C-13.44875165 8.08775152 -16.50560077 8.07519616 -19.5625 8.0625 C-21.62955624 8.05748719 -23.69661362 8.05292391 -25.76367188 8.04882812 C-30.84247588 8.03777656 -35.9212257 8.02050055 -41 8 C-41.33 6.35 -41.66 4.7 -42 3 C-41.67 3.99 -41.34 4.98 -41 6 C-27.14 6 -13.28 6 1 6 C0.505 3.03 0.505 3.03 0 0 Z " fill="#DCDEDE" transform="translate(166,465)"/>
<path d="M0 0 C1.9453125 0.8125 1.9453125 0.8125 4 2 C6.01149794 8.89656437 4.26998739 15.59108648 1.8125 22.1875 C-0.63711789 25.98863121 -3.69381331 28.93838054 -7 32 C-7.99 31.34 -8.98 30.68 -10 30 C-8.68 29.67 -7.36 29.34 -6 29 C-5.88785156 28.40574219 -5.77570312 27.81148437 -5.66015625 27.19921875 C-4.94266541 24.8089978 -4.01974431 23.7102916 -2.4375 21.8125 C1.7683923 15.49157566 0.37086915 7.25255225 0 0 Z " fill="#779BC4" transform="translate(660,165)"/>
<path d="M0 0 C24.42 0 48.84 0 74 0 C79 9 79 9 79 12 C74.21750099 9.28991723 74.74214681 8.09751385 73 2 C48.91 1.67 24.82 1.34 0 1 C0 0.67 0 0.34 0 0 Z " fill="#385473" transform="translate(525,191)"/>
<path d="M0 0 C0.66 0.33 1.32 0.66 2 1 C-0.48513721 5.78619018 -2.4624089 8.9011573 -7 12 C-7.72960937 12.52335938 -8.45921875 13.04671875 -9.2109375 13.5859375 C-12.71107881 15.36051895 -15.27930257 15.39970936 -19.1875 15.375 C-21.03408203 15.38660156 -21.03408203 15.38660156 -22.91796875 15.3984375 C-23.93503906 15.26695312 -24.95210938 15.13546875 -26 15 C-26.66 14.01 -27.32 13.02 -28 12 C-26.906875 12.061875 -25.81375 12.12375 -24.6875 12.1875 C-20.02501842 12.21243306 -15.94541021 11.02315515 -11.515625 9.65625 C-9 9 -9 9 -5 9 C-5.33 8.01 -5.66 7.02 -6 6 C-4 4 -2 2 0 0 Z " fill="#0B1A29" transform="translate(348,180)"/>
<path d="M0 0 C2.87085219 3.27868913 3.6980624 6.13678595 4.5625 10.375 C5.46177772 14.71388799 6.59810502 18.79990029 8 23 C8.41425821 24.86671908 8.79088434 26.74228475 9.125 28.625 C9.29257812 29.54539062 9.46015625 30.46578125 9.6328125 31.4140625 C10 34 10 34 10 38 C9.34 38 8.68 38 8 38 C6.176679 31.84629161 5.7638041 26.40353322 6 20 C5.34 20 4.68 20 4 20 C3.32749476 17.41806023 2.66182099 14.83467929 2 12.25 C1.71382812 11.15558594 1.71382812 11.15558594 1.421875 10.0390625 C0.53484036 6.55428354 0 3.61876278 0 0 Z " fill="#56676F" transform="translate(828,434)"/>
<path d="M0 0 C0.99 0 1.98 0 3 0 C1.95986676 2.86954406 1.21213942 3.87507345 -1.4609375 5.44921875 C-2.42257812 5.85785156 -3.38421875 6.26648438 -4.375 6.6875 C-5.33148438 7.10386719 -6.28796875 7.52023438 -7.2734375 7.94921875 C-12.19544235 9.84609454 -16.24556922 10.16151305 -21.5625 10.1875 C-22.23474609 10.19974609 -22.90699219 10.21199219 -23.59960938 10.22460938 C-27.29878237 10.23562975 -28.83971933 10.10685378 -32 8 C-30.36804688 7.96132812 -30.36804688 7.96132812 -28.703125 7.921875 C-13.96189512 7.79563753 -13.96189512 7.79563753 -1.3671875 1.3671875 C-0.91601562 0.91601562 -0.46484375 0.46484375 0 0 Z " fill="#8DC2DB" transform="translate(352,205)"/>
<path d="M0 0 C1 4 1 4 -3 16 C-11.58 16 -20.16 16 -29 16 C-29 15.67 -29 15.34 -29 15 C-23.82682579 13.93690433 -18.87630664 13.88306062 -13.625 13.9375 C-12.37783203 13.94426758 -12.37783203 13.94426758 -11.10546875 13.95117188 C-9.07028103 13.96286836 -7.03513077 13.98080065 -5 14 C-5 12.68 -5 11.36 -5 10 C-4.34 10 -3.68 10 -3 10 C-2.01 6.7 -1.02 3.4 0 0 Z " fill="#9FB8C2" transform="translate(862,509)"/>
<path d="M0 0 C0.66 0.33 1.32 0.66 2 1 C-1.50661391 5.46296316 -5.14737678 9.94702513 -10 13 C-13.25 13.1875 -13.25 13.1875 -16 13 C-16.474375 13.474375 -16.94875 13.94875 -17.4375 14.4375 C-19.88872483 16.88872483 -22.66281585 16.68517131 -26 17 C-22.48132371 14.26325177 -18.96469563 11.69441828 -14.734375 10.19921875 C-11.34652076 8.71340267 -8.58736351 6.6300579 -5.6875 4.375 C-5.13771484 3.95476562 -4.58792969 3.53453125 -4.02148438 3.1015625 C-2.67707832 2.07279961 -1.33798587 1.0370991 0 0 Z " fill="#192834" transform="translate(421,280)"/>
<path d="M0 0 C1.37797369 3.72052897 0.44967307 5.42143641 -1 9 C-1.53501199 11.13737289 -2.03331937 13.28417469 -2.5 15.4375 C-3.43356337 19.73493572 -4.54702877 23.84775895 -6 28 C-11.47368421 17.47368421 -11.47368421 17.47368421 -11 11 C-10.34 11 -9.68 11 -9 11 C-8.34 14.3 -7.68 17.6 -7 21 C-6.34 21 -5.68 21 -5 21 C-5.020625 19.783125 -5.04125 18.56625 -5.0625 17.3125 C-5.06824116 14.08022678 -4.78766315 11.15065259 -4 8 C-3.34 8 -2.68 8 -2 8 C-1.855625 7.236875 -1.71125 6.47375 -1.5625 5.6875 C-1 3 -1 3 0 0 Z " fill="#3C4E57" transform="translate(791,471)"/>
<path d="M0 0 C4.6689929 4.6689929 3.26119247 12.46125529 3.3125 18.625 C3.34150391 19.76324219 3.37050781 20.90148437 3.40039062 22.07421875 C3.45445255 29.31851668 2.82040721 35.68451781 -1 42 C-1.99 42.66 -2.98 43.32 -4 44 C-3.34 41.03 -2.68 38.06 -2 35 C-1.34 35 -0.68 35 0 35 C-0.020625 34.195625 -0.04125 33.39125 -0.0625 32.5625 C0 30 0 30 1 29 C1.10171761 26.0112974 1.14072222 23.05112466 1.125 20.0625 C1.12306641 19.20035889 1.12113281 18.33821777 1.11914062 17.44995117 C1.07926829 11.57376563 0.76478918 5.83151751 0 0 Z " fill="#5A696F" transform="translate(739,458)"/>
<path d="M0 0 C0.99 0 1.98 0 3 0 C3.73576241 3.17358853 4.46883813 6.34770669 5.1953125 9.5234375 C5.67474256 11.59476156 6.16542715 13.66361004 6.6796875 15.7265625 C6.86789062 16.49742187 7.05609375 17.26828125 7.25 18.0625 C7.42015625 18.73410156 7.5903125 19.40570313 7.765625 20.09765625 C8.03733799 22.30306005 7.65701366 23.89286332 7 26 C5.4487664 22.34448429 4.33097589 18.72787251 3.375 14.875 C3.11460937 13.84117187 2.85421875 12.80734375 2.5859375 11.7421875 C2 9 2 9 2 6 C1.34 6 0.68 6 0 6 C-0.33 7.98 -0.66 9.96 -1 12 C-2.37520651 8.17998192 -1.74051523 4.92473073 -1 1 C-0.67 0.67 -0.34 0.34 0 0 Z " fill="#627681" transform="translate(813,452)"/>
<path d="M0 0 C0 3.19957153 -0.41591328 3.94996736 -1.984375 6.59375 C-4.42289531 11.29015949 -4.47029762 15.2975869 -4.25 20.5 C-4.23195313 21.32242188 -4.21390625 22.14484375 -4.1953125 22.9921875 C-4.1487283 24.99530804 -4.07700699 26.99781821 -4 29 C-7.42513727 25.57486273 -7.88487214 21.26640649 -8.3125 16.5625 C-7.68304423 9.38670426 -5.42957898 4.69585209 0 0 Z " fill="#537CAF" transform="translate(620,157)"/>
<path d="M0 0 C0 3.95436049 -1.51442723 6.84308609 -3.03125 10.45703125 C-4.3868423 15.41478213 -4.46648424 20.25626183 -4.625 25.375 C-4.66367187 26.39722656 -4.70234375 27.41945313 -4.7421875 28.47265625 C-4.83597964 30.98159597 -4.92167879 33.49053764 -5 36 C-8.23468806 30.13156915 -7.19984304 23.51901769 -7 17 C-6.99355469 16.19304687 -6.98710937 15.38609375 -6.98046875 14.5546875 C-6.65770429 8.64929334 -3.44686858 4.55366124 0 0 Z " fill="#2E3032" transform="translate(414,451)"/>
<path d="M0 0 C0.66 0.33 1.32 0.66 2 1 C0.61019248 2.13243576 -0.78714677 3.25563119 -2.1875 4.375 C-2.96480469 5.00148437 -3.74210937 5.62796875 -4.54296875 6.2734375 C-9.51861824 9.76983984 -13.33269023 10.11587573 -19.23046875 9.78125 C-20.03291016 9.73613281 -20.83535156 9.69101563 -21.66210938 9.64453125 C-22.91217773 9.57298828 -22.91217773 9.57298828 -24.1875 9.5 C-25.4549707 9.42845703 -25.4549707 9.42845703 -26.74804688 9.35546875 C-28.83207364 9.23772712 -30.91604253 9.11896189 -33 9 C-33 8.67 -33 8.34 -33 8 C-31.35064453 7.96132812 -31.35064453 7.96132812 -29.66796875 7.921875 C-19.74362918 7.58236995 -10.93439564 6.76539138 -2.328125 1.3046875 C-1.17570312 0.65886719 -1.17570312 0.65886719 0 0 Z " fill="#2F4B5B" transform="translate(354,207)"/>
<path d="M0 0 C4.28268533 0.46463096 6.64131217 3.18237581 9.5 6.125 C9.98758789 6.62201416 10.47517578 7.11902832 10.97753906 7.63110352 C14.41587097 11.21531462 17.12308147 14.40154961 19 19 C18.75 21.4375 18.75 21.4375 18 23 C18 22.34 18 21.68 18 21 C17.34 21 16.68 21 16 21 C15.34 20.34 14.68 19.68 14 19 C14 17.68 14 16.36 14 15 C13.34 15 12.68 15 12 15 C11.5875 14.071875 11.175 13.14375 10.75 12.1875 C9.04014879 9.07312814 7.8388153 7.95780365 5 6 C5 5.34 5 4.68 5 4 C3.02 3.34 1.04 2.68 -1 2 C-0.67 1.34 -0.34 0.68 0 0 Z " fill="#4D6597" transform="translate(661,138)"/>
<path d="M0 0 C0.99 0.495 0.99 0.495 2 1 C2.33 2.32 2.66 3.64 3 5 C15.54 5 28.08 5 41 5 C40.505 3.02 40.505 3.02 40 1 C41.37562854 2.28965176 42.70766393 3.62689293 44 5 C44 5.66 44 6.32 44 7 C29.81 7 15.62 7 1 7 C0.67 4.69 0.34 2.38 0 0 Z " fill="#798489" transform="translate(416,137)"/>
<path d="M0 0 C1.61358398 -0.0309375 1.61358398 -0.0309375 3.25976562 -0.0625 C4.28650391 -0.06765625 5.31324219 -0.0728125 6.37109375 -0.078125 C7.79119751 -0.09214355 7.79119751 -0.09214355 9.23999023 -0.10644531 C10.38963257 0.06999512 10.38963257 0.06999512 11.5625 0.25 C13.5625 3.25 13.5625 3.25 13.1875 5.4375 C12.98125 6.035625 12.775 6.63375 12.5625 7.25 C12.2325 5.6 11.9025 3.95 11.5625 2.25 C4.3025 2.25 -2.9575 2.25 -10.4375 2.25 C-10.7675 3.24 -11.0975 4.23 -11.4375 5.25 C-12 3.3125 -12 3.3125 -12.4375 1.25 C-9.95085346 -1.23664654 -3.3414817 0.01595932 0 0 Z " fill="#7A8990" transform="translate(814.4375,425.75)"/>
<path d="M0 0 C0 3 0 3 -1.75 5 C-7.99928507 13.33238009 -8.7043863 22.87523093 -9 33 C-9.33 33 -9.66 33 -10 33 C-10.02718316 30.14576808 -10.04692705 27.29179985 -10.0625 24.4375 C-10.07087891 23.63763672 -10.07925781 22.83777344 -10.08789062 22.01367188 C-10.13961127 9.34211309 -10.13961127 9.34211309 -6.93359375 5.56640625 C-6.10988281 4.90511719 -5.28617187 4.24382812 -4.4375 3.5625 C-3.61121094 2.88316406 -2.78492188 2.20382813 -1.93359375 1.50390625 C-1.29550781 1.00761719 -0.65742188 0.51132813 0 0 Z " fill="#12232E" transform="translate(295,145)"/>
<path d="M0 0 C0.99 0.99 1.98 1.98 3 3 C2.67 3.99 2.34 4.98 2 6 C-6.25 6 -14.5 6 -23 6 C-23.33 5.34 -23.66 4.68 -24 4 C-16.08 4 -8.16 4 0 4 C0 2.68 0 1.36 0 0 Z " fill="#494A4C" transform="translate(211,521)"/>
<path d="M0 0 C-0.66386719 0.29132813 -1.32773437 0.58265625 -2.01171875 0.8828125 C-7.84265651 3.58972959 -11.13683804 5.92270142 -15 11 C-17.6875 12.9375 -17.6875 12.9375 -20 14 C-20.66 13.67 -21.32 13.34 -22 13 C-20.625 11.5 -20.625 11.5 -19 10 C-18.34 10 -17.68 10 -17 10 C-16.5978125 8.8553125 -16.5978125 8.8553125 -16.1875 7.6875 C-15.04865495 5.11011382 -14.18583329 3.73045136 -12 2 C-11.34 2 -10.68 2 -10 2 C-10 1.34 -10 0.68 -10 0 C-6.26432828 -0.76411467 -3.65188082 -1.07174763 0 0 Z " fill="#375261" transform="translate(378,305)"/>
<path d="M0 0 C1.11084961 0.02030273 1.11084961 0.02030273 2.24414062 0.04101562 C4.05891075 0.07614021 5.87330288 0.12994028 7.6875 0.1875 C8.0175 1.1775 8.3475 2.1675 8.6875 3.1875 C2.47425502 3.91780908 -3.15348757 4.41930249 -9.3125 3.1875 C-9.6425 3.8475 -9.9725 4.5075 -10.3125 5.1875 C-11.3025 4.5275 -12.2925 3.8675 -13.3125 3.1875 C-8.98702966 -0.06300138 -5.21560648 -0.18177717 0 0 Z " fill="#94C5DE" transform="translate(329.3125,128.8125)"/>
<path d="M0 0 C0.78515625 1.6796875 0.78515625 1.6796875 1 4 C-0.87890625 6.5078125 -0.87890625 6.5078125 -3.5625 9.125 C-4.86380859 10.42824219 -4.86380859 10.42824219 -6.19140625 11.7578125 C-9.15336357 14.12243489 -11.31075661 15.19777526 -15 16 C-17.375 15.625 -17.375 15.625 -19 15 C-9 9 -9 9 -6.3125 7.5 C-3.27105791 5.5271727 -1.84563711 3.07606186 0 0 Z " fill="#152340" transform="translate(673,200)"/>
<path d="M0 0 C2.88149054 0.41164151 4.78510441 0.85471848 7.21875 2.5 C10.68926652 4.37173925 13.39065025 4.50423599 17.3125 4.6875 C18.56675781 4.75324219 19.82101562 4.81898438 21.11328125 4.88671875 C22.54220703 4.94279297 22.54220703 4.94279297 24 5 C23.01 6.485 23.01 6.485 22 8 C16.6240796 9.01824969 11.04154932 7.91578874 6 6 C4.25 4.4375 4.25 4.4375 3 3 C2.01 2.67 1.02 2.34 0 2 C0 1.34 0 0.68 0 0 Z " fill="#88B7D3" transform="translate(312,190)"/>
<path d="M0 0 C0 0.66 0 1.32 0 2 C0.66 2.33 1.32 2.66 2 3 C0.4840625 2.7525 0.4840625 2.7525 -1.0625 2.5 C-8.51365574 1.56358905 -17.7834508 0.70382526 -25 3 C-25 2.34 -25 1.68 -25 1 C-15.98644207 -2.10302814 -9.17004575 -3.05668192 0 0 Z " fill="#7DB1C9" transform="translate(342,149)"/>
<path d="M0 0 C-6.625 4 -6.625 4 -10 4 C-10.20625 4.53625 -10.4125 5.0725 -10.625 5.625 C-12.57996944 9.0017654 -15.18223695 11.30474839 -18 14 C-18.99 13.67 -19.98 13.34 -21 13 C-7.70795537 -3.26105804 -7.70795537 -3.26105804 0 0 Z " fill="#CACBCD" transform="translate(415,429)"/>
<path d="M0 0 C0.66 0.33 1.32 0.66 2 1 C0.3253333 4.25629636 -1.09374084 6.0742115 -4 8.375 C-7.55900325 11.48912785 -8.45355022 13.61839229 -10 18 C-10.66 18 -11.32 18 -12 18 C-12.33 19.98 -12.66 21.96 -13 24 C-14.0356774 21.3394874 -14.08841771 20.23491735 -13.06640625 17.51953125 C-9.39911158 10.91840084 -5.26567946 5.41269082 0 0 Z " fill="#8F9CA2" transform="translate(659,435)"/>
<path d="M0 0 C5.28 0 10.56 0 16 0 C16 5.61 16 11.22 16 17 C14.68 17 13.36 17 12 17 C12 16.34 12 15.68 12 15 C12.66 15 13.32 15 14 15 C14 10.38 14 5.76 14 1 C9.38 1 4.76 1 0 1 C0 0.67 0 0.34 0 0 Z " fill="#CACED0" transform="translate(362,508)"/>
<path d="M0 0 C2.3836648 8.46879282 1.13740231 15.35319395 -3 23 C-4.32 22.67 -5.64 22.34 -7 22 C-6.67 20.68 -6.34 19.36 -6 18 C-6 18.99 -6 19.98 -6 21 C-5.34 21 -4.68 21 -4 21 C-3.87153687 20.15236084 -3.87153687 20.15236084 -3.74047852 19.28759766 C-3.35130182 16.73285367 -2.95696515 14.17893253 -2.5625 11.625 C-2.42779297 10.73554688 -2.29308594 9.84609375 -2.15429688 8.9296875 C-2.02216797 8.07890625 -1.89003906 7.228125 -1.75390625 6.3515625 C-1.63345947 5.56604004 -1.5130127 4.78051758 -1.38891602 3.97119141 C-1 2 -1 2 0 0 Z " fill="#7E979E" transform="translate(850,476)"/>
<path d="M0 0 C2.29199177 0.14063135 4.58359186 0.28765943 6.875 0.4375 C8.15117187 0.51871094 9.42734375 0.59992188 10.7421875 0.68359375 C14 1 14 1 16 2 C18.71760108 2.07181821 21.40859388 2.09299506 24.125 2.0625 C25.25615234 2.05573242 25.25615234 2.05573242 26.41015625 2.04882812 C28.27347127 2.03703499 30.13674555 2.01909942 32 2 C27.5777083 4.50009711 23.78712393 4.33176655 18.8125 4.3125 C17.99974609 4.32861328 17.18699219 4.34472656 16.34960938 4.36132812 C10.4065254 4.36605612 5.51264174 3.19063481 0 1 C0 0.67 0 0.34 0 0 Z " fill="#83AABC" transform="translate(310,324)"/>
<path d="M0 0 C0.84796143 -0.00386719 1.69592285 -0.00773438 2.56958008 -0.01171875 C9.97508226 0.12329753 15.5525472 1.79920303 22.0625 5.4375 C22.0625 6.0975 22.0625 6.7575 22.0625 7.4375 C18.73135052 7.02110632 16.40384827 6.08878568 13.5625 4.40625 C8.44468981 1.79813519 3.69751077 1.98541686 -1.9375 2.1875 C-2.90300781 2.20554688 -3.86851562 2.22359375 -4.86328125 2.2421875 C-7.22242033 2.28890313 -9.57941075 2.35437863 -11.9375 2.4375 C-7.89266569 -0.25905621 -4.75785463 0.01472308 0 0 Z " fill="#3B4F75" transform="translate(638.9375,130.5625)"/>
<path d="M0 0 C0.66 0.33 1.32 0.66 2 1 C2.30416035 4.04160348 2.56904321 7.07843978 2.8125 10.125 C2.90208984 10.9809375 2.99167969 11.836875 3.08398438 12.71875 C3.40479029 17.10872566 3.49061726 20.05650594 0.69921875 23.6171875 C-2 26 -2 26 -5 26 C-4.01943806 23.36002556 -3.09691409 21.13374144 -1.4375 18.84375 C0.45139643 15.1070201 0.32967634 11.76686744 0.1875 7.6875 C0.16719727 6.57665039 0.16719727 6.57665039 0.14648438 5.44335938 C0.11135979 3.62858925 0.05755972 1.81419712 0 0 Z " fill="#7B9CAA" transform="translate(350,276)"/>
<path d="M0 0 C1.13308594 0.24556641 1.13308594 0.24556641 2.2890625 0.49609375 C7.33130119 1.18077669 12.29359795 1.10511821 17.375 1.0625 C18.39722656 1.05798828 19.41945313 1.05347656 20.47265625 1.04882812 C22.98183194 1.037103 25.4908849 1.02069176 28 1 C24.53268347 4.46731653 21.06641227 4.18867435 16.375 4.25 C10.24161912 4.22455029 5.64334578 3.33517756 0 1 C0 0.67 0 0.34 0 0 Z " fill="#9FA4A7" transform="translate(622,105)"/>
<path d="M0 0 C0 4.29 0 8.58 0 13 C7.26 13 14.52 13 22 13 C22 13.33 22 13.66 22 14 C14.41 14 6.82 14 -1 14 C-1 10.37 -1 6.74 -1 3 C-2.32 3.99 -3.64 4.98 -5 6 C-5.66 5.67 -6.32 5.34 -7 5 C-2.25 0 -2.25 0 0 0 Z " fill="#676B6C" transform="translate(285,512)"/>
<path d="M0 0 C1.13583456 3.71727674 0.66670026 5.47051709 -1 9 C-1.93423645 5.98968256 -2.04449911 5.13349732 -1 2 C-8.26 2 -15.52 2 -23 2 C-23 1.67 -23 1.34 -23 1 C-15.31068715 -0.06059488 -7.75493514 -0.09928082 0 0 Z " fill="#364248" transform="translate(886,425)"/>
<path d="M0 0 C3.51291084 2.22484353 4.66488042 4.09734276 6 8 C6.33 8.33 6.66 8.66 7 9 C7.07258946 11.18639453 7.08373783 13.37500389 7.0625 15.5625 C7.05347656 16.76003906 7.04445313 17.95757812 7.03515625 19.19140625 C7.02355469 20.11824219 7.01195312 21.04507813 7 22 C6.34 22.33 5.68 22.66 5 23 C4.95101563 22.16855469 4.90203125 21.33710938 4.8515625 20.48046875 C4.77679688 19.39378906 4.70203125 18.30710938 4.625 17.1875 C4.52058594 15.56908203 4.52058594 15.56908203 4.4140625 13.91796875 C4.18804267 10.81373814 4.18804267 10.81373814 2 8 C1.18220159 5.35982365 0.6190511 2.69729409 0 0 Z " fill="#2A4456" transform="translate(345,156)"/>
<path d="M0 0 C-0.66 0.66 -1.32 1.32 -2 2 C-3.546875 1.9690625 -3.546875 1.9690625 -5.125 1.9375 C-8.28348282 2.24741376 -8.98957219 2.987708 -11.09765625 5.47265625 C-12.47327271 7.46537169 -13.81076567 9.48503901 -15.10546875 11.53125 C-17 14 -17 14 -19.23828125 14.84375 C-19.81964844 14.8953125 -20.40101563 14.946875 -21 15 C-20.34 14.67 -19.68 14.34 -19 14 C-18.27840576 12.35636866 -17.60648579 10.68949614 -17 9 C-16.34 9 -15.68 9 -15 9 C-14.9175 8.4225 -14.835 7.845 -14.75 7.25 C-13.76789083 4.30367249 -12.37724934 2.96972088 -10 1 C-6.7409774 -0.30360904 -3.47512005 -0.07898 0 0 Z " fill="#91C4DC" transform="translate(377,189)"/>
<path d="M0 0 C1.04068391 3.12205172 0.99162646 4.66950789 0.66015625 7.88671875 C0.56669922 8.82451172 0.47324219 9.76230469 0.37695312 10.72851562 C0.27318359 11.70498047 0.16941406 12.68144531 0.0625 13.6875 C-0.03740234 14.67556641 -0.13730469 15.66363281 -0.24023438 16.68164062 C-0.4877804 19.12173718 -0.74125362 21.56106991 -1 24 C-1.66 24 -2.32 24 -3 24 C-3.55353075 7.1070615 -3.55353075 7.1070615 0 0 Z " fill="#9ED2E9" transform="translate(290,157)"/>
<path d="M0 0 C1.31871094 -0.01417969 2.63742187 -0.02835938 3.99609375 -0.04296875 C7.2175867 0.16521097 8.90170999 0.46581234 11.5625 2.1875 C9.16190183 3.38779908 7.66889351 3.30209743 4.9921875 3.28515625 C4.09628906 3.28193359 3.20039063 3.27871094 2.27734375 3.27539062 C1.34019531 3.26701172 0.40304687 3.25863281 -0.5625 3.25 C-1.50738281 3.24548828 -2.45226562 3.24097656 -3.42578125 3.23632812 C-5.76308387 3.22452357 -8.10026061 3.20805759 -10.4375 3.1875 C-10.4375 2.5275 -10.4375 1.8675 -10.4375 1.1875 C-6.90252138 0.00917379 -3.67856929 0.00352691 0 0 Z " fill="#1A3143" transform="translate(328.4375,149.8125)"/>
<path d="M0 0 C0.33 0.66 0.66 1.32 1 2 C0.06421005 4.35981813 -0.93347808 6.69631264 -2 9 C-2.66 9 -3.32 9 -4 9 C-4.0825 9.70125 -4.165 10.4025 -4.25 11.125 C-5.18480138 14.70840529 -6.74402615 17.08050443 -9 20 C-9.99 20.33 -10.98 20.66 -12 21 C-10.72341628 17.53498703 -9.23378941 14.65160449 -7.125 11.625 C-4.53994938 7.84246269 -2.21717314 4.00796683 0 0 Z " fill="#46565F" transform="translate(481,210)"/>
<path d="M0 0 C0.33 0.66 0.66 1.32 1 2 C0.0625 4.625 0.0625 4.625 -1 7 C-0.38511719 6.97679687 0.22976563 6.95359375 0.86328125 6.9296875 C1.67152344 6.91164062 2.47976563 6.89359375 3.3125 6.875 C4.11300781 6.85179687 4.91351563 6.82859375 5.73828125 6.8046875 C8 7 8 7 11 9 C4.07 9 -2.86 9 -10 9 C-10 8.67 -10 8.34 -10 8 C-7.69 8 -5.38 8 -3 8 C-2.814375 6.8553125 -2.814375 6.8553125 -2.625 5.6875 C-2 3 -2 3 0 0 Z " fill="#7FA4BE" transform="translate(477,149)"/>
<path d="M0 0 C-1.09166436 1.6748823 -2.19873637 3.33973123 -3.3125 5 C-3.92738281 5.928125 -4.54226563 6.85625 -5.17578125 7.8125 C-5.77777344 8.534375 -6.37976563 9.25625 -7 10 C-7.99 10 -8.98 10 -10 10 C-7.72663449 2.74934182 -7.72663449 2.74934182 -5 -0.0625 C-3 -1 -3 -1 0 0 Z " fill="#5678AC" transform="translate(610,146)"/>
<path d="M0 0 C1.32 0.33 2.64 0.66 4 1 C2.35767739 3.00297785 0.71138756 5.00243908 -0.9375 7 C-1.40607422 7.57234375 -1.87464844 8.1446875 -2.35742188 8.734375 C-3.54934328 10.17497065 -4.77232588 11.58974871 -6 13 C-6.33 13 -6.66 13 -7 13 C-7.3077917 9.86162389 -7.27813784 8.40656372 -5.46875 5.76171875 C-4.8190625 5.07722656 -4.169375 4.39273438 -3.5 3.6875 C-2.8503125 2.99011719 -2.200625 2.29273438 -1.53125 1.57421875 C-1.0259375 1.05472656 -0.520625 0.53523437 0 0 Z " fill="#9DCFE5" transform="translate(298,143)"/>
<path d="M0 0 C0.93130333 3.10195648 1.02404919 5.7130692 0.875 8.9375 C0.80581272 13.20824208 1.46491919 15.47293105 4 19 C3.67 19.66 3.34 20.32 3 21 C2.34 19.68 1.68 18.36 1 17 C0.34 17 -0.32 17 -1 17 C-2.35550385 14.2889923 -2.16917207 12.08660831 -2.1875 9.0625 C-2.20167969 8.00160156 -2.21585937 6.94070313 -2.23046875 5.84765625 C-2 3 -2 3 0 0 Z " fill="#7799AB" transform="translate(307,277)"/>
<path d="M0 0 C0.78052734 -0.01224609 1.56105469 -0.02449219 2.36523438 -0.03710938 C4.39070035 -0.04235217 6.41572552 0.06515672 8.4375 0.1875 C9.0975 0.8475 9.7575 1.5075 10.4375 2.1875 C7.4375 3.1875 7.4375 3.1875 4.7109375 2.72265625 C1.01553627 2.11851548 -2.211303 2.30862478 -5.9375 2.625 C-7.80535156 2.77775391 -7.80535156 2.77775391 -9.7109375 2.93359375 C-10.65195312 3.01738281 -11.59296875 3.10117188 -12.5625 3.1875 C-10.33162353 -1.27425294 -4.36882471 0.00362558 0 0 Z " fill="#5876A9" transform="translate(639.5625,131.8125)"/>
<path d="M0 0 C10.28905216 -0.47548893 19.40436941 -0.31724595 29 4 C29.33 4.66 29.66 5.32 30 6 C27.54093963 5.52434234 25.08279007 5.04463948 22.625 4.5625 C21.92632813 4.42779297 21.22765625 4.29308594 20.5078125 4.15429688 C15.2265625 3.11328125 15.2265625 3.11328125 13 2 C10.795636 1.77049681 8.58607827 1.58924067 6.375 1.4375 C5.18648437 1.35371094 3.99796875 1.26992188 2.7734375 1.18359375 C1.40058594 1.09271484 1.40058594 1.09271484 0 1 C0 0.67 0 0.34 0 0 Z " fill="#A1A2A2" transform="translate(631,21)"/>
<path d="M0 0 C6.93 0 13.86 0 21 0 C26 9 26 9 26 12 C21.21750099 9.28991723 21.74214681 8.09751385 20 2 C13.4 1.67 6.8 1.34 0 1 C0 0.67 0 0.34 0 0 Z " fill="#28405F" transform="translate(578,191)"/>
<path d="M0 0 C0 0.66 0 1.32 0 2 C-0.99 2.33 -1.98 2.66 -3 3 C-3.39058594 3.68320313 -3.78117188 4.36640625 -4.18359375 5.0703125 C-6 7 -6 7 -9.72265625 7.2421875 C-11.17092974 7.14129952 -12.61778326 7.01806656 -14.0625 6.875 C-14.79533203 6.82601562 -15.52816406 6.77703125 -16.28320312 6.7265625 C-21.71213942 6.28786058 -21.71213942 6.28786058 -24 4 C-22.99839844 4.04640625 -21.99679687 4.0928125 -20.96484375 4.140625 C-13.24354344 4.38879234 -6.34454374 0 0 0 Z " fill="#779FCC" transform="translate(654,192)"/>
<path d="M0 0 C0.99 0.33 1.98 0.66 3 1 C3.33 1.99 3.66 2.98 4 4 C4.66 4 5.32 4 6 4 C6.268125 5.134375 6.53625 6.26875 6.8125 7.4375 C7.4003125 9.2009375 7.4003125 9.2009375 8 11 C8.99 11.33 9.98 11.66 11 12 C10.67 12.99 10.34 13.98 10 15 C5.38496316 11.83540331 2.41530347 8.00533102 0 3 C0 2.01 0 1.02 0 0 Z " fill="#5677A7" transform="translate(600,192)"/>
<path d="M0 0 C-0.33 0.33 -0.66 0.66 -1 1 C-0.34 1.66 0.32 2.32 1 3 C-1.29109597 3.08075665 -3.58299267 3.13907731 -5.875 3.1875 C-7.78925781 3.23970703 -7.78925781 3.23970703 -9.7421875 3.29296875 C-10.81726563 3.19628906 -11.89234375 3.09960938 -13 3 C-13.66 2.01 -14.32 1.02 -15 0 C-13.14375 0.0309375 -13.14375 0.0309375 -11.25 0.0625 C-7.17095853 0.07688815 -3.86618566 -1.28872855 0 0 Z " fill="#182A3C" transform="translate(335,192)"/>
<path d="M0 0 C0.99 0 1.98 0 3 0 C1.59928507 5.29158974 -1.85487245 7.77478044 -6 11 C-6.66 10.67 -7.32 10.34 -8 10 C-6.74054645 8.32471737 -5.46706318 6.65997386 -4.1875 5 C-3.47980469 4.071875 -2.77210938 3.14375 -2.04296875 2.1875 C-1.36878906 1.465625 -0.69460938 0.74375 0 0 Z " fill="#89B8D1" transform="translate(349,183)"/>
<path d="M0 0 C1.8253125 0.7115625 1.8253125 0.7115625 3.6875 1.4375 C9.67570019 3.46545278 15.72374026 3.71868388 22 4 C21.67 4.66 21.34 5.32 21 6 C6.21867882 5.40546697 6.21867882 5.40546697 0 2 C0 1.34 0 0.68 0 0 Z " fill="#547DB1" transform="translate(623,194)"/>
<path d="M0 0 C0.99 0 1.98 0 3 0 C2.43040847 3.62613199 1.07625466 5.25517741 -1.5625 7.75 C-2.52349609 8.67039063 -2.52349609 8.67039063 -3.50390625 9.609375 C-4.24447266 10.29773438 -4.24447266 10.29773438 -5 11 C-5.99 10.34 -6.98 9.68 -8 9 C-6.68 8.67 -5.36 8.34 -4 8 C-3.896875 7.4225 -3.79375 6.845 -3.6875 6.25 C-2.88350079 3.61872985 -1.86932485 2.01311907 0 0 Z " fill="#5780B1" transform="translate(658,186)"/>
<path d="M0 0 C0.99 0 1.98 0 3 0 C3.8680908 1.91040052 4.71901783 3.82860737 5.5625 5.75 C6.03816406 6.81734375 6.51382813 7.8846875 7.00390625 8.984375 C7.9946154 11.98369837 8.16161779 13.13421241 7 16 C6.66226563 15.14535156 6.32453125 14.29070312 5.9765625 13.41015625 C5.53054687 12.30542969 5.08453125 11.20070313 4.625 10.0625 C4.18414062 8.96035156 3.74328125 7.85820312 3.2890625 6.72265625 C2.28958568 3.88769814 2.28958568 3.88769814 0 3 C-0.33 4.65 -0.66 6.3 -1 8 C-1.93065133 5.39417629 -2.14917407 4.35801776 -1.0625 1.75 C-0.711875 1.1725 -0.36125 0.595 0 0 Z " fill="#818384" transform="translate(145,411)"/>
<path d="M0 0 C1 2 1 2 0.3125 4.9375 C-1.06192878 8.14450048 -2.06205603 9.23723362 -5 11 C-5.99 10.34 -6.98 9.68 -8 9 C-5.36 6.03 -2.72 3.06 0 0 Z " fill="#0D1E2A" transform="translate(364,197)"/>
<path d="M0 0 C1.17369141 0.03867188 1.17369141 0.03867188 2.37109375 0.078125 C3.54865234 0.10132812 3.54865234 0.10132812 4.75 0.125 C6.80859375 0.328125 6.80859375 0.328125 8.80859375 1.328125 C8.80859375 1.988125 8.80859375 2.648125 8.80859375 3.328125 C4.18859375 3.328125 -0.43140625 3.328125 -5.19140625 3.328125 C-2.19140625 0.328125 -2.19140625 0.328125 0 0 Z " fill="#0D172B" transform="translate(636.19140625,127.671875)"/>
<path d="M0 0 C1.378044 3.7207188 0.50727907 5.43012852 -1 9 C-1.74833135 11.98328068 -2.38297418 14.98707604 -3 18 C-3.66 18 -4.32 18 -5 18 C-4.67 14.7 -4.34 11.4 -4 8 C-3.34 8 -2.68 8 -2 8 C-1.855625 7.236875 -1.71125 6.47375 -1.5625 5.6875 C-1 3 -1 3 0 0 Z " fill="#4F5F68" transform="translate(791,471)"/>
<path d="M0 0 C0 3.40682167 -0.88768671 5.79392053 -2 9 C-2.34976758 10.32911682 -2.69096017 11.66082739 -3 13 C-3.66 13 -4.32 13 -5 13 C-5 16.3 -5 19.6 -5 23 C-5.33 23 -5.66 23 -6 23 C-6.47975654 15.12399677 -6.20510753 8.84481006 -2 2 C-1.34 1.34 -0.68 0.68 0 0 Z " fill="#676D71" transform="translate(453,96)"/>
<path d="M0 0 C0.33 0.66 0.66 1.32 1 2 C-0.28062485 3.7074998 -1.61767557 5.37373596 -3 7 C-3.66 7 -4.32 7 -5 7 C-5.226875 7.639375 -5.45375 8.27875 -5.6875 8.9375 C-7 11 -7 11 -9.625 11.75 C-10.40875 11.8325 -11.1925 11.915 -12 12 C-8.39424999 7.41086363 -4.52615993 3.67832017 0 0 Z " fill="#2F3F4A" transform="translate(444,261)"/>
<path d="M0 0 C0.66 0.33 1.32 0.66 2 1 C-1.35033994 5.42723493 -3.69266121 8.5119091 -9.25 9.6875 C-10.1575 9.790625 -11.065 9.89375 -12 10 C-8.40945767 6.11024581 -4.26101118 3.10267805 0 0 Z " fill="#90A7B6" transform="translate(404,247)"/>
<path d="M0 0 C1.17747733 3.62163482 1.00572441 6.84880295 0.75 10.625 C0.68296875 11.77226562 0.6159375 12.91953125 0.546875 14.1015625 C0.36640625 15.05804688 0.1859375 16.01453125 0 17 C-0.99 17.66 -1.98 18.32 -3 19 C-2.69277348 16.02020106 -2.37948528 13.04126241 -2.0625 10.0625 C-1.97548828 9.21236328 -1.88847656 8.36222656 -1.79882812 7.48632812 C-1.71181641 6.67744141 -1.62480469 5.86855469 -1.53515625 5.03515625 C-1.456604 4.2862915 -1.37805176 3.53742676 -1.29711914 2.76586914 C-1 1 -1 1 0 0 Z " fill="#89A1AB" transform="translate(857,447)"/>
<path d="M0 0 C0.33 0 0.66 0 1 0 C1 2.64 1 5.28 1 8 C0.34 8 -0.32 8 -1 8 C-1.33 11.63 -1.66 15.26 -2 19 C-2.66 19 -3.32 19 -4 19 C-3.44940317 13.76933014 -2.55305216 9.04741951 -1 4 C-0.65864073 2.66869885 -0.32074044 1.33641852 0 0 Z " fill="#7F939B" transform="translate(797,446)"/>
<path d="M0 0 C0.33 0 0.66 0 1 0 C1.75 2.625 1.75 2.625 2 6 C0.1875 9.1875 0.1875 9.1875 -2 12 C-2.66 12.99 -3.32 13.98 -4 15 C-2.46511628 2.46511628 -2.46511628 2.46511628 0 0 Z " fill="#28383F" transform="translate(878,455)"/>
<path d="M0 0 C0.33 0.99 0.66 1.98 1 3 C0.09972412 4.03531726 -0.82093035 5.05294165 -1.75 6.0625 C-2.51570313 6.91521484 -2.51570313 6.91521484 -3.296875 7.78515625 C-5 9 -5 9 -7.203125 8.68359375 C-7.79609375 8.45800781 -8.3890625 8.23242188 -9 8 C-7.71034824 6.62437146 -6.37310707 5.29233607 -5 4 C-4.34 4 -3.68 4 -3 4 C-3 3.34 -3 2.68 -3 2 C-2.01 1.34 -1.02 0.68 0 0 Z " fill="#9CB9C8" transform="translate(451,270)"/>
<path d="M0 0 C1.9375 0.625 1.9375 0.625 4 2 C4.75 5.125 4.75 5.125 5 8 C5.66 8 6.32 8 7 8 C7 10.64 7 13.28 7 16 C4.6849061 13.6849061 4.35239006 12.24734186 3.5 9.125 C2.60544597 5.86765652 1.60597991 2.97660069 0 0 Z " fill="#051024" transform="translate(676,151)"/>
<path d="M0 0 C0.99 0 1.98 0 3 0 C1.50079488 3.11373372 -0.08152136 6.12228205 -2 9 C-2.66 9 -3.32 9 -4 9 C-4.33 9.66 -4.66 10.32 -5 11 C-4.55074862 6.17054764 -3.45263456 3.45263456 0 0 Z " fill="#92C6DD" transform="translate(312,152)"/>
<path d="M0 0 C2.94897721 2.74559948 5.26205705 5.34117274 7 9 C6.6875 11.3125 6.6875 11.3125 6 13 C6 12.34 6 11.68 6 11 C5.34 11 4.68 11 4 11 C1.6870518 8.6870518 1.50419025 7.52095125 0.875 4.375 C0.70742188 3.55773437 0.53984375 2.74046875 0.3671875 1.8984375 C0.24601563 1.27195313 0.12484375 0.64546875 0 0 Z " fill="#384F78" transform="translate(673,148)"/>
<path d="M0 0 C10.52971846 2.15641293 10.52971846 2.15641293 14 4 C14.33 4.99 14.66 5.98 15 7 C11.00465792 6.42923685 8.411827 5.09958585 5 3 C4.2575 2.814375 3.515 2.62875 2.75 2.4375 C2.1725 2.293125 1.595 2.14875 1 2 C0.67 1.34 0.34 0.68 0 0 Z " fill="#91C1D9" transform="translate(339,131)"/>
<path d="M0 0 C0.66 0 1.32 0 2 0 C1.52797514 4.24822374 -0.96655518 6.19989709 -4 9 C-4.99 8.67 -5.98 8.34 -7 8 C-5.88200014 6.66079162 -4.75538103 5.32877444 -3.625 4 C-2.68527344 2.88625 -2.68527344 2.88625 -1.7265625 1.75 C-1.15679687 1.1725 -0.58703125 0.595 0 0 Z " fill="#BFC2C4" transform="translate(434,65)"/>
<path d="M0 0 C2.77982621 1.3899131 2.87463341 3.18658353 4 6 C4.66 6.33 5.32 6.66 6 7 C6 8.32 6 9.64 6 11 C6.66 11 7.32 11 8 11 C8 11.66 8 12.32 8 13 C6.140625 12.7734375 6.140625 12.7734375 4 12 C2.734375 10.0390625 2.734375 10.0390625 1.75 7.625 C1.41484375 6.83351562 1.0796875 6.04203125 0.734375 5.2265625 C0 3 0 3 0 0 Z " fill="#95C5DB" transform="translate(289,185)"/>
<path d="M0 0 C0 3.71253164 -0.783548 5.04473066 -3 8 C-6.25171122 9.96457553 -8.18692647 11 -12 11 C-8.04 7.37 -4.08 3.74 0 0 Z " fill="#94A9B6" transform="translate(418,235)"/>
<path d="M0 0 C0.99 0.433125 1.98 0.86625 3 1.3125 C6.95307347 3.01013892 10.96344423 4.51284787 15 6 C11.57056481 7.18771723 9.62215325 6.80226223 6.25 5.5625 C5.45078125 5.27503906 4.6515625 4.98757812 3.828125 4.69140625 C2.92320312 4.34916016 2.92320312 4.34916016 2 4 C2 3.34 2 2.68 2 2 C1.34 2 0.68 2 0 2 C0 1.34 0 0.68 0 0 Z " fill="#253E4D" transform="translate(304,208)"/>
<path d="M0 0 C0 0.66 0 1.32 0 2 C-3.65079826 3.61064629 -7.0507432 4.44894091 -11 5 C-4.83050847 -1.61016949 -4.83050847 -1.61016949 0 0 Z " fill="#172935" transform="translate(362,318)"/>
<path d="M0 0 C1.32 0.33 2.64 0.66 4 1 C1.69 3.64 -0.62 6.28 -3 9 C-3.33 7.68 -3.66 6.36 -4 5 C-2.0625 2.25 -2.0625 2.25 0 0 Z " fill="#13222A" transform="translate(298,250)"/>
<path d="M0 0 C1 2 1 2 0.4375 4.375 C-1.41741462 7.76223539 -3.71164126 9.06987639 -7 11 C-5.22054913 6.95579349 -2.60470327 3.53921513 0 0 Z " fill="#ADB3B9" transform="translate(506,105)"/>
<path d="M0 0 C-2.48952921 2.66735273 -4.63408134 4.55746343 -8 6 C-8.33 4.68 -8.66 3.36 -9 2 C-5.5647952 -0.29013653 -4.014669 -0.17842973 0 0 Z " fill="#121C27" transform="translate(399,251)"/>
<path d="M0 0 C1.98 0 3.96 0 6 0 C5.278125 0.556875 4.55625 1.11375 3.8125 1.6875 C1.02542701 3.97909334 -1.48641528 6.41459857 -4 9 C-3.67 7.35 -3.34 5.7 -3 4 C-2.01 3.67 -1.02 3.34 0 3 C0 2.01 0 1.02 0 0 Z " fill="#06101C" transform="translate(368,193)"/>
<path d="M0 0 C0 3.44360632 -0.79591532 4.74795392 -2.5 7.6875 C-2.9640625 8.49574219 -3.428125 9.30398437 -3.90625 10.13671875 C-4.44765625 11.05904297 -4.44765625 11.05904297 -5 12 C-5.66 12 -6.32 12 -7 12 C-6.60304363 10.37007308 -6.18167507 8.74607765 -5.75 7.125 C-5.51796875 6.22007812 -5.2859375 5.31515625 -5.046875 4.3828125 C-4 2 -4 2 -1.890625 0.6796875 C-1.26671875 0.45539063 -0.6428125 0.23109375 0 0 Z " fill="#828B91" transform="translate(523,141)"/>
<path d="M0 0 C0.33 0.66 0.66 1.32 1 2 C-0.87577357 6.06417607 -2.93582393 8.12422643 -7 10 C-7.66 9.67 -8.32 9.34 -9 9 C-8.2575 8.443125 -7.515 7.88625 -6.75 7.3125 C-4.08292005 5.06972822 -2.08443768 2.77925025 0 0 Z " fill="#585D60" transform="translate(473,508)"/>
<path d="M0 0 C-7.28571429 4.42857143 -7.28571429 4.42857143 -12 5 C-9.14301973 0.7145296 -5.15801183 -2.18223577 0 0 Z " fill="#A6A7A9" transform="translate(415,429)"/>
<path d="M0 0 C0 0.99 0 1.98 0 3 C-1.45264038 3.8638129 -2.9123163 4.71580454 -4.375 5.5625 C-5.59316406 6.27599609 -5.59316406 6.27599609 -6.8359375 7.00390625 C-7.55007813 7.33261719 -8.26421875 7.66132813 -9 8 C-9.66 7.67 -10.32 7.34 -11 7 C-9.54261898 6.01941648 -8.08406325 5.04057868 -6.625 4.0625 C-5.81289063 3.51722656 -5.00078125 2.97195313 -4.1640625 2.41015625 C-2 1 -2 1 0 0 Z " fill="#698191" transform="translate(426,290)"/>
<path d="M0 0 C0.66 0 1.32 0 2 0 C1.5359375 1.423125 1.5359375 1.423125 1.0625 2.875 C-0.27928271 7.50938425 -0.63342007 12.20552041 -1 17 C-1.33 17 -1.66 17 -2 17 C-2.05441656 15.10448978 -2.09298035 13.2085208 -2.125 11.3125 C-2.14820313 10.25675781 -2.17140625 9.20101562 -2.1953125 8.11328125 C-1.99858729 4.97748141 -1.33057654 2.82354627 0 0 Z " fill="#375A6D" transform="translate(308,161)"/>
<path d="M0 0 C-1.49097658 3.7952131 -3.75700849 5.61042731 -7 8 C-7 5 -7 5 -4.625 2.3125 C-2 0 -2 0 0 0 Z " fill="#1D3845" transform="translate(318,153)"/>
<path d="M0 0 C1.32 0 2.64 0 4 0 C4 0.66 4 1.32 4 2 C5.98 2.66 7.96 3.32 10 4 C9.67 5.32 9.34 6.64 9 8 C8.401875 7.360625 7.80375 6.72125 7.1875 6.0625 C5.09189663 3.79689611 5.09189663 3.79689611 2 3 C2 2.34 2 1.68 2 1 C1.34 0.67 0.68 0.34 0 0 Z " fill="#101D36" transform="translate(659,135)"/>
<path d="M0 0 C4.05606165 0.46800711 7.46588679 0.87953208 11 3 C11 3.66 11 4.32 11 5 C6.87248551 4.39301257 3.6678852 2.96189209 0 1 C0 0.67 0 0.34 0 0 Z " fill="#486390" transform="translate(650,133)"/>
<path d="M0 0 C0.33 0.66 0.66 1.32 1 2 C-0.4726862 5.27263601 -1.42695432 6.72014048 -4.6875 8.3125 C-5.450625 8.539375 -6.21375 8.76625 -7 9 C-6.34 7.35 -5.68 5.7 -5 4 C-4.01 4 -3.02 4 -2 4 C-1.34 2.68 -0.68 1.36 0 0 Z " fill="#6A7A83" transform="translate(713,496)"/>
<path d="M0 0 C0 5.53491888 -2.47612355 8.88881081 -6 13 C-5.42685824 8.2715805 -3.42313355 3.42313355 0 0 Z " fill="#616264" transform="translate(414,451)"/>
<path d="M0 0 C0.66 0.33 1.32 0.66 2 1 C-1.0657052 5.65987191 -3.58657319 6.85485202 -9 8 C-6.14723863 5.06799526 -3.34920216 2.35684596 0 0 Z " fill="#425967" transform="translate(421,280)"/>
<path d="M0 0 C-4.55426184 2.66590937 -7.73946963 3.31563182 -13 3 C-4.20833333 -1.55864198 -4.20833333 -1.55864198 0 0 Z " fill="#050D1B" transform="translate(662,216)"/>
<path d="M0 0 C0.99 0.495 0.99 0.495 2 1 C2 1.99 2 2.98 2 4 C2.66 4 3.32 4 4 4 C4 4.66 4 5.32 4 6 C4.66 6 5.32 6 6 6 C6 7.65 6 9.3 6 11 C1.9957657 7.50912907 0.37328935 5.35048061 0 0 Z " fill="#1A3243" transform="translate(307,177)"/>
<path d="M0 0 C0.99 0.495 0.99 0.495 2 1 C2 1.66 2 2.32 2 3 C2.66 3 3.32 3 4 3 C4 3.66 4 4.32 4 5 C4.66 5.33 5.32 5.66 6 6 C5.67 7.32 5.34 8.64 5 10 C0 4.5 0 4.5 0 0 Z " fill="#6A7377" transform="translate(450,128)"/>
<path d="M0 0 C-0.3125 1.875 -0.3125 1.875 -1 4 C-4 6 -4 6 -6.1875 5.625 C-6.785625 5.41875 -7.38375 5.2125 -8 5 C-2.25 0 -2.25 0 0 0 Z " fill="#95B6C6" transform="translate(436,284)"/>
<path d="M0 0 C0.53625 0.268125 1.0725 0.53625 1.625 0.8125 C1.00625 0.895 0.3875 0.9775 -0.25 1.0625 C-2.55937567 1.62508459 -2.55937567 1.62508459 -3.625 3.875 C-3.8725 4.514375 -4.12 5.15375 -4.375 5.8125 C-5.695 5.4825 -7.015 5.1525 -8.375 4.8125 C-2.95961538 -0.23365385 -2.95961538 -0.23365385 0 0 Z " fill="#425965" transform="translate(321.375,263.1875)"/>
<path d="M0 0 C0.33 0.66 0.66 1.32 1 2 C1.66 2 2.32 2 3 2 C3 4.64 3 7.28 3 10 C2.01 9.67 1.02 9.34 0 9 C0 6.03 0 3.06 0 0 Z " fill="#465F90" transform="translate(678,159)"/>
<path d="M0 0 C7.625 0.875 7.625 0.875 11 2 C11 2.66 11 3.32 11 4 C11.66 4.33 12.32 4.66 13 5 C8.15340923 4.40895235 4.39251833 3.02055843 0 1 C0 0.67 0 0.34 0 0 Z " fill="#98D0EA" transform="translate(331,147)"/>
<path d="M0 0 C0.99 0.33 1.98 0.66 3 1 C0.03 4.96 0.03 4.96 -3 9 C-3.33 7.68 -3.66 6.36 -4 5 C-2.0625 2.25 -2.0625 2.25 0 0 Z " fill="#091629" transform="translate(604,143)"/>
<path d="M0 0 C-6.2 4.13333333 -6.2 4.13333333 -9.25 3.625 C-9.8275 3.41875 -10.405 3.2125 -11 3 C-8.21756596 -1.17365106 -4.53441502 -0.22300402 0 0 Z " fill="#16253E" transform="translate(630,131)"/>
<path d="M0 0 C1.18771723 3.42943519 0.80226223 5.37784675 -0.4375 8.75 C-0.86869141 9.94882812 -0.86869141 9.94882812 -1.30859375 11.171875 C-1.65083984 12.07679688 -1.65083984 12.07679688 -2 13 C-3.47717605 8.2771977 -2.18614967 4.37229933 0 0 Z " fill="#879FA7" transform="translate(880,443)"/>
<path d="M0 0 C0.99 0.33 1.98 0.66 3 1 C0.45394698 3.00047023 -1.9664636 4.82572785 -5 6 C-5.99 5.67 -6.98 5.34 -8 5 C-7.34 5 -6.68 5 -6 5 C-5.67 4.01 -5.34 3.02 -5 2 C-3.35 2 -1.7 2 0 2 C0 1.34 0 0.68 0 0 Z " fill="#91BED2" transform="translate(350,320)"/>
<path d="M0 0 C3 3 3 3 3.07421875 5.48046875 C2.94660156 6.37378906 2.81898438 7.26710937 2.6875 8.1875 C2.56761719 9.08855469 2.44773437 9.98960937 2.32421875 10.91796875 C2.21722656 11.60503906 2.11023438 12.29210937 2 13 C1.67 13 1.34 13 1 13 C0.67 8.71 0.34 4.42 0 0 Z " fill="#4E74AA" transform="translate(662,166)"/>
<path d="M0 0 C0.33 1.32 0.66 2.64 1 4 C0.01 4.33 -0.98 4.66 -2 5 C-2.33 6.65 -2.66 8.3 -3 10 C-3.66 10 -4.32 10 -5 10 C-3.84414715 6.08788267 -2.64465038 3.1254959 0 0 Z " fill="#8C979D" transform="translate(483,139)"/>
<path d="M0 0 C0 3.94042779 -1.46184088 5.08858219 -4 8 C-4.66 8.66 -5.32 9.32 -6 10 C-6.375 7.8125 -6.375 7.8125 -6 5 C-4.16038352 3.00977164 -2.20813852 1.61010101 0 0 Z " fill="#2D4857" transform="translate(295,145)"/>
<path d="M0 0 C1.37562854 1.28965176 2.70766393 2.62689293 4 4 C4 4.66 4 5.32 4 6 C1.36 6 -1.28 6 -4 6 C-1 4 -1 4 1 4 C0.67 2.68 0.34 1.36 0 0 Z " fill="#9AA5AA" transform="translate(456,138)"/>
<path d="M0 0 C0.66 0.33 1.32 0.66 2 1 C-0.20927127 4.48832306 -2.08597051 5.73058503 -6 7 C-4.60667426 3.63279613 -3.0210714 2.0140476 0 0 Z " fill="#435F87" transform="translate(611,140)"/>
<path d="M0 0 C0.33 1.32 0.66 2.64 1 4 C-2.465 5.485 -2.465 5.485 -6 7 C-4.77065985 3.31197956 -3.06140622 2.27643027 0 0 Z " fill="#779FB1" transform="translate(302,138)"/>
<path d="M0 0 C0.66 0.33 1.32 0.66 2 1 C-0.46153846 5.8 -0.46153846 5.8 -3.1875 6.8125 C-3.785625 6.874375 -4.38375 6.93625 -5 7 C-4.67 6.01 -4.34 5.02 -4 4 C-3.34 4 -2.68 4 -2 4 C-1.34 2.68 -0.68 1.36 0 0 Z " fill="#505457" transform="translate(459,89)"/>
<path d="M0 0 C0.66 0.33 1.32 0.66 2 1 C1.01 2.485 1.01 2.485 0 4 C-3.625 4.6875 -3.625 4.6875 -7 5 C-4.63707344 2.47411298 -3.33537489 1.11179163 0 0 Z " fill="#474B4D" transform="translate(552,51)"/>
<path d="M0 0 C0.66 0.33 1.32 0.66 2 1 C-2 7.57142857 -2 7.57142857 -6 9 C-4.47291037 5.56404834 -2.40072955 2.88087546 0 0 Z " fill="#A9AAAC" transform="translate(608,32)"/>
<path d="M0 0 C2.63526912 5.17333569 2.63526912 5.17333569 3 8 C2.34 8.99 1.68 9.98 1 11 C0 10 0 10 -0.09765625 7.71484375 C-0.08605469 6.79832031 -0.07445312 5.88179688 -0.0625 4.9375 C-0.05347656 4.01839844 -0.04445313 3.09929687 -0.03515625 2.15234375 C-0.02355469 1.44207031 -0.01195312 0.73179687 0 0 Z " fill="#AED1E0" transform="translate(352,282)"/>
<path d="M0 0 C0.66 0 1.32 0 2 0 C0.52307692 4.67692308 0.52307692 4.67692308 -2.125 6.3125 C-3.053125 6.6528125 -3.053125 6.6528125 -4 7 C-2.92598892 4.08482708 -2.22189824 2.22189824 0 0 Z " fill="#34434C" transform="translate(473,224)"/>
<path d="M0 0 C0.75 1.75 0.75 1.75 1 4 C-0.9375 6.25 -0.9375 6.25 -3 8 C-3.99 7.67 -4.98 7.34 -6 7 C-5.071875 6.1028125 -5.071875 6.1028125 -4.125 5.1875 C-1.86323046 2.99188856 -1.86323046 2.99188856 0 0 Z " fill="#121C36" transform="translate(673,200)"/>
<path d="M0 0 C0 3.19219704 -0.23605791 4.39608549 -2 7 C-4.625 8.25 -4.625 8.25 -7 9 C-6.02180976 7.68677212 -5.0424189 6.37443848 -4.0625 5.0625 C-3.51722656 4.33160156 -2.97195313 3.60070312 -2.41015625 2.84765625 C-1 1 -1 1 0 0 Z " fill="#B1B5B8" transform="translate(658,75)"/>
<path d="M0 0 C4.95 0.99 4.95 0.99 10 2 C9.67 2.66 9.34 3.32 9 4 C4.545 3.01 4.545 3.01 0 2 C0 1.34 0 0.68 0 0 Z " fill="#A3D0E3" transform="translate(310,322)"/>
<path d="M0 0 C1.98 0.99 1.98 0.99 4 2 C4 3.98 4 5.96 4 8 C1.10067643 5.60490662 0.49831724 3.68754757 0 0 Z " fill="#92B4C3" transform="translate(287,296)"/>
<path d="M0 0 C0.33 0.66 0.66 1.32 1 2 C3.02463255 2.65213292 3.02463255 2.65213292 5 3 C5 3.99 5 4.98 5 6 C3.125 5.75 3.125 5.75 1 5 C-0.25 2.9375 -0.25 2.9375 -1 1 C-0.67 0.67 -0.34 0.34 0 0 Z " fill="#95C8E3" transform="translate(303,203)"/>
<path d="M0 0 C0.33 0.66 0.66 1.32 1 2 C-0.4375 4.625 -0.4375 4.625 -2 7 C-2.99 6.67 -3.98 6.34 -5 6 C-3.35 4.02 -1.7 2.04 0 0 Z " fill="#284255" transform="translate(364,197)"/>
<path d="M0 0 C2.64 0 5.28 0 8 0 C7.67 0.99 7.34 1.98 7 3 C2.25 2.25 2.25 2.25 0 0 Z " fill="#678ABB" transform="translate(644,151)"/>
</svg>
