<?xml version="1.0" encoding="UTF-8"?>
<svg version="1.1" xmlns="http://www.w3.org/2000/svg" width="814" height="387">
<path d="M0 0 C268.62 0 537.24 0 814 0 C814 127.71 814 255.42 814 387 C545.38 387 276.76 387 0 387 C0 259.29 0 131.58 0 0 Z " fill="#090A0C" transform="translate(0,0)"/>
<path d="M0 0 C2.8125 2.3125 2.8125 2.3125 5 5 C6.30197193 6.09596371 7.61561691 7.17813599 8.9375 8.25 C16.13459287 14.52194672 20.34138256 21.66417335 21.203125 31.26245117 C21.88585909 47.50640204 19.59092381 58.3076757 8.5625 70.75 C7.716875 71.4925 6.87125 72.235 6 73 C5.46246094 73.47953125 4.92492187 73.9590625 4.37109375 74.453125 C-4.24795336 81.57868378 -14.26804589 84.88381172 -25.41015625 84.5078125 C-31.63594509 83.6271242 -37.226656 81.45674213 -43 79 C-43 78.34 -43 77.68 -43 77 C-43.72058594 76.77828125 -44.44117188 76.5565625 -45.18359375 76.328125 C-48.67199673 74.68310834 -50.5136571 72.63369862 -53.0625 69.75 C-54.31740234 68.35007813 -54.31740234 68.35007813 -55.59765625 66.921875 C-57.96928574 64.03735653 -59.98896983 61.13962216 -62 58 C-66.30144621 58.53768078 -69.97931301 59.65572861 -73.97265625 61.25 C-76 62 -76 62 -79.875 62.9375 C-83.09174253 63.62813349 -83.09174253 63.62813349 -84 65.9375 C-84.33 66.618125 -84.66 67.29875 -85 68 C-86.00933594 68.40734375 -87.01867187 68.8146875 -88.05859375 69.234375 C-92.71422016 71.13065064 -96.24599174 74.09342343 -100.0625 77.3125 C-100.79984375 77.92843018 -101.5371875 78.54436035 -102.296875 79.17895508 C-113.27355166 88.47772108 -123.23422005 98.58320051 -132 110 C-132.54398438 110.69222656 -133.08796875 111.38445312 -133.6484375 112.09765625 C-135.21303704 114.29985271 -136.15719749 116.6236715 -137.171875 119.1171875 C-138.53793176 122.22303352 -140.27308197 125.08210401 -142 128 C-142.99 128 -143.98 128 -145 128 C-145 128.99 -145 129.98 -145 131 C-117.28 131 -89.56 131 -61 131 C-60.67 129.68 -60.34 128.36 -60 127 C-52.61435419 115.92153129 -42.96600292 109.11597238 -30 106 C-18.8385391 104.37272159 -8.91217522 105.46026136 1 111 C1 111.66 1 112.32 1 113 C1.81984375 113.08894531 1.81984375 113.08894531 2.65625 113.1796875 C6.00225608 114.35078963 8.08110245 116.63592405 10.5 119.125 C10.98903809 119.62201416 11.47807617 120.11902832 11.98193359 120.63110352 C21.32308294 130.34558378 21.51122397 139.34423886 21.3671875 152.24609375 C21.0761976 159.75587159 18.99233243 166.13900921 16 173 C15.34 173 14.68 173 14 173 C13.6596875 174.0828125 13.6596875 174.0828125 13.3125 175.1875 C10.67050346 180.84892117 5.82563995 183.99423295 0.625 187.1875 C-0.45523437 187.86167969 -1.53546875 188.53585938 -2.6484375 189.23046875 C-16.27571479 196.42528998 -30.96492284 192.84805053 -45 189 C-45.17789063 188.03900391 -45.17789063 188.03900391 -45.359375 187.05859375 C-45.57078125 186.37925781 -45.7821875 185.69992188 -46 185 C-47.65697379 184.30959426 -49.3255761 183.6469365 -51 183 C-52.70779973 181.37550757 -54.37550757 179.70779973 -56 178 C-56.721875 177.54625 -57.44375 177.0925 -58.1875 176.625 C-60.86112148 174.22796006 -61.11186681 171.40385848 -62 168 C-91.35987074 167.86317921 -120.71971889 167.75697041 -150.07984312 167.69360802 C-153.54460297 167.68610362 -157.00936219 167.6783377 -160.47412109 167.67041016 C-161.16390386 167.66883629 -161.85368663 167.66726243 -162.56437191 167.66564088 C-173.73915882 167.63951969 -184.91376088 167.59220507 -196.08843806 167.53708322 C-207.55130621 167.48101061 -219.0140242 167.44810437 -230.47703338 167.43546903 C-236.91714735 167.42763295 -243.35684181 167.40916081 -249.79682159 167.36561966 C-255.85431645 167.32499505 -261.91121769 167.31231066 -267.96883583 167.32135391 C-270.19574264 167.31969874 -272.42266863 167.30770412 -274.64945793 167.28476715 C-277.68348495 167.25503957 -280.71525248 167.26204316 -283.74932861 167.2784729 C-284.6364863 167.26099585 -285.52364399 167.2435188 -286.43768525 167.22551215 C-288.77848249 167.25992374 -290.75331541 167.34115648 -293 168 C-295.57970856 170.77628155 -295.57970856 170.77628155 -297 174 C-302.73807457 182.38762267 -312.02689233 187.93184403 -322 190 C-325.08042857 190.2396373 -328.16112887 190.23096227 -331.25 190.25 C-332.48169922 190.2809375 -332.48169922 190.2809375 -333.73828125 190.3125 C-341.5595151 190.36207993 -347.47547787 188.18493925 -354.125 184.125 C-354.91132813 183.65320313 -355.69765625 183.18140625 -356.5078125 182.6953125 C-366.01708646 176.22662144 -370.59626764 167.95518229 -374 157 C-375.83110083 147.27071243 -374.83136876 136.73064066 -370 128 C-368.45113107 125.84545397 -366.78660395 123.97466752 -365 122 C-364.71769531 121.2059375 -364.43539062 120.411875 -364.14453125 119.59375 C-361.63098662 113.89752599 -354.91190337 109.61927968 -349.3125 107.125 C-336.64204071 102.82182515 -323.6917575 102.33772173 -311 107 C-303.5784561 111.04811485 -298.87855187 117.29532352 -294 124 C-293.44570313 124.67933594 -292.89140625 125.35867187 -292.3203125 126.05859375 C-291 128 -291 128 -291 131 C-256.35 131 -221.7 131 -186 131 C-185.01 128.03 -185.01 128.03 -184 125 C-182.81420898 122.796875 -182.81420898 122.796875 -181.49609375 120.75 C-181.00753906 119.98405518 -180.51898438 119.21811035 -180.015625 118.42895508 C-179.49484375 117.6273999 -178.9740625 116.82584473 -178.4375 116 C-177.89738281 115.15912842 -177.35726562 114.31825684 -176.80078125 113.4519043 C-175.70925542 111.75334655 -174.61537318 110.05630058 -173.51904297 108.36083984 C-172.20549707 106.31937587 -170.91100091 104.26831796 -169.62890625 102.20703125 C-161.77652767 89.62969 -153.04898834 77.92190119 -142.9375 67.0625 C-142.29409668 66.36979004 -141.65069336 65.67708008 -140.98779297 64.96337891 C-136.38555383 60.12851794 -136.38555383 60.12851794 -133 59 C-132.67 58.01 -132.34 57.02 -132 56 C-129.84796532 54.1399646 -127.70024386 52.40191112 -125.4375 50.6875 C-124.80142822 50.19838135 -124.16535645 49.7092627 -123.51000977 49.20532227 C-122.2472917 48.23604257 -120.9822841 47.26973719 -119.71484375 46.30664062 C-118.29048568 45.22133817 -116.87803243 44.12043283 -115.46875 43.015625 C-111.18739501 39.6893415 -107.61881636 37 -102 37 C-102 36.34 -102 35.68 -102 35 C-96.75798066 30.53457612 -91.64407708 28.39875307 -85 27 C-84.34 26.34 -83.68 25.68 -83 25 C-80.25902377 23.93599235 -77.53163774 22.94435432 -74.75 22 C-73.99847656 21.73960938 -73.24695313 21.47921875 -72.47265625 21.2109375 C-70.31764772 20.46627487 -68.15908788 19.73273144 -66 19 C-64.87078125 18.608125 -63.7415625 18.21625 -62.578125 17.8125 C-60 17 -60 17 -58 17 C-57.938125 16.46375 -57.87625 15.9275 -57.8125 15.375 C-55.32070605 8.09129462 -47.46551981 2.33903664 -40.94921875 -1.15234375 C-28.60645454 -6.5198384 -12.05203052 -5.47169338 0 0 Z " fill="#70A9D6" transform="translate(581,47)"/>
<path d="M0 0 C2.8125 2.3125 2.8125 2.3125 5 5 C6.30197193 6.09596371 7.61561691 7.17813599 8.9375 8.25 C16.13459287 14.52194672 20.34138256 21.66417335 21.203125 31.26245117 C21.88585909 47.50640204 19.59092381 58.3076757 8.5625 70.75 C7.716875 71.4925 6.87125 72.235 6 73 C5.46246094 73.47953125 4.92492187 73.9590625 4.37109375 74.453125 C-4.24795336 81.57868378 -14.26804589 84.88381172 -25.41015625 84.5078125 C-31.63594509 83.6271242 -37.226656 81.45674213 -43 79 C-43 78.34 -43 77.68 -43 77 C-43.72058594 76.77828125 -44.44117188 76.5565625 -45.18359375 76.328125 C-48.67199673 74.68310834 -50.5136571 72.63369862 -53.0625 69.75 C-54.31740234 68.35007813 -54.31740234 68.35007813 -55.59765625 66.921875 C-57.96928574 64.03735653 -59.98896983 61.13962216 -62 58 C-66.30144621 58.53768078 -69.97931301 59.65572861 -73.97265625 61.25 C-76 62 -76 62 -79.875 62.9375 C-83.09174253 63.62813349 -83.09174253 63.62813349 -84 65.9375 C-84.33 66.618125 -84.66 67.29875 -85 68 C-86.00933594 68.40734375 -87.01867187 68.8146875 -88.05859375 69.234375 C-92.71422016 71.13065064 -96.24599174 74.09342343 -100.0625 77.3125 C-101.16851562 78.23639526 -101.16851562 78.23639526 -102.296875 79.17895508 C-113.27355166 88.47772108 -123.23422005 98.58320051 -132 110 C-132.81597656 111.03833984 -132.81597656 111.03833984 -133.6484375 112.09765625 C-135.21574063 114.30365805 -136.15781934 116.638658 -137.19140625 119.12890625 C-139.47696531 124.41771199 -141.5402828 128.52699096 -147 131 C-149.9377374 131.25239537 -152.65195767 131.35087237 -155.58203125 131.29296875 C-156.39621017 131.28872391 -157.2103891 131.28447906 -158.04924011 131.28010559 C-160.63733668 131.26337753 -163.22464071 131.22573712 -165.8125 131.1875 C-167.57225434 131.17244553 -169.33202095 131.15875846 -171.09179688 131.14648438 C-175.39483437 131.11349336 -179.69728303 131.0617524 -184 131 C-182.42546395 124.32664402 -180.77005197 118.84858808 -176.875 113.1875 C-176.06580186 111.99129405 -175.25722533 110.79466739 -174.44921875 109.59765625 C-174.03978027 109.00098145 -173.6303418 108.40430664 -173.20849609 107.78955078 C-171.66907207 105.50995925 -170.21909291 103.18039129 -168.765625 100.84545898 C-161.18160215 88.74296599 -152.67283381 77.51792377 -142.9375 67.0625 C-142.29409668 66.36979004 -141.65069336 65.67708008 -140.98779297 64.96337891 C-136.38555383 60.12851794 -136.38555383 60.12851794 -133 59 C-132.67 58.01 -132.34 57.02 -132 56 C-129.84796532 54.1399646 -127.70024386 52.40191112 -125.4375 50.6875 C-124.48339233 49.95382202 -124.48339233 49.95382202 -123.51000977 49.20532227 C-122.2472917 48.23604257 -120.9822841 47.26973719 -119.71484375 46.30664062 C-118.29048568 45.22133817 -116.87803243 44.12043283 -115.46875 43.015625 C-111.18739501 39.6893415 -107.61881636 37 -102 37 C-102 36.34 -102 35.68 -102 35 C-96.75798066 30.53457612 -91.64407708 28.39875307 -85 27 C-84.34 26.34 -83.68 25.68 -83 25 C-80.25902377 23.93599235 -77.53163774 22.94435432 -74.75 22 C-73.99847656 21.73960938 -73.24695313 21.47921875 -72.47265625 21.2109375 C-70.31764772 20.46627487 -68.15908788 19.73273144 -66 19 C-64.87078125 18.608125 -63.7415625 18.21625 -62.578125 17.8125 C-60 17 -60 17 -58 17 C-57.938125 16.46375 -57.87625 15.9275 -57.8125 15.375 C-55.32070605 8.09129462 -47.46551981 2.33903664 -40.94921875 -1.15234375 C-28.60645454 -6.5198384 -12.05203052 -5.47169338 0 0 Z " fill="#EEF4F7" transform="translate(581,47)"/>
<path d="M0 0 C1.93410556 0.05524164 3.86836274 0.10542045 5.80273438 0.15039062 C10.51809598 0.27097854 15.22611764 0.46036505 19.9375 0.6875 C14.62086961 11.51850528 8.16141486 22.03498849 0.9375 31.6875 C-0.16658203 33.1725 -0.16658203 33.1725 -1.29296875 34.6875 C-5.8004998 40.68053987 -10.50247829 46.48742661 -15.375 52.1875 C-15.86637451 52.76274414 -16.35774902 53.33798828 -16.86401367 53.93066406 C-19.79585469 57.32432608 -22.76239588 60.64299775 -26.0625 63.6875 C-26.7225 63.6875 -27.3825 63.6875 -28.0625 63.6875 C-28.3925 64.6775 -28.7225 65.6675 -29.0625 66.6875 C-30.92492977 68.30635841 -32.77237305 69.78501698 -34.75 71.25 C-35.32435791 71.68256104 -35.89871582 72.11512207 -36.49047852 72.56079102 C-38.3404048 73.94667308 -40.19983468 75.31879588 -42.0625 76.6875 C-42.68576172 77.14737305 -43.30902344 77.60724609 -43.95117188 78.08105469 C-45.7952805 79.43679115 -47.64577963 80.78313329 -49.5 82.125 C-50.06614014 82.53758057 -50.63228027 82.95016113 -51.21557617 83.37524414 C-54.69569612 85.8628037 -58.19575873 87.8675605 -62.0625 89.6875 C-63.1246875 90.20570313 -64.186875 90.72390625 -65.28125 91.2578125 C-66.90546875 92.02738281 -66.90546875 92.02738281 -68.5625 92.8125 C-70.18671875 93.58980469 -70.18671875 93.58980469 -71.84375 94.3828125 C-74.96234986 95.64690516 -77.73407316 96.27645934 -81.0625 96.6875 C-81.0625 97.3475 -81.0625 98.0075 -81.0625 98.6875 C-91.43607631 102.13169134 -91.43607631 102.13169134 -97.0625 101.6875 C-97.0625 102.3475 -97.0625 103.0075 -97.0625 103.6875 C-97.84625 104.30625 -98.63 104.925 -99.4375 105.5625 C-102.09613233 107.38579833 -102.09613233 107.38579833 -102.88671875 109.5390625 C-106.59397229 116.31311382 -116.65211521 121.83065665 -123.80859375 124.1015625 C-128.11535556 124.87708984 -132.31699232 125.07380129 -136.6875 125.125 C-137.47519775 125.13539307 -138.26289551 125.14578613 -139.07446289 125.15649414 C-146.38553566 125.04587058 -152.59908497 123.03167783 -159.0625 119.6875 C-159.0625 119.0275 -159.0625 118.3675 -159.0625 117.6875 C-159.64257812 117.4296875 -160.22265625 117.171875 -160.8203125 116.90625 C-168.81632873 112.55998334 -174.66531069 103.91097226 -177.875 95.578125 C-180.70317651 85.12958402 -180.17405206 72.70233552 -176.0625 62.6875 C-175.4025 62.0275 -174.7425 61.3675 -174.0625 60.6875 C-173.35539322 59.03758418 -172.68306011 57.37187744 -172.0625 55.6875 C-171.4025 55.6875 -170.7425 55.6875 -170.0625 55.6875 C-169.80082031 55.089375 -169.53914062 54.49125 -169.26953125 53.875 C-167.3040809 50.31301879 -164.17999021 48.22088529 -161.0625 45.6875 C-160.2375 44.924375 -159.4125 44.16125 -158.5625 43.375 C-155.42115728 41.25459366 -152.80000179 40.98063739 -149.0625 40.6875 C-149.0625 40.0275 -149.0625 39.3675 -149.0625 38.6875 C-140.83263552 35.94421184 -128.04831422 35.86604248 -119.94140625 39.02734375 C-117.17313403 40.43972754 -114.59610533 41.8915266 -112.0625 43.6875 C-112.0625 44.3475 -112.0625 45.0075 -112.0625 45.6875 C-111.485 45.95175781 -110.9075 46.21601563 -110.3125 46.48828125 C-103.80733976 49.95544131 -99.12575496 55.05044759 -96.0625 61.6875 C-96.0625 62.6775 -96.0625 63.6675 -96.0625 64.6875 C-71.06326497 52.70789739 -49.95885007 37.72002686 -32.99609375 15.47265625 C-32.30157104 14.61692017 -32.30157104 14.61692017 -31.59301758 13.74389648 C-29.94414044 11.6212754 -29.94414044 11.6212754 -28.4597168 8.82055664 C-21.39650724 -2.3277684 -11.8530345 -0.58856308 0 0 Z " fill="#B4DEF1" transform="translate(386.0625,225.3125)"/>
<path d="M0 0 C1.99923308 0.00934467 3.99847774 0.01645295 5.99772644 0.0214386 C11.21754493 0.04037824 16.43664938 0.08936434 21.65618896 0.1449585 C26.99921006 0.19643465 32.3423484 0.21901279 37.68554688 0.24414062 C48.1383317 0.29749761 58.59059047 0.38264941 69.04296875 0.48828125 C69.04296875 1.47828125 69.04296875 2.46828125 69.04296875 3.48828125 C67.84671875 3.79765625 66.65046875 4.10703125 65.41796875 4.42578125 C54.15856418 8.2200947 44.68974608 16.27683913 35.8828125 24.0078125 C34.12966769 25.53910129 32.33599617 27.02687563 30.484375 28.4375 C27.86638286 30.451856 27.86638286 30.451856 25.9206543 33.57275391 C23.57160866 36.41445596 23.07504822 36.4823349 19.12988281 37.21362305 C17.60623406 37.23421545 16.08194987 37.22377273 14.55859375 37.1875 C13.33604889 37.19738701 13.33604889 37.19738701 12.08880615 37.20747375 C9.4893574 37.2249167 6.89230242 37.20302844 4.29296875 37.17578125 C1.70839366 37.16441995 -0.87545753 37.16196101 -3.46002197 37.17622375 C-5.06399276 37.18351274 -6.66813381 37.17575203 -8.27191162 37.14982605 C-13.97674953 37.15310807 -18.6591704 38.42638183 -23.95703125 40.48828125 C-25.50390625 41.07609375 -25.50390625 41.07609375 -27.08203125 41.67578125 C-32.85092006 45.31268941 -37.46264577 50.67581386 -39.5234375 57.2421875 C-41.26377333 66.25744067 -40.04915862 75.89262866 -36.95703125 84.48828125 C-34.89565952 87.37253928 -32.74519676 89.69530132 -30.20703125 92.17578125 C-27.95703125 94.48828125 -27.95703125 94.48828125 -27.95703125 96.48828125 C-42.14703125 96.48828125 -56.33703125 96.48828125 -70.95703125 96.48828125 C-71.28703125 92.85828125 -71.61703125 89.22828125 -71.95703125 85.48828125 C-72.61703125 85.48828125 -73.27703125 85.48828125 -73.95703125 85.48828125 C-78.53526015 66.56221 -75.95308367 49.97421453 -66.64453125 32.98828125 C-59.39357122 21.50098352 -49.3554294 11.42967857 -36.47868347 6.49467468 C-33.92234634 5.51135275 -33.92234634 5.51135275 -31.39839172 4.23469543 C-21.02348984 -0.4869541 -11.20231231 -0.15514267 0 0 Z " fill="#EFF5F7" transform="translate(408.95703125,69.51171875)"/>
<path d="M0 0 C13.53 0 27.06 0 41 0 C45.62974397 10.41692393 47.34882802 17.27315676 47.3125 28.375 C47.32861328 29.35210937 47.34472656 30.32921875 47.36132812 31.3359375 C47.36523064 37.20531971 46.65889091 42.18629001 44.75512695 47.74511719 C43.96637555 50.1004059 43.41189874 52.45125634 42.875 54.875 C41.20586225 60.57713545 37.71851292 64.78057013 34.05859375 69.3359375 C32.34990886 71.54717677 31.23236547 73.52971787 30 76 C28.34928604 77.02611949 26.68029994 78.02308143 25 79 C24.13375 79.86625 23.2675 80.7325 22.375 81.625 C20 84 20 84 17 85 C16.505 86.485 16.505 86.485 16 88 C13.41079721 89.15610915 10.92978761 90.10828558 8.25 91 C7.55261719 91.2475 6.85523438 91.495 6.13671875 91.75 C3.77303632 92.56185515 1.39534869 93.2866141 -1 94 C-1.87776596 94.26150345 -2.75553192 94.5230069 -3.65989685 94.79243469 C-13.49402317 97.39129136 -22.90352048 97.38645311 -32.98828125 97.29296875 C-34.78573753 97.28736015 -36.58319846 97.28309604 -38.38066101 97.28010559 C-43.06762789 97.2687562 -47.75430731 97.23937667 -52.44116211 97.20599365 C-57.24133417 97.17507681 -62.04155354 97.16155447 -66.84179688 97.14648438 C-76.22798955 97.11449555 -85.61397069 97.06342203 -95 97 C-93.652217 92.956651 -91.845429 92.48384163 -88.1875 90.375 C-78.93167805 84.89287331 -70.40527095 78.54794196 -62.5234375 71.21484375 C-61 70 -61 70 -59 70 C-59 69.34 -59 68.68 -59 68 C-57.37550757 66.29220027 -55.70779973 64.62449243 -54 63 C-53.67 62.67 -53.34 62.34 -53 62 C-50.46417416 61.86429534 -47.95186305 61.78933149 -45.4140625 61.75390625 C-43.82681853 61.72091334 -42.23957908 61.68770278 -40.65234375 61.65429688 C-38.15352156 61.60728258 -35.65470982 61.56297294 -33.15576172 61.52319336 C-17.82680402 62.33366748 -17.82680402 62.33366748 -4.36572266 57.47875977 C-3.91503418 56.99076904 -3.4643457 56.50277832 -3 56 C-2.21625 55.731875 -1.4325 55.46375 -0.625 55.1875 C5.23795872 52.53520915 7.4028002 47.54288545 9.8125 41.875 C13.25759503 32.28106448 13.10729658 24.05541762 9.28125 14.61328125 C7.2427565 10.45550029 4.72266092 6.73393498 2 3 C1.01 1.515 1.01 1.515 0 0 Z " fill="#B9E0F1" transform="translate(428,226)"/>
<path d="M0 0 C4.86329226 2.84192387 9.66031055 5.81167012 11.9140625 11.11328125 C13.64445382 17.86504177 14.23129221 25.59533269 11.65234375 32.17578125 C8.03512626 37.91509967 3.2534626 42.20717913 -3.25 44.375 C-9.69722019 44.82947618 -17.32203606 45.28305778 -23.25 42.375 C-29.40098785 36.58301922 -33.29124562 29.46931165 -33.75 21 C-33.52668308 14.21674845 -31.26840523 9.2108404 -26.3125 4.5546875 C-18.59732884 -1.49470807 -9.36536416 -4.38145691 0 0 Z " fill="#CDE9F7" transform="translate(569.25,174.625)"/>
<path d="M0 0 C5.90704303 3.21485146 9.88764218 6.57774841 12.15234375 13.0234375 C12.64734375 13.5184375 12.64734375 13.5184375 13.15234375 14.0234375 C14.12246542 22.16509148 13.49096852 28.19592551 8.80078125 35 C6.79703017 37.45958071 4.82620137 39.3094262 2.15234375 41.0234375 C1.42144531 41.54292969 0.69054687 42.06242187 -0.0625 42.59765625 C-3.51641038 44.36578709 -5.9825227 44.42342759 -9.84765625 44.3984375 C-11.64203125 44.41003906 -11.64203125 44.41003906 -13.47265625 44.421875 C-20.09348995 43.6402488 -25.29686553 38.93862689 -29.59765625 34.0234375 C-32.28464215 29.72426007 -33.12345127 26.07926114 -33.09765625 21.0234375 C-33.1028125 20.0128125 -33.10796875 19.0021875 -33.11328125 17.9609375 C-32.84129051 14.9530399 -32.11086743 12.75036957 -30.84765625 10.0234375 C-30.18765625 10.0234375 -29.52765625 10.0234375 -28.84765625 10.0234375 C-28.60015625 9.2603125 -28.35265625 8.4971875 -28.09765625 7.7109375 C-26.72634953 4.76262805 -25.61254835 3.66509218 -22.84765625 2.0234375 C-22.18765625 2.0234375 -21.52765625 2.0234375 -20.84765625 2.0234375 C-20.84765625 1.3634375 -20.84765625 0.7034375 -20.84765625 0.0234375 C-14.5625209 -2.07160762 -6.29591721 -2.1590937 0 0 Z " fill="#080C0F" transform="translate(259.84765625,172.9765625)"/>
<path d="M0 0 C3.13736584 1.92069673 5.33587351 4.1828414 7.3125 7.3125 C7.3125 7.9725 7.3125 8.6325 7.3125 9.3125 C7.9725 9.3125 8.6325 9.3125 9.3125 9.3125 C10.38340792 12.81651072 10.47888464 16.09704216 10.5 19.75 C10.51417969 20.86246094 10.52835938 21.97492188 10.54296875 23.12109375 C10.12326106 28.93297819 7.88638606 32.20137979 4.0625 36.5 C3.31484375 37.35980469 2.5671875 38.21960938 1.796875 39.10546875 C-2.4450197 42.8738186 -6.87274558 43.71245143 -12.48046875 43.4765625 C-13.20878906 43.42242187 -13.93710937 43.36828125 -14.6875 43.3125 C-15.50863281 43.27898437 -16.32976563 43.24546875 -17.17578125 43.2109375 C-21.31409952 42.77135893 -23.81757086 42.20849443 -26.7734375 39.1640625 C-28.58537808 36.61817131 -30.16344352 34.0388677 -31.6875 31.3125 C-32.326875 30.3225 -32.96625 29.3325 -33.625 28.3125 C-35.62333395 22.67014532 -35.29419744 17.38240891 -33.625 11.6875 C-26.50520242 -0.71472804 -13.86998154 -6.46393479 0 0 Z " fill="#111214" transform="translate(570.6875,66.6875)"/>
<path d="M0 0 C1.04285156 -0.00257813 2.08570313 -0.00515625 3.16015625 -0.0078125 C5.9375 0.125 5.9375 0.125 8.9375 1.125 C8.9375 1.785 8.9375 2.445 8.9375 3.125 C9.68 3.2075 10.4225 3.29 11.1875 3.375 C14.48052595 4.27309799 15.79726788 5.50916074 17.9375 8.125 C17.9375 8.785 17.9375 9.445 17.9375 10.125 C18.5975 10.125 19.2575 10.125 19.9375 10.125 C22.58268502 17.07654623 23.49151313 25.2025584 21.21484375 32.4140625 C17.64298133 38.97934807 11.97812412 43.77812529 4.9375 46.125 C-2.60866172 47.07848614 -7.96517153 45.66982595 -14.0625 41.125 C-16.375 38.75 -16.375 38.75 -18.0625 36.125 C-18.805 35.073125 -19.5475 34.02125 -20.3125 32.9375 C-22.79915551 28.42431815 -22.52459954 24.13878002 -22.0625 19.125 C-22.02640625 18.35800781 -21.9903125 17.59101563 -21.953125 16.80078125 C-21.17172126 10.21630558 -17.45197828 7.07177536 -12.5703125 2.875 C-8.3939903 -0.0393183 -5.02509777 -0.01245377 0 0 Z " fill="#0A0F13" transform="translate(250.0625,283.875)"/>
<path d="M0 0 C4.28303488 0.46466888 6.64070973 3.18275442 9.5 6.125 C9.98903809 6.62201416 10.47807617 7.11902832 10.98193359 7.63110352 C20.32308294 17.34558378 20.51122397 26.34423886 20.3671875 39.24609375 C20.0761976 46.75587159 17.99233243 53.13900921 15 60 C14.34 60 13.68 60 13 60 C12.773125 60.721875 12.54625 61.44375 12.3125 62.1875 C9.67050346 67.84892117 4.82563995 70.99423295 -0.375 74.1875 C-1.45523437 74.86167969 -2.53546875 75.53585938 -3.6484375 76.23046875 C-17.27571479 83.42528998 -31.96492284 79.84805053 -46 76 C-46.11859375 75.35933594 -46.2371875 74.71867187 -46.359375 74.05859375 C-46.57078125 73.37925781 -46.7821875 72.69992188 -47 72 C-48.65697379 71.30959426 -50.3255761 70.6469365 -52 70 C-53.70779973 68.37550757 -55.37550757 66.70779973 -57 65 C-57.721875 64.54625 -58.44375 64.0925 -59.1875 63.625 C-61 62 -61 62 -63 55 C-138.9 54.67 -214.8 54.34 -293 54 C-293 53.67 -293 53.34 -293 53 C-263.64006085 52.95439296 -234.2801242 52.91899003 -204.92015688 52.89786934 C-201.4553975 52.89536787 -197.99063818 52.89277923 -194.52587891 52.89013672 C-193.83609614 52.8896121 -193.14631337 52.88908748 -192.43562809 52.88854696 C-181.26092846 52.87983996 -170.08624937 52.86406837 -158.91156194 52.84569441 C-147.44869649 52.82700354 -135.98584774 52.81603474 -124.52296662 52.81182301 C-118.08301671 52.80921105 -111.64311341 52.8030535 -105.20317841 52.78853989 C-99.1458229 52.77499866 -93.08853337 52.77077034 -87.03116417 52.77378464 C-84.80428649 52.77323292 -82.57740669 52.76923496 -80.35054207 52.76158905 C-77.31716994 52.751682 -74.28404897 52.75401565 -71.25067139 52.75949097 C-70.3635137 52.75366528 -69.47635601 52.7478396 -68.56231475 52.74183738 C-67.74968618 52.74581948 -66.9370576 52.74980158 -66.09980392 52.75390434 C-65.39959964 52.7531449 -64.69939535 52.75238546 -63.97797275 52.75160301 C-61.58611089 53.05197686 -60.02096756 53.68855449 -58 55 C-57.67 55.99 -57.34 56.98 -57 58 C-56.34 58 -55.68 58 -55 58 C-54.5978125 59.7015625 -54.5978125 59.7015625 -54.1875 61.4375 C-53.795625 62.613125 -53.40375 63.78875 -53 65 C-52.01 65.33 -51.02 65.66 -50 66 C-50 66.99 -50 67.98 -50 69 C-47.69 69.33 -45.38 69.66 -43 70 C-42.67 70.99 -42.34 71.98 -42 73 C-39.69 73.33 -37.38 73.66 -35 74 C-35 74.66 -35 75.32 -35 76 C-30.07438803 76.80184381 -25.38176768 77.13519708 -20.375 77.125 C-19.10398437 77.12757813 -17.83296875 77.13015625 -16.5234375 77.1328125 C-13.53591973 77.02020097 -10.89619112 76.69908062 -8 76 C-8 75.34 -8 74.68 -8 74 C-7.12859375 73.77570313 -6.2571875 73.55140625 -5.359375 73.3203125 C-1.43615897 71.77839736 0.73450157 69.79886726 3.75 66.875 C8.80453258 62 8.80453258 62 11 62 C10.9175 61.29875 10.835 60.5975 10.75 59.875 C11.08281029 56.04768167 12.8614148 54.17732658 15 51 C18.2800079 44.11061103 18.34355516 37.5200407 18 30 C17.67 30 17.34 30 17 30 C16.95101563 29.37351563 16.90203125 28.74703125 16.8515625 28.1015625 C16.73941406 26.87566406 16.73941406 26.87566406 16.625 25.625 C16.55539062 24.81289062 16.48578125 24.00078125 16.4140625 23.1640625 C16.17107412 20.79665809 16.17107412 20.79665809 14 19 C14 17.68 14 16.36 14 15 C13.34 15 12.68 15 12 15 C11.5875 14.071875 11.175 13.14375 10.75 12.1875 C9.04014879 9.07312814 7.8388153 7.95780365 5 6 C5 5.34 5 4.68 5 4 C3.02 3.34 1.04 2.68 -1 2 C-0.67 1.34 -0.34 0.68 0 0 Z " fill="#4B6696" transform="translate(582,160)"/>
<path d="M0 0 C0 0.66 0 1.32 0 2 C-2.56904115 1.55959295 -4.80907824 1.08727852 -7.1875 0 C-16.69568357 -3.38068749 -28.30630841 -2.23438644 -37.76171875 0.921875 C-40.93644458 2.45106231 -43.3288122 4.71836042 -46 7 C-46.80953125 7.44214844 -47.6190625 7.88429687 -48.453125 8.33984375 C-51.4038356 10.26323639 -52.82022319 12.19617944 -54.75 15.125 C-58 20 -58 20 -59 21 C-61.70838086 21.09514592 -64.39118513 21.12554932 -67.09985352 21.11352539 C-67.94856018 21.11367142 -68.79726685 21.11381744 -69.67169189 21.1139679 C-72.49078891 21.11326848 -75.30982071 21.10547478 -78.12890625 21.09765625 C-80.07803817 21.09579217 -82.02717055 21.09436822 -83.9763031 21.09336853 C-89.11706832 21.08954255 -94.25780547 21.07971159 -99.39855957 21.06866455 C-104.64005148 21.05845215 -109.8815479 21.05387128 -115.12304688 21.04882812 C-125.41537694 21.03808939 -135.70768614 21.02101201 -146 21 C-146 20.67 -146 20.34 -146 20 C-118.28 20 -90.56 20 -62 20 C-61.67 18.68 -61.34 17.36 -61 16 C-47.57077742 -4.14383386 -21.66685096 -12.1092181 0 0 Z " fill="#446289" transform="translate(582,158)"/>
<path d="M0 0 C76.23 0 152.46 0 231 0 C236 9 236 9 236 12 C231.21750099 9.28991723 231.74214681 8.09751385 230 2 C154.1 1.67 78.2 1.34 0 1 C0 0.67 0 0.34 0 0 Z " fill="#4F7089" transform="translate(289,213)"/>
<path d="M0 0 C0.99386719 0.00902344 1.98773437 0.01804688 3.01171875 0.02734375 C4.15060547 0.04474609 4.15060547 0.04474609 5.3125 0.0625 C5.3125 0.7225 5.3125 1.3825 5.3125 2.0625 C7.6225 2.3925 9.9325 2.7225 12.3125 3.0625 C12.3125 3.7225 12.3125 4.3825 12.3125 5.0625 C13.055 5.289375 13.7975 5.51625 14.5625 5.75 C19.83554119 8.26667875 22.41267471 13.24512845 24.61328125 18.47265625 C26.56061925 25.68542216 24.88264395 33.41967081 21.6328125 40.015625 C19.36185067 43.53628772 16.45402073 46.31808161 13.3125 49.0625 C12.3225 48.4025 11.3325 47.7425 10.3125 47.0625 C12.2925 46.5675 12.2925 46.5675 14.3125 46.0625 C14.42464844 45.47082031 14.53679688 44.87914062 14.65234375 44.26953125 C15.36907927 41.87334447 16.31738129 40.68038217 17.875 38.75 C22.03669585 32.33254438 21.30859226 23.96947909 19.8359375 16.71484375 C17.76472455 11.03772392 13.16251788 8.11447095 8.125 5.25 C1.27542998 3.11652737 -5.11285238 3.1488588 -11.6875 6.0625 C-13.68370166 6.74045528 -15.68288701 7.40983531 -17.6875 8.0625 C-16.6875 5.0625 -16.6875 5.0625 -14.9453125 3.9296875 C-14.24148438 3.60226563 -13.53765625 3.27484375 -12.8125 2.9375 C-12.11382813 2.60492188 -11.41515625 2.27234375 -10.6953125 1.9296875 C-6.9338786 0.30509932 -4.06680304 -0.04784474 0 0 Z " fill="#587DAE" transform="translate(560.6875,169.9375)"/>
<path d="M0 0 C1.2325074 -0.002062 1.2325074 -0.002062 2.48991394 -0.00416565 C3.38255447 -0.00057037 4.27519501 0.0030249 5.19488525 0.00672913 C6.61490593 0.00651009 6.61490593 0.00651009 8.06361389 0.00628662 C11.19105322 0.00698299 14.3184329 0.01476253 17.44586182 0.02259827 C19.61490852 0.02446342 21.78395565 0.02588687 23.95300293 0.02688599 C29.66090051 0.03070346 35.36877263 0.0405272 41.07666016 0.05158997 C46.90154679 0.06182062 52.72643754 0.06638716 58.55133057 0.07142639 C69.97972717 0.08215013 81.40810487 0.09921735 92.83648682 0.12025452 C92.83648682 0.45025452 92.83648682 0.78025452 92.83648682 1.12025452 C87.71253816 2.17221831 82.85250145 2.22194798 77.65338135 2.15101624 C75.77896439 2.13492149 73.904544 2.11922322 72.03012085 2.10386658 C71.04279087 2.09432827 70.05546089 2.08478996 69.03821182 2.07496262 C62.68894557 2.02319755 56.33940509 2.02919253 49.98996162 2.02360344 C44.41655751 2.01537776 38.84454789 1.98747321 33.27154541 1.91810608 C27.86939108 1.85199778 22.46946084 1.8396253 17.06698227 1.86336136 C15.0136725 1.86275197 12.96027019 1.84271954 10.90735245 1.80259323 C-0.34734473 1.15035915 -0.34734473 1.15035915 -10.10595703 5.61836243 C-12.28184723 8.54898163 -12.28184723 8.54898163 -13.76583862 11.66056824 C-15.16351318 14.12025452 -15.16351318 14.12025452 -17.34658813 14.96299744 C-18.24596603 15.04083969 -18.24596603 15.04083969 -19.16351318 15.12025452 C-18.50351318 14.79025452 -17.84351318 14.46025452 -17.16351318 14.12025452 C-16.44191894 12.47662318 -15.76999898 10.80975066 -15.16351318 9.12025452 C-14.50351318 9.12025452 -13.84351318 9.12025452 -13.16351318 9.12025452 C-13.08101318 8.54275452 -12.99851318 7.96525452 -12.91351318 7.37025452 C-11.93140401 4.42392701 -10.54076252 3.0899754 -8.16351318 1.12025452 C-5.39860509 0.22769591 -2.89415491 -0.00374891 0 0 Z " fill="#87BADA" transform="translate(296.16351318359375,210.87974548339844)"/>
<path d="M0 0 C1.99923308 0.00934467 3.99847774 0.01645295 5.99772644 0.0214386 C11.21754493 0.04037824 16.43664938 0.08936434 21.65618896 0.1449585 C26.99921006 0.19643465 32.3423484 0.21901279 37.68554688 0.24414062 C48.1383317 0.29749761 58.59059047 0.38264941 69.04296875 0.48828125 C69.04296875 1.47828125 69.04296875 2.46828125 69.04296875 3.48828125 C67.90593002 3.48161942 66.7688913 3.47495758 65.59739685 3.46809387 C54.87153826 3.40722661 44.1457148 3.36228158 33.41972256 3.33284473 C27.90563688 3.3172021 22.39169086 3.29598924 16.87768555 3.26196289 C11.55439446 3.22931973 6.23123755 3.21141768 0.90785408 3.20364952 C-1.12108407 3.19811494 -3.15001505 3.18730723 -5.17889595 3.17109108 C-8.02510458 3.14925111 -10.8707618 3.14631709 -13.71704102 3.14770508 C-14.55214203 3.13691925 -15.38724304 3.12613342 -16.24765015 3.11502075 C-20.18258361 3.13572654 -23.19199805 3.39815529 -26.78453064 5.07206726 C-29.95703125 6.48828125 -29.95703125 6.48828125 -32.39453125 6.17578125 C-32.91015625 5.94890625 -33.42578125 5.72203125 -33.95703125 5.48828125 C-22.6676035 -0.28017377 -12.39060249 -0.1715995 0 0 Z " fill="#A5A7A8" transform="translate(408.95703125,69.51171875)"/>
<path d="M0 0 C1.09731445 0.01353516 1.09731445 0.01353516 2.21679688 0.02734375 C3.99884298 0.05063847 5.78071759 0.0864981 7.5625 0.125 C8.0575 1.61 8.0575 1.61 8.5625 3.125 C2.34925502 3.85530908 -3.27848757 4.35680249 -9.4375 3.125 C-9.7675 3.785 -10.0975 4.445 -10.4375 5.125 C-11.13875 5.24875 -11.84 5.3725 -12.5625 5.5 C-23.13605585 7.7985991 -29.59188025 17.09524932 -35.8359375 25.18359375 C-36.36445313 25.82425781 -36.89296875 26.46492188 -37.4375 27.125 C-37.7675 27.125 -38.0975 27.125 -38.4375 27.125 C-38.6875 24.875 -38.6875 24.875 -38.4375 22.125 C-37.14784824 20.74937146 -35.81060707 19.41733607 -34.4375 18.125 C-34.16035156 17.34382813 -33.88320312 16.56265625 -33.59765625 15.7578125 C-31.07740354 10.03845114 -24.37281335 5.75470776 -18.75 3.25 C-12.25573445 1.04440038 -6.81835883 -0.16219335 0 0 Z " fill="#8CBBD0" transform="translate(250.4375,150.875)"/>
<path d="M0 0 C0 3.21378204 -0.3983451 3.87506559 -2 6.5 C-4.6228024 11.6327961 -4.9193273 16.34260121 -4 22 C-1.61570503 28.63455991 1.77298597 35.07752356 7.9375 38.75 C13.3226812 40.8403006 19.29442855 40.75118561 25 41 C24.505 41.99 24.505 41.99 24 43 C6.80462445 42.30836908 6.80462445 42.30836908 0.125 36.5 C-2 34 -2 34 -3 31 C-3.66 31 -4.32 31 -5 31 C-7.59316068 22.46417943 -9.45711755 15.41025684 -6 6.8671875 C-4.45041483 3.97382145 -2.47292269 2.13874395 0 0 Z " fill="#648FBB" transform="translate(541,179)"/>
<path d="M0 0 C1.9453125 0.8125 1.9453125 0.8125 4 2 C6.01149794 8.89656437 4.26998739 15.59108648 1.8125 22.1875 C-0.63711789 25.98863121 -3.69381331 28.93838054 -7 32 C-7.99 31.34 -8.98 30.68 -10 30 C-8.68 29.67 -7.36 29.34 -6 29 C-5.88785156 28.40574219 -5.77570312 27.81148437 -5.66015625 27.19921875 C-4.94266541 24.8089978 -4.01974431 23.7102916 -2.4375 21.8125 C1.7683923 15.49157566 0.37086915 7.25255225 0 0 Z " fill="#779BC4" transform="translate(581,187)"/>
<path d="M0 0 C24.42 0 48.84 0 74 0 C79 9 79 9 79 12 C74.21750099 9.28991723 74.74214681 8.09751385 73 2 C48.91 1.67 24.82 1.34 0 1 C0 0.67 0 0.34 0 0 Z " fill="#385473" transform="translate(446,213)"/>
<path d="M0 0 C0.66 0.33 1.32 0.66 2 1 C-0.48513721 5.78619018 -2.4624089 8.9011573 -7 12 C-7.72960937 12.52335938 -8.45921875 13.04671875 -9.2109375 13.5859375 C-12.71107881 15.36051895 -15.27930257 15.39970936 -19.1875 15.375 C-21.03408203 15.38660156 -21.03408203 15.38660156 -22.91796875 15.3984375 C-23.93503906 15.26695312 -24.95210937 15.13546875 -26 15 C-26.66 14.01 -27.32 13.02 -28 12 C-26.906875 12.061875 -25.81375 12.12375 -24.6875 12.1875 C-20.02501842 12.21243306 -15.94541021 11.02315515 -11.515625 9.65625 C-9 9 -9 9 -5 9 C-5.33 8.01 -5.66 7.02 -6 6 C-4 4 -2 2 0 0 Z " fill="#0B1A29" transform="translate(269,202)"/>
<path d="M0 0 C0.99 0 1.98 0 3 0 C1.95986676 2.86954406 1.21213942 3.87507345 -1.4609375 5.44921875 C-2.42257812 5.85785156 -3.38421875 6.26648438 -4.375 6.6875 C-5.33148438 7.10386719 -6.28796875 7.52023438 -7.2734375 7.94921875 C-12.19544235 9.84609454 -16.24556922 10.16151305 -21.5625 10.1875 C-22.23474609 10.19974609 -22.90699219 10.21199219 -23.59960938 10.22460938 C-27.29878237 10.23562975 -28.83971933 10.10685378 -32 8 C-30.36804688 7.96132812 -30.36804688 7.96132812 -28.703125 7.921875 C-13.96189512 7.79563753 -13.96189512 7.79563753 -1.3671875 1.3671875 C-0.91601562 0.91601562 -0.46484375 0.46484375 0 0 Z " fill="#8DC2DB" transform="translate(273,227)"/>
<path d="M0 0 C0.66 0.33 1.32 0.66 2 1 C-1.50661391 5.46296316 -5.14737678 9.94702513 -10 13 C-13.25 13.1875 -13.25 13.1875 -16 13 C-16.474375 13.474375 -16.94875 13.94875 -17.4375 14.4375 C-19.88872483 16.88872483 -22.66281585 16.68517131 -26 17 C-22.48132371 14.26325177 -18.96469563 11.69441828 -14.734375 10.19921875 C-11.34652076 8.71340267 -8.58736351 6.6300579 -5.6875 4.375 C-5.13771484 3.95476562 -4.58792969 3.53453125 -4.02148438 3.1015625 C-2.67707832 2.07279961 -1.33798587 1.0370991 0 0 Z " fill="#192834" transform="translate(342,302)"/>
<path d="M0 0 C0 3.19957153 -0.41591328 3.94996736 -1.984375 6.59375 C-4.42289531 11.29015949 -4.47029762 15.2975869 -4.25 20.5 C-4.23195313 21.32242188 -4.21390625 22.14484375 -4.1953125 22.9921875 C-4.1487283 24.99530804 -4.07700699 26.99781821 -4 29 C-7.42513727 25.57486273 -7.88487214 21.26640649 -8.3125 16.5625 C-7.68304423 9.38670426 -5.42957898 4.69585209 0 0 Z " fill="#537CAF" transform="translate(541,179)"/>
<path d="M0 0 C0.66 0.33 1.32 0.66 2 1 C0.61019248 2.13243576 -0.78714677 3.25563119 -2.1875 4.375 C-2.96480469 5.00148437 -3.74210937 5.62796875 -4.54296875 6.2734375 C-9.51861824 9.76983984 -13.33269023 10.11587573 -19.23046875 9.78125 C-20.03291016 9.73613281 -20.83535156 9.69101563 -21.66210938 9.64453125 C-22.91217773 9.57298828 -22.91217773 9.57298828 -24.1875 9.5 C-25.4549707 9.42845703 -25.4549707 9.42845703 -26.74804688 9.35546875 C-28.83207364 9.23772712 -30.91604253 9.11896189 -33 9 C-33 8.67 -33 8.34 -33 8 C-31.35064453 7.96132812 -31.35064453 7.96132812 -29.66796875 7.921875 C-19.74362918 7.58236995 -10.93439564 6.76539138 -2.328125 1.3046875 C-1.17570312 0.65886719 -1.17570312 0.65886719 0 0 Z " fill="#2F4B5B" transform="translate(275,229)"/>
<path d="M0 0 C4.28268533 0.46463096 6.64131217 3.18237581 9.5 6.125 C9.98758789 6.62201416 10.47517578 7.11902832 10.97753906 7.63110352 C14.41587097 11.21531462 17.12308147 14.40154961 19 19 C18.75 21.4375 18.75 21.4375 18 23 C18 22.34 18 21.68 18 21 C17.34 21 16.68 21 16 21 C15.34 20.34 14.68 19.68 14 19 C14 17.68 14 16.36 14 15 C13.34 15 12.68 15 12 15 C11.5875 14.071875 11.175 13.14375 10.75 12.1875 C9.04014879 9.07312814 7.8388153 7.95780365 5 6 C5 5.34 5 4.68 5 4 C3.02 3.34 1.04 2.68 -1 2 C-0.67 1.34 -0.34 0.68 0 0 Z " fill="#4D6597" transform="translate(582,160)"/>
<path d="M0 0 C0.99 0.495 0.99 0.495 2 1 C2.33 2.32 2.66 3.64 3 5 C15.54 5 28.08 5 41 5 C40.505 3.02 40.505 3.02 40 1 C41.37562854 2.28965176 42.70766393 3.62689293 44 5 C44 5.66 44 6.32 44 7 C29.81 7 15.62 7 1 7 C0.67 4.69 0.34 2.38 0 0 Z " fill="#798489" transform="translate(337,159)"/>
<path d="M0 0 C0 3 0 3 -1.75 5 C-7.99928507 13.33238009 -8.7043863 22.87523093 -9 33 C-9.33 33 -9.66 33 -10 33 C-10.02718316 30.14576808 -10.04692705 27.29179985 -10.0625 24.4375 C-10.07087891 23.63763672 -10.07925781 22.83777344 -10.08789062 22.01367188 C-10.13961127 9.34211309 -10.13961127 9.34211309 -6.93359375 5.56640625 C-6.10988281 4.90511719 -5.28617188 4.24382812 -4.4375 3.5625 C-3.61121094 2.88316406 -2.78492188 2.20382813 -1.93359375 1.50390625 C-1.29550781 1.00761719 -0.65742188 0.51132813 0 0 Z " fill="#12232E" transform="translate(216,167)"/>
<path d="M0 0 C-0.66386719 0.29132813 -1.32773437 0.58265625 -2.01171875 0.8828125 C-7.84265651 3.58972959 -11.13683804 5.92270142 -15 11 C-17.6875 12.9375 -17.6875 12.9375 -20 14 C-20.66 13.67 -21.32 13.34 -22 13 C-20.625 11.5 -20.625 11.5 -19 10 C-18.34 10 -17.68 10 -17 10 C-16.5978125 8.8553125 -16.5978125 8.8553125 -16.1875 7.6875 C-15.04865495 5.11011382 -14.18583329 3.73045136 -12 2 C-11.34 2 -10.68 2 -10 2 C-10 1.34 -10 0.68 -10 0 C-6.26432828 -0.76411467 -3.65188082 -1.07174763 0 0 Z " fill="#375261" transform="translate(299,327)"/>
<path d="M0 0 C1.11084961 0.02030273 1.11084961 0.02030273 2.24414062 0.04101562 C4.05891075 0.07614021 5.87330288 0.12994028 7.6875 0.1875 C8.0175 1.1775 8.3475 2.1675 8.6875 3.1875 C2.47425502 3.91780908 -3.15348757 4.41930249 -9.3125 3.1875 C-9.6425 3.8475 -9.9725 4.5075 -10.3125 5.1875 C-11.3025 4.5275 -12.2925 3.8675 -13.3125 3.1875 C-8.98702966 -0.06300138 -5.21560648 -0.18177717 0 0 Z " fill="#94C5DE" transform="translate(250.3125,150.8125)"/>
<path d="M0 0 C0.78515625 1.6796875 0.78515625 1.6796875 1 4 C-0.87890625 6.5078125 -0.87890625 6.5078125 -3.5625 9.125 C-4.86380859 10.42824219 -4.86380859 10.42824219 -6.19140625 11.7578125 C-9.15336357 14.12243489 -11.31075661 15.19777526 -15 16 C-17.375 15.625 -17.375 15.625 -19 15 C-9 9 -9 9 -6.3125 7.5 C-3.27105791 5.5271727 -1.84563711 3.07606186 0 0 Z " fill="#152340" transform="translate(594,222)"/>
<path d="M0 0 C2.88149054 0.41164151 4.78510441 0.85471848 7.21875 2.5 C10.68926652 4.37173925 13.39065025 4.50423599 17.3125 4.6875 C18.56675781 4.75324219 19.82101563 4.81898438 21.11328125 4.88671875 C22.54220703 4.94279297 22.54220703 4.94279297 24 5 C23.01 6.485 23.01 6.485 22 8 C16.6240796 9.01824969 11.04154932 7.91578874 6 6 C4.25 4.4375 4.25 4.4375 3 3 C2.01 2.67 1.02 2.34 0 2 C0 1.34 0 0.68 0 0 Z " fill="#88B7D3" transform="translate(233,212)"/>
<path d="M0 0 C0 0.66 0 1.32 0 2 C0.66 2.33 1.32 2.66 2 3 C0.4840625 2.7525 0.4840625 2.7525 -1.0625 2.5 C-8.51365574 1.56358905 -17.7834508 0.70382526 -25 3 C-25 2.34 -25 1.68 -25 1 C-15.98644207 -2.10302814 -9.17004575 -3.05668192 0 0 Z " fill="#7DB1C9" transform="translate(263,171)"/>
<path d="M0 0 C2.29199177 0.14063135 4.58359186 0.28765943 6.875 0.4375 C8.15117187 0.51871094 9.42734375 0.59992188 10.7421875 0.68359375 C14 1 14 1 16 2 C18.71760108 2.07181821 21.40859388 2.09299506 24.125 2.0625 C25.25615234 2.05573242 25.25615234 2.05573242 26.41015625 2.04882812 C28.27347127 2.03703499 30.13674555 2.01909942 32 2 C27.5777083 4.50009711 23.78712393 4.33176655 18.8125 4.3125 C17.99974609 4.32861328 17.18699219 4.34472656 16.34960938 4.36132812 C10.4065254 4.36605612 5.51264174 3.19063481 0 1 C0 0.67 0 0.34 0 0 Z " fill="#83AABC" transform="translate(231,346)"/>
<path d="M0 0 C0.84796143 -0.00386719 1.69592285 -0.00773438 2.56958008 -0.01171875 C9.97508226 0.12329753 15.5525472 1.79920303 22.0625 5.4375 C22.0625 6.0975 22.0625 6.7575 22.0625 7.4375 C18.73135052 7.02110632 16.40384827 6.08878568 13.5625 4.40625 C8.44468981 1.79813519 3.69751077 1.98541686 -1.9375 2.1875 C-2.90300781 2.20554688 -3.86851562 2.22359375 -4.86328125 2.2421875 C-7.22242033 2.28890313 -9.57941075 2.35437863 -11.9375 2.4375 C-7.89266569 -0.25905621 -4.75785463 0.01472308 0 0 Z " fill="#3B4F75" transform="translate(559.9375,152.5625)"/>
<path d="M0 0 C0.66 0.33 1.32 0.66 2 1 C2.30416035 4.04160348 2.56904321 7.07843978 2.8125 10.125 C2.90208984 10.9809375 2.99167969 11.836875 3.08398438 12.71875 C3.40479029 17.10872566 3.49061726 20.05650594 0.69921875 23.6171875 C-2 26 -2 26 -5 26 C-4.01943806 23.36002556 -3.09691409 21.13374144 -1.4375 18.84375 C0.45139643 15.1070201 0.32967634 11.76686744 0.1875 7.6875 C0.16719727 6.57665039 0.16719727 6.57665039 0.14648438 5.44335938 C0.11135979 3.62858925 0.05755972 1.81419712 0 0 Z " fill="#7B9CAA" transform="translate(271,298)"/>
<path d="M0 0 C1.13308594 0.24556641 1.13308594 0.24556641 2.2890625 0.49609375 C7.33130119 1.18077669 12.29359795 1.10511821 17.375 1.0625 C18.39722656 1.05798828 19.41945313 1.05347656 20.47265625 1.04882812 C22.98183194 1.037103 25.4908849 1.02069176 28 1 C24.53268347 4.46731653 21.06641227 4.18867435 16.375 4.25 C10.24161912 4.22455029 5.64334578 3.33517756 0 1 C0 0.67 0 0.34 0 0 Z " fill="#9FA4A7" transform="translate(543,127)"/>
<path d="M0 0 C3.51291084 2.22484353 4.66488042 4.09734276 6 8 C6.33 8.33 6.66 8.66 7 9 C7.07258946 11.18639453 7.08373783 13.37500389 7.0625 15.5625 C7.05347656 16.76003906 7.04445313 17.95757812 7.03515625 19.19140625 C7.02355469 20.11824219 7.01195312 21.04507813 7 22 C6.34 22.33 5.68 22.66 5 23 C4.95101563 22.16855469 4.90203125 21.33710938 4.8515625 20.48046875 C4.77679688 19.39378906 4.70203125 18.30710938 4.625 17.1875 C4.52058594 15.56908203 4.52058594 15.56908203 4.4140625 13.91796875 C4.18804267 10.81373814 4.18804267 10.81373814 2 8 C1.18220159 5.35982365 0.6190511 2.69729409 0 0 Z " fill="#2A4456" transform="translate(266,178)"/>
<path d="M0 0 C-0.66 0.66 -1.32 1.32 -2 2 C-3.546875 1.9690625 -3.546875 1.9690625 -5.125 1.9375 C-8.28348282 2.24741376 -8.98957219 2.987708 -11.09765625 5.47265625 C-12.47327271 7.46537169 -13.81076567 9.48503901 -15.10546875 11.53125 C-17 14 -17 14 -19.23828125 14.84375 C-19.81964844 14.8953125 -20.40101563 14.946875 -21 15 C-20.34 14.67 -19.68 14.34 -19 14 C-18.27840576 12.35636866 -17.60648579 10.68949614 -17 9 C-16.34 9 -15.68 9 -15 9 C-14.9175 8.4225 -14.835 7.845 -14.75 7.25 C-13.76789083 4.30367249 -12.37724934 2.96972088 -10 1 C-6.7409774 -0.30360904 -3.47512005 -0.07898 0 0 Z " fill="#91C4DC" transform="translate(298,211)"/>
<path d="M0 0 C1.04068391 3.12205172 0.99162646 4.66950789 0.66015625 7.88671875 C0.56669922 8.82451172 0.47324219 9.76230469 0.37695312 10.72851562 C0.27318359 11.70498047 0.16941406 12.68144531 0.0625 13.6875 C-0.03740234 14.67556641 -0.13730469 15.66363281 -0.24023438 16.68164062 C-0.4877804 19.12173718 -0.74125362 21.56106991 -1 24 C-1.66 24 -2.32 24 -3 24 C-3.55353075 7.1070615 -3.55353075 7.1070615 0 0 Z " fill="#9ED2E9" transform="translate(211,179)"/>
<path d="M0 0 C1.31871094 -0.01417969 2.63742188 -0.02835938 3.99609375 -0.04296875 C7.2175867 0.16521097 8.90170999 0.46581234 11.5625 2.1875 C9.16190183 3.38779908 7.66889351 3.30209743 4.9921875 3.28515625 C4.09628906 3.28193359 3.20039063 3.27871094 2.27734375 3.27539062 C1.34019531 3.26701172 0.40304688 3.25863281 -0.5625 3.25 C-1.50738281 3.24548828 -2.45226562 3.24097656 -3.42578125 3.23632812 C-5.76308387 3.22452357 -8.10026061 3.20805759 -10.4375 3.1875 C-10.4375 2.5275 -10.4375 1.8675 -10.4375 1.1875 C-6.90252138 0.00917379 -3.67856929 0.00352691 0 0 Z " fill="#1A3143" transform="translate(249.4375,171.8125)"/>
<path d="M0 0 C0.33 0.66 0.66 1.32 1 2 C0.06421005 4.35981813 -0.93347808 6.69631264 -2 9 C-2.66 9 -3.32 9 -4 9 C-4.0825 9.70125 -4.165 10.4025 -4.25 11.125 C-5.18480138 14.70840529 -6.74402615 17.08050443 -9 20 C-9.99 20.33 -10.98 20.66 -12 21 C-10.72341628 17.53498703 -9.23378941 14.65160449 -7.125 11.625 C-4.53994938 7.84246269 -2.21717314 4.00796683 0 0 Z " fill="#46565F" transform="translate(402,232)"/>
<path d="M0 0 C0.33 0.66 0.66 1.32 1 2 C0.0625 4.625 0.0625 4.625 -1 7 C-0.38511719 6.97679687 0.22976563 6.95359375 0.86328125 6.9296875 C1.67152344 6.91164062 2.47976563 6.89359375 3.3125 6.875 C4.11300781 6.85179687 4.91351563 6.82859375 5.73828125 6.8046875 C8 7 8 7 11 9 C4.07 9 -2.86 9 -10 9 C-10 8.67 -10 8.34 -10 8 C-7.69 8 -5.38 8 -3 8 C-2.814375 6.8553125 -2.814375 6.8553125 -2.625 5.6875 C-2 3 -2 3 0 0 Z " fill="#7FA4BE" transform="translate(398,171)"/>
<path d="M0 0 C-1.09166436 1.6748823 -2.19873637 3.33973123 -3.3125 5 C-3.92738281 5.928125 -4.54226563 6.85625 -5.17578125 7.8125 C-5.77777344 8.534375 -6.37976563 9.25625 -7 10 C-7.99 10 -8.98 10 -10 10 C-7.72663449 2.74934182 -7.72663449 2.74934182 -5 -0.0625 C-3 -1 -3 -1 0 0 Z " fill="#5678AC" transform="translate(531,168)"/>
<path d="M0 0 C1.32 0.33 2.64 0.66 4 1 C2.35767739 3.00297785 0.71138756 5.00243908 -0.9375 7 C-1.40607422 7.57234375 -1.87464844 8.1446875 -2.35742188 8.734375 C-3.54934328 10.17497065 -4.77232588 11.58974871 -6 13 C-6.33 13 -6.66 13 -7 13 C-7.3077917 9.86162389 -7.27813784 8.40656372 -5.46875 5.76171875 C-4.8190625 5.07722656 -4.169375 4.39273438 -3.5 3.6875 C-2.8503125 2.99011719 -2.200625 2.29273438 -1.53125 1.57421875 C-1.0259375 1.05472656 -0.520625 0.53523437 0 0 Z " fill="#9DCFE5" transform="translate(219,165)"/>
<path d="M0 0 C0.93130333 3.10195648 1.02404919 5.7130692 0.875 8.9375 C0.80581272 13.20824208 1.46491919 15.47293105 4 19 C3.67 19.66 3.34 20.32 3 21 C2.34 19.68 1.68 18.36 1 17 C0.34 17 -0.32 17 -1 17 C-2.35550385 14.2889923 -2.16917207 12.08660831 -2.1875 9.0625 C-2.20167969 8.00160156 -2.21585938 6.94070313 -2.23046875 5.84765625 C-2 3 -2 3 0 0 Z " fill="#7799AB" transform="translate(228,299)"/>
<path d="M0 0 C0.78052734 -0.01224609 1.56105469 -0.02449219 2.36523438 -0.03710938 C4.39070035 -0.04235217 6.41572552 0.06515672 8.4375 0.1875 C9.0975 0.8475 9.7575 1.5075 10.4375 2.1875 C7.4375 3.1875 7.4375 3.1875 4.7109375 2.72265625 C1.01553627 2.11851548 -2.211303 2.30862478 -5.9375 2.625 C-7.80535156 2.77775391 -7.80535156 2.77775391 -9.7109375 2.93359375 C-10.65195312 3.01738281 -11.59296875 3.10117188 -12.5625 3.1875 C-10.33162353 -1.27425294 -4.36882471 0.00362558 0 0 Z " fill="#5876A9" transform="translate(560.5625,153.8125)"/>
<path d="M0 0 C10.28905216 -0.47548893 19.40436941 -0.31724595 29 4 C29.33 4.66 29.66 5.32 30 6 C27.54093963 5.52434234 25.08279007 5.04463948 22.625 4.5625 C21.92632813 4.42779297 21.22765625 4.29308594 20.5078125 4.15429688 C15.2265625 3.11328125 15.2265625 3.11328125 13 2 C10.795636 1.77049681 8.58607827 1.58924067 6.375 1.4375 C5.18648437 1.35371094 3.99796875 1.26992188 2.7734375 1.18359375 C1.40058594 1.09271484 1.40058594 1.09271484 0 1 C0 0.67 0 0.34 0 0 Z " fill="#A1A2A2" transform="translate(552,43)"/>
<path d="M0 0 C6.93 0 13.86 0 21 0 C26 9 26 9 26 12 C21.21750099 9.28991723 21.74214681 8.09751385 20 2 C13.4 1.67 6.8 1.34 0 1 C0 0.67 0 0.34 0 0 Z " fill="#28405F" transform="translate(499,213)"/>
<path d="M0 0 C0 0.66 0 1.32 0 2 C-0.99 2.33 -1.98 2.66 -3 3 C-3.39058594 3.68320313 -3.78117188 4.36640625 -4.18359375 5.0703125 C-6 7 -6 7 -9.72265625 7.2421875 C-11.17092974 7.14129952 -12.61778326 7.01806656 -14.0625 6.875 C-14.79533203 6.82601562 -15.52816406 6.77703125 -16.28320312 6.7265625 C-21.71213942 6.28786058 -21.71213942 6.28786058 -24 4 C-22.99839844 4.04640625 -21.99679687 4.0928125 -20.96484375 4.140625 C-13.24354344 4.38879234 -6.34454374 0 0 0 Z " fill="#779FCC" transform="translate(575,214)"/>
<path d="M0 0 C0.99 0.33 1.98 0.66 3 1 C3.33 1.99 3.66 2.98 4 4 C4.66 4 5.32 4 6 4 C6.268125 5.134375 6.53625 6.26875 6.8125 7.4375 C7.4003125 9.2009375 7.4003125 9.2009375 8 11 C8.99 11.33 9.98 11.66 11 12 C10.67 12.99 10.34 13.98 10 15 C5.38496316 11.83540331 2.41530347 8.00533102 0 3 C0 2.01 0 1.02 0 0 Z " fill="#5677A7" transform="translate(521,214)"/>
<path d="M0 0 C-0.33 0.33 -0.66 0.66 -1 1 C-0.34 1.66 0.32 2.32 1 3 C-1.29109597 3.08075665 -3.58299267 3.13907731 -5.875 3.1875 C-7.78925781 3.23970703 -7.78925781 3.23970703 -9.7421875 3.29296875 C-10.81726563 3.19628906 -11.89234375 3.09960938 -13 3 C-13.66 2.01 -14.32 1.02 -15 0 C-13.14375 0.0309375 -13.14375 0.0309375 -11.25 0.0625 C-7.17095853 0.07688815 -3.86618566 -1.28872855 0 0 Z " fill="#182A3C" transform="translate(256,214)"/>
<path d="M0 0 C0.99 0 1.98 0 3 0 C1.59928507 5.29158974 -1.85487245 7.77478044 -6 11 C-6.66 10.67 -7.32 10.34 -8 10 C-6.74054645 8.32471737 -5.46706318 6.65997386 -4.1875 5 C-3.47980469 4.071875 -2.77210938 3.14375 -2.04296875 2.1875 C-1.36878906 1.465625 -0.69460938 0.74375 0 0 Z " fill="#89B8D1" transform="translate(270,205)"/>
<path d="M0 0 C1.8253125 0.7115625 1.8253125 0.7115625 3.6875 1.4375 C9.67570019 3.46545278 15.72374026 3.71868388 22 4 C21.67 4.66 21.34 5.32 21 6 C6.21867882 5.40546697 6.21867882 5.40546697 0 2 C0 1.34 0 0.68 0 0 Z " fill="#547DB1" transform="translate(544,216)"/>
<path d="M0 0 C0.99 0 1.98 0 3 0 C2.43040847 3.62613199 1.07625466 5.25517741 -1.5625 7.75 C-2.52349609 8.67039063 -2.52349609 8.67039063 -3.50390625 9.609375 C-4.24447266 10.29773438 -4.24447266 10.29773438 -5 11 C-5.99 10.34 -6.98 9.68 -8 9 C-6.68 8.67 -5.36 8.34 -4 8 C-3.896875 7.4225 -3.79375 6.845 -3.6875 6.25 C-2.88350079 3.61872985 -1.86932485 2.01311907 0 0 Z " fill="#5780B1" transform="translate(579,208)"/>
<path d="M0 0 C1 2 1 2 0.3125 4.9375 C-1.06192878 8.14450048 -2.06205603 9.23723362 -5 11 C-5.99 10.34 -6.98 9.68 -8 9 C-5.36 6.03 -2.72 3.06 0 0 Z " fill="#0D1E2A" transform="translate(285,219)"/>
<path d="M0 0 C1.17369141 0.03867188 1.17369141 0.03867188 2.37109375 0.078125 C3.54865234 0.10132813 3.54865234 0.10132813 4.75 0.125 C6.80859375 0.328125 6.80859375 0.328125 8.80859375 1.328125 C8.80859375 1.988125 8.80859375 2.648125 8.80859375 3.328125 C4.18859375 3.328125 -0.43140625 3.328125 -5.19140625 3.328125 C-2.19140625 0.328125 -2.19140625 0.328125 0 0 Z " fill="#0D172B" transform="translate(557.19140625,149.671875)"/>
<path d="M0 0 C0 3.40682167 -0.88768671 5.79392053 -2 9 C-2.34976758 10.32911682 -2.69096017 11.66082739 -3 13 C-3.66 13 -4.32 13 -5 13 C-5 16.3 -5 19.6 -5 23 C-5.33 23 -5.66 23 -6 23 C-6.47975654 15.12399677 -6.20510753 8.84481006 -2 2 C-1.34 1.34 -0.68 0.68 0 0 Z " fill="#676D71" transform="translate(374,118)"/>
<path d="M0 0 C0.33 0.66 0.66 1.32 1 2 C-0.28062485 3.7074998 -1.61767557 5.37373596 -3 7 C-3.66 7 -4.32 7 -5 7 C-5.226875 7.639375 -5.45375 8.27875 -5.6875 8.9375 C-7 11 -7 11 -9.625 11.75 C-10.40875 11.8325 -11.1925 11.915 -12 12 C-8.39424999 7.41086363 -4.52615993 3.67832017 0 0 Z " fill="#2F3F4A" transform="translate(365,283)"/>
<path d="M0 0 C0.66 0.33 1.32 0.66 2 1 C-1.35033994 5.42723493 -3.69266121 8.5119091 -9.25 9.6875 C-10.1575 9.790625 -11.065 9.89375 -12 10 C-8.40945767 6.11024581 -4.26101118 3.10267805 0 0 Z " fill="#90A7B6" transform="translate(325,269)"/>
<path d="M0 0 C0.33 0.99 0.66 1.98 1 3 C0.09972412 4.03531726 -0.82093035 5.05294165 -1.75 6.0625 C-2.51570313 6.91521484 -2.51570313 6.91521484 -3.296875 7.78515625 C-5 9 -5 9 -7.203125 8.68359375 C-7.79609375 8.45800781 -8.3890625 8.23242188 -9 8 C-7.71034824 6.62437146 -6.37310707 5.29233607 -5 4 C-4.34 4 -3.68 4 -3 4 C-3 3.34 -3 2.68 -3 2 C-2.01 1.34 -1.02 0.68 0 0 Z " fill="#9CB9C8" transform="translate(372,292)"/>
<path d="M0 0 C1.9375 0.625 1.9375 0.625 4 2 C4.75 5.125 4.75 5.125 5 8 C5.66 8 6.32 8 7 8 C7 10.64 7 13.28 7 16 C4.6849061 13.6849061 4.35239006 12.24734186 3.5 9.125 C2.60544597 5.86765652 1.60597991 2.97660069 0 0 Z " fill="#051024" transform="translate(597,173)"/>
<path d="M0 0 C0.99 0 1.98 0 3 0 C1.50079488 3.11373372 -0.08152136 6.12228205 -2 9 C-2.66 9 -3.32 9 -4 9 C-4.33 9.66 -4.66 10.32 -5 11 C-4.55074862 6.17054764 -3.45263456 3.45263456 0 0 Z " fill="#92C6DD" transform="translate(233,174)"/>
<path d="M0 0 C2.94897721 2.74559948 5.26205705 5.34117274 7 9 C6.6875 11.3125 6.6875 11.3125 6 13 C6 12.34 6 11.68 6 11 C5.34 11 4.68 11 4 11 C1.6870518 8.6870518 1.50419025 7.52095125 0.875 4.375 C0.70742188 3.55773437 0.53984375 2.74046875 0.3671875 1.8984375 C0.24601563 1.27195313 0.12484375 0.64546875 0 0 Z " fill="#384F78" transform="translate(594,170)"/>
<path d="M0 0 C10.52971846 2.15641293 10.52971846 2.15641293 14 4 C14.33 4.99 14.66 5.98 15 7 C11.00465792 6.42923685 8.411827 5.09958585 5 3 C4.2575 2.814375 3.515 2.62875 2.75 2.4375 C2.1725 2.293125 1.595 2.14875 1 2 C0.67 1.34 0.34 0.68 0 0 Z " fill="#91C1D9" transform="translate(260,153)"/>
<path d="M0 0 C0.66 0 1.32 0 2 0 C1.52797514 4.24822374 -0.96655518 6.19989709 -4 9 C-4.99 8.67 -5.98 8.34 -7 8 C-5.88200014 6.66079162 -4.75538103 5.32877444 -3.625 4 C-2.68527344 2.88625 -2.68527344 2.88625 -1.7265625 1.75 C-1.15679687 1.1725 -0.58703125 0.595 0 0 Z " fill="#BFC2C4" transform="translate(355,87)"/>
<path d="M0 0 C2.77982621 1.3899131 2.87463341 3.18658353 4 6 C4.66 6.33 5.32 6.66 6 7 C6 8.32 6 9.64 6 11 C6.66 11 7.32 11 8 11 C8 11.66 8 12.32 8 13 C6.140625 12.7734375 6.140625 12.7734375 4 12 C2.734375 10.0390625 2.734375 10.0390625 1.75 7.625 C1.41484375 6.83351562 1.0796875 6.04203125 0.734375 5.2265625 C0 3 0 3 0 0 Z " fill="#95C5DB" transform="translate(210,207)"/>
<path d="M0 0 C0 3.71253164 -0.783548 5.04473066 -3 8 C-6.25171122 9.96457553 -8.18692647 11 -12 11 C-8.04 7.37 -4.08 3.74 0 0 Z " fill="#94A9B6" transform="translate(339,257)"/>
<path d="M0 0 C0.99 0.433125 1.98 0.86625 3 1.3125 C6.95307347 3.01013892 10.96344423 4.51284787 15 6 C11.57056481 7.18771723 9.62215325 6.80226223 6.25 5.5625 C5.45078125 5.27503906 4.6515625 4.98757812 3.828125 4.69140625 C2.92320312 4.34916016 2.92320312 4.34916016 2 4 C2 3.34 2 2.68 2 2 C1.34 2 0.68 2 0 2 C0 1.34 0 0.68 0 0 Z " fill="#253E4D" transform="translate(225,230)"/>
<path d="M0 0 C0 0.66 0 1.32 0 2 C-3.65079826 3.61064629 -7.0507432 4.44894091 -11 5 C-4.83050847 -1.61016949 -4.83050847 -1.61016949 0 0 Z " fill="#172935" transform="translate(283,340)"/>
<path d="M0 0 C1.32 0.33 2.64 0.66 4 1 C1.69 3.64 -0.62 6.28 -3 9 C-3.33 7.68 -3.66 6.36 -4 5 C-2.0625 2.25 -2.0625 2.25 0 0 Z " fill="#13222A" transform="translate(219,272)"/>
<path d="M0 0 C1 2 1 2 0.4375 4.375 C-1.41741462 7.76223539 -3.71164126 9.06987639 -7 11 C-5.22054913 6.95579349 -2.60470327 3.53921513 0 0 Z " fill="#ADB3B9" transform="translate(427,127)"/>
<path d="M0 0 C-2.48952921 2.66735273 -4.63408134 4.55746343 -8 6 C-8.33 4.68 -8.66 3.36 -9 2 C-5.5647952 -0.29013653 -4.014669 -0.17842973 0 0 Z " fill="#121C27" transform="translate(320,273)"/>
<path d="M0 0 C1.98 0 3.96 0 6 0 C5.278125 0.556875 4.55625 1.11375 3.8125 1.6875 C1.02542701 3.97909334 -1.48641528 6.41459857 -4 9 C-3.67 7.35 -3.34 5.7 -3 4 C-2.01 3.67 -1.02 3.34 0 3 C0 2.01 0 1.02 0 0 Z " fill="#06101C" transform="translate(289,215)"/>
<path d="M0 0 C0 3.44360632 -0.79591532 4.74795392 -2.5 7.6875 C-2.9640625 8.49574219 -3.428125 9.30398437 -3.90625 10.13671875 C-4.44765625 11.05904297 -4.44765625 11.05904297 -5 12 C-5.66 12 -6.32 12 -7 12 C-6.60304363 10.37007308 -6.18167507 8.74607765 -5.75 7.125 C-5.51796875 6.22007812 -5.2859375 5.31515625 -5.046875 4.3828125 C-4 2 -4 2 -1.890625 0.6796875 C-1.26671875 0.45539063 -0.6428125 0.23109375 0 0 Z " fill="#828B91" transform="translate(444,163)"/>
<path d="M0 0 C0 0.99 0 1.98 0 3 C-1.45264038 3.8638129 -2.9123163 4.71580454 -4.375 5.5625 C-5.59316406 6.27599609 -5.59316406 6.27599609 -6.8359375 7.00390625 C-7.55007813 7.33261719 -8.26421875 7.66132813 -9 8 C-9.66 7.67 -10.32 7.34 -11 7 C-9.54261898 6.01941648 -8.08406325 5.04057868 -6.625 4.0625 C-5.81289063 3.51722656 -5.00078125 2.97195313 -4.1640625 2.41015625 C-2 1 -2 1 0 0 Z " fill="#698191" transform="translate(347,312)"/>
<path d="M0 0 C0.66 0 1.32 0 2 0 C1.5359375 1.423125 1.5359375 1.423125 1.0625 2.875 C-0.27928271 7.50938425 -0.63342007 12.20552041 -1 17 C-1.33 17 -1.66 17 -2 17 C-2.05441656 15.10448978 -2.09298035 13.2085208 -2.125 11.3125 C-2.14820313 10.25675781 -2.17140625 9.20101562 -2.1953125 8.11328125 C-1.99858729 4.97748141 -1.33057654 2.82354627 0 0 Z " fill="#375A6D" transform="translate(229,183)"/>
<path d="M0 0 C-1.49097658 3.7952131 -3.75700849 5.61042731 -7 8 C-7 5 -7 5 -4.625 2.3125 C-2 0 -2 0 0 0 Z " fill="#1D3845" transform="translate(239,175)"/>
<path d="M0 0 C1.32 0 2.64 0 4 0 C4 0.66 4 1.32 4 2 C5.98 2.66 7.96 3.32 10 4 C9.67 5.32 9.34 6.64 9 8 C8.401875 7.360625 7.80375 6.72125 7.1875 6.0625 C5.09189663 3.79689611 5.09189663 3.79689611 2 3 C2 2.34 2 1.68 2 1 C1.34 0.67 0.68 0.34 0 0 Z " fill="#101D36" transform="translate(580,157)"/>
<path d="M0 0 C4.05606165 0.46800711 7.46588679 0.87953208 11 3 C11 3.66 11 4.32 11 5 C6.87248551 4.39301257 3.6678852 2.96189209 0 1 C0 0.67 0 0.34 0 0 Z " fill="#486390" transform="translate(571,155)"/>
<path d="M0 0 C0.66 0.33 1.32 0.66 2 1 C-1.0657052 5.65987191 -3.58657319 6.85485202 -9 8 C-6.14723863 5.06799526 -3.34920216 2.35684596 0 0 Z " fill="#425967" transform="translate(342,302)"/>
<path d="M0 0 C-4.55426184 2.66590937 -7.73946963 3.31563182 -13 3 C-4.20833333 -1.55864198 -4.20833333 -1.55864198 0 0 Z " fill="#050D1B" transform="translate(583,238)"/>
<path d="M0 0 C0.99 0.495 0.99 0.495 2 1 C2 1.99 2 2.98 2 4 C2.66 4 3.32 4 4 4 C4 4.66 4 5.32 4 6 C4.66 6 5.32 6 6 6 C6 7.65 6 9.3 6 11 C1.9957657 7.50912907 0.37328935 5.35048061 0 0 Z " fill="#1A3243" transform="translate(228,199)"/>
<path d="M0 0 C0.99 0.495 0.99 0.495 2 1 C2 1.66 2 2.32 2 3 C2.66 3 3.32 3 4 3 C4 3.66 4 4.32 4 5 C4.66 5.33 5.32 5.66 6 6 C5.67 7.32 5.34 8.64 5 10 C0 4.5 0 4.5 0 0 Z " fill="#6A7377" transform="translate(371,150)"/>
<path d="M0 0 C-0.3125 1.875 -0.3125 1.875 -1 4 C-4 6 -4 6 -6.1875 5.625 C-6.785625 5.41875 -7.38375 5.2125 -8 5 C-2.25 0 -2.25 0 0 0 Z " fill="#95B6C6" transform="translate(357,306)"/>
<path d="M0 0 C0.53625 0.268125 1.0725 0.53625 1.625 0.8125 C1.00625 0.895 0.3875 0.9775 -0.25 1.0625 C-2.55937567 1.62508459 -2.55937567 1.62508459 -3.625 3.875 C-3.8725 4.514375 -4.12 5.15375 -4.375 5.8125 C-5.695 5.4825 -7.015 5.1525 -8.375 4.8125 C-2.95961538 -0.23365385 -2.95961538 -0.23365385 0 0 Z " fill="#425965" transform="translate(242.375,285.1875)"/>
<path d="M0 0 C0.33 0.66 0.66 1.32 1 2 C1.66 2 2.32 2 3 2 C3 4.64 3 7.28 3 10 C2.01 9.67 1.02 9.34 0 9 C0 6.03 0 3.06 0 0 Z " fill="#465F90" transform="translate(599,181)"/>
<path d="M0 0 C7.625 0.875 7.625 0.875 11 2 C11 2.66 11 3.32 11 4 C11.66 4.33 12.32 4.66 13 5 C8.15340923 4.40895235 4.39251833 3.02055843 0 1 C0 0.67 0 0.34 0 0 Z " fill="#98D0EA" transform="translate(252,169)"/>
<path d="M0 0 C0.99 0.33 1.98 0.66 3 1 C0.03 4.96 0.03 4.96 -3 9 C-3.33 7.68 -3.66 6.36 -4 5 C-2.0625 2.25 -2.0625 2.25 0 0 Z " fill="#091629" transform="translate(525,165)"/>
<path d="M0 0 C-6.2 4.13333333 -6.2 4.13333333 -9.25 3.625 C-9.8275 3.41875 -10.405 3.2125 -11 3 C-8.21756596 -1.17365106 -4.53441502 -0.22300402 0 0 Z " fill="#16253E" transform="translate(551,153)"/>
<path d="M0 0 C0.99 0.33 1.98 0.66 3 1 C0.45394698 3.00047023 -1.9664636 4.82572785 -5 6 C-5.99 5.67 -6.98 5.34 -8 5 C-7.34 5 -6.68 5 -6 5 C-5.67 4.01 -5.34 3.02 -5 2 C-3.35 2 -1.7 2 0 2 C0 1.34 0 0.68 0 0 Z " fill="#91BED2" transform="translate(271,342)"/>
<path d="M0 0 C3 3 3 3 3.07421875 5.48046875 C2.94660156 6.37378906 2.81898438 7.26710937 2.6875 8.1875 C2.56761719 9.08855469 2.44773437 9.98960937 2.32421875 10.91796875 C2.21722656 11.60503906 2.11023438 12.29210937 2 13 C1.67 13 1.34 13 1 13 C0.67 8.71 0.34 4.42 0 0 Z " fill="#4E74AA" transform="translate(583,188)"/>
<path d="M0 0 C0.33 1.32 0.66 2.64 1 4 C0.01 4.33 -0.98 4.66 -2 5 C-2.33 6.65 -2.66 8.3 -3 10 C-3.66 10 -4.32 10 -5 10 C-3.84414715 6.08788267 -2.64465038 3.1254959 0 0 Z " fill="#8C979D" transform="translate(404,161)"/>
<path d="M0 0 C0 3.94042779 -1.46184088 5.08858219 -4 8 C-4.66 8.66 -5.32 9.32 -6 10 C-6.375 7.8125 -6.375 7.8125 -6 5 C-4.16038352 3.00977164 -2.20813852 1.61010101 0 0 Z " fill="#2D4857" transform="translate(216,167)"/>
<path d="M0 0 C1.37562854 1.28965176 2.70766393 2.62689293 4 4 C4 4.66 4 5.32 4 6 C1.36 6 -1.28 6 -4 6 C-1 4 -1 4 1 4 C0.67 2.68 0.34 1.36 0 0 Z " fill="#9AA5AA" transform="translate(377,160)"/>
<path d="M0 0 C0.66 0.33 1.32 0.66 2 1 C-0.20927127 4.48832306 -2.08597051 5.73058503 -6 7 C-4.60667426 3.63279613 -3.0210714 2.0140476 0 0 Z " fill="#435F87" transform="translate(532,162)"/>
<path d="M0 0 C0.33 1.32 0.66 2.64 1 4 C-2.465 5.485 -2.465 5.485 -6 7 C-4.77065985 3.31197956 -3.06140622 2.27643027 0 0 Z " fill="#779FB1" transform="translate(223,160)"/>
<path d="M0 0 C0.66 0.33 1.32 0.66 2 1 C-0.46153846 5.8 -0.46153846 5.8 -3.1875 6.8125 C-3.785625 6.874375 -4.38375 6.93625 -5 7 C-4.67 6.01 -4.34 5.02 -4 4 C-3.34 4 -2.68 4 -2 4 C-1.34 2.68 -0.68 1.36 0 0 Z " fill="#505457" transform="translate(380,111)"/>
<path d="M0 0 C0.66 0.33 1.32 0.66 2 1 C1.01 2.485 1.01 2.485 0 4 C-3.625 4.6875 -3.625 4.6875 -7 5 C-4.63707344 2.47411298 -3.33537489 1.11179163 0 0 Z " fill="#474B4D" transform="translate(473,73)"/>
<path d="M0 0 C0.66 0.33 1.32 0.66 2 1 C-2 7.57142857 -2 7.57142857 -6 9 C-4.47291037 5.56404834 -2.40072955 2.88087546 0 0 Z " fill="#A9AAAC" transform="translate(529,54)"/>
<path d="M0 0 C2.63526912 5.17333569 2.63526912 5.17333569 3 8 C2.34 8.99 1.68 9.98 1 11 C0 10 0 10 -0.09765625 7.71484375 C-0.08605469 6.79832031 -0.07445312 5.88179688 -0.0625 4.9375 C-0.05347656 4.01839844 -0.04445313 3.09929687 -0.03515625 2.15234375 C-0.02355469 1.44207031 -0.01195312 0.73179687 0 0 Z " fill="#AED1E0" transform="translate(273,304)"/>
<path d="M0 0 C0.66 0 1.32 0 2 0 C0.52307692 4.67692308 0.52307692 4.67692308 -2.125 6.3125 C-3.053125 6.6528125 -3.053125 6.6528125 -4 7 C-2.92598892 4.08482708 -2.22189824 2.22189824 0 0 Z " fill="#34434C" transform="translate(394,246)"/>
<path d="M0 0 C0.75 1.75 0.75 1.75 1 4 C-0.9375 6.25 -0.9375 6.25 -3 8 C-3.99 7.67 -4.98 7.34 -6 7 C-5.071875 6.1028125 -5.071875 6.1028125 -4.125 5.1875 C-1.86323046 2.99188856 -1.86323046 2.99188856 0 0 Z " fill="#121C36" transform="translate(594,222)"/>
<path d="M0 0 C0 3.19219704 -0.23605791 4.39608549 -2 7 C-4.625 8.25 -4.625 8.25 -7 9 C-6.02180976 7.68677212 -5.0424189 6.37443848 -4.0625 5.0625 C-3.51722656 4.33160156 -2.97195313 3.60070312 -2.41015625 2.84765625 C-1 1 -1 1 0 0 Z " fill="#B1B5B8" transform="translate(579,97)"/>
<path d="M0 0 C4.95 0.99 4.95 0.99 10 2 C9.67 2.66 9.34 3.32 9 4 C4.545 3.01 4.545 3.01 0 2 C0 1.34 0 0.68 0 0 Z " fill="#A3D0E3" transform="translate(231,344)"/>
<path d="M0 0 C1.98 0.99 1.98 0.99 4 2 C4 3.98 4 5.96 4 8 C1.10067643 5.60490662 0.49831724 3.68754757 0 0 Z " fill="#92B4C3" transform="translate(208,318)"/>
<path d="M0 0 C0.33 0.66 0.66 1.32 1 2 C3.02463255 2.65213292 3.02463255 2.65213292 5 3 C5 3.99 5 4.98 5 6 C3.125 5.75 3.125 5.75 1 5 C-0.25 2.9375 -0.25 2.9375 -1 1 C-0.67 0.67 -0.34 0.34 0 0 Z " fill="#95C8E3" transform="translate(224,225)"/>
<path d="M0 0 C0.33 0.66 0.66 1.32 1 2 C-0.4375 4.625 -0.4375 4.625 -2 7 C-2.99 6.67 -3.98 6.34 -5 6 C-3.35 4.02 -1.7 2.04 0 0 Z " fill="#284255" transform="translate(285,219)"/>
<path d="M0 0 C2.64 0 5.28 0 8 0 C7.67 0.99 7.34 1.98 7 3 C2.25 2.25 2.25 2.25 0 0 Z " fill="#678ABB" transform="translate(565,173)"/>
</svg>
