<svg xmlns="http://www.w3.org/2000/svg" xmlns:xlink="http://www.w3.org/1999/xlink" version="1.1" width="256" height="256" viewBox="0 0 256 256" xml:space="preserve">
<g style="stroke: none; stroke-width: 0; stroke-dasharray: none; stroke-linecap: butt; stroke-linejoin: miter; stroke-miterlimit: 10; fill: none; fill-rule: nonzero; opacity: 1;" transform="translate(1.4065934065934016 1.4065934065934016) scale(2.81 2.81)">
	<path d="M 25.664 37.059 c -0.275 -0.135 -0.393 0.122 -0.554 0.252 c -0.055 0.042 -0.101 0.097 -0.148 0.147 c -0.402 0.429 -0.871 0.711 -1.484 0.677 c -0.896 -0.051 -1.661 0.231 -2.337 0.917 c -0.144 -0.845 -0.621 -1.35 -1.348 -1.673 c -0.38 -0.168 -0.765 -0.336 -1.031 -0.702 c -0.186 -0.261 -0.237 -0.551 -0.33 -0.837 c -0.059 -0.172 -0.118 -0.349 -0.317 -0.378 c -0.216 -0.034 -0.3 0.147 -0.385 0.299 c -0.338 0.618 -0.469 1.299 -0.456 1.989 c 0.03 1.552 0.685 2.788 1.987 3.666 c 0.148 0.101 0.186 0.202 0.14 0.349 c -0.089 0.303 -0.194 0.597 -0.287 0.9 c -0.059 0.193 -0.148 0.235 -0.355 0.151 c -0.714 -0.298 -1.331 -0.74 -1.877 -1.274 c -0.926 -0.896 -1.763 -1.884 -2.807 -2.657 c -0.245 -0.181 -0.49 -0.349 -0.744 -0.509 c -1.065 -1.034 0.14 -1.884 0.418 -1.985 c 0.292 -0.105 0.101 -0.467 -0.841 -0.463 c -0.943 0.004 -1.805 0.32 -2.904 0.74 c -0.161 0.063 -0.33 0.109 -0.503 0.147 c -0.997 -0.189 -2.033 -0.231 -3.115 -0.109 c -2.037 0.227 -3.665 1.19 -4.861 2.834 c -1.437 1.976 -1.775 4.221 -1.361 6.563 c 0.435 2.468 1.695 4.512 3.631 6.109 c 2.008 1.657 4.32 2.468 6.957 2.312 c 1.602 -0.092 3.386 -0.307 5.398 -2.01 c 0.507 0.252 1.04 0.353 1.923 0.429 c 0.68 0.063 1.336 -0.034 1.843 -0.139 c 0.795 -0.168 0.74 -0.904 0.452 -1.039 c -2.329 -1.085 -1.818 -0.643 -2.282 -1.001 c 1.183 -1.4 2.967 -2.855 3.665 -7.568 c 0.055 -0.374 0.008 -0.61 0 -0.912 C 21.746 42.1 21.789 42.028 22 42.007 c 0.583 -0.067 1.15 -0.227 1.67 -0.513 c 1.509 -0.824 2.118 -2.178 2.261 -3.801 C 25.952 37.445 25.927 37.189 25.664 37.059 z M 12.515 51.665 L 12.515 51.665 c -2.257 -1.774 -3.352 -2.359 -3.804 -2.334 c -0.423 0.025 -0.347 0.509 -0.254 0.824 c 0.097 0.311 0.224 0.526 0.402 0.799 c 0.123 0.181 0.207 0.45 -0.122 0.652 c -0.727 0.45 -1.991 -0.151 -2.05 -0.181 c -1.471 -0.866 -2.701 -2.01 -3.567 -3.574 c -0.837 -1.505 -1.323 -3.12 -1.403 -4.844 c -0.021 -0.416 0.101 -0.563 0.516 -0.639 c 0.545 -0.101 1.107 -0.122 1.653 -0.042 c 2.304 0.336 4.265 1.367 5.909 2.998 c 0.938 0.929 1.648 2.039 2.38 3.124 c 0.778 1.152 1.615 2.25 2.68 3.149 c 0.376 0.315 0.676 0.555 0.964 0.732 C 14.95 52.426 13.504 52.448 12.515 51.665 z M 13.597 44.707 c 0 -0.185 0.148 -0.332 0.334 -0.332 c 0.042 0 0.08 0.008 0.114 0.021 c 0.047 0.017 0.089 0.042 0.123 0.08 c 0.059 0.059 0.093 0.143 0.093 0.231 c 0 0.185 -0.148 0.332 -0.334 0.332 C 13.741 45.039 13.597 44.892 13.597 44.707 L 13.597 44.707 z M 16.957 46.431 L 16.957 46.431 c -0.216 0.088 -0.431 0.164 -0.638 0.172 c -0.321 0.017 -0.672 -0.114 -0.862 -0.273 c -0.296 -0.248 -0.507 -0.387 -0.596 -0.82 c -0.038 -0.185 -0.017 -0.471 0.017 -0.635 c 0.076 -0.353 -0.008 -0.58 -0.258 -0.786 c -0.203 -0.168 -0.461 -0.214 -0.744 -0.214 c -0.106 0 -0.203 -0.046 -0.275 -0.084 c -0.118 -0.059 -0.216 -0.206 -0.123 -0.387 c 0.03 -0.059 0.173 -0.202 0.207 -0.227 c 0.385 -0.219 0.828 -0.147 1.238 0.017 c 0.38 0.156 0.668 0.441 1.082 0.845 c 0.423 0.488 0.499 0.622 0.74 0.988 c 0.19 0.286 0.364 0.58 0.482 0.917 C 17.3 46.153 17.207 46.326 16.957 46.431 z" style="stroke: none; stroke-width: 1; stroke-dasharray: none; stroke-linecap: butt; stroke-linejoin: miter; stroke-miterlimit: 10; fill: rgb(77,107,254); fill-rule: nonzero; opacity: 1;" transform=" matrix(1 0 0 1 0 0) " stroke-linecap="round"/>
	<path d="M 33.16 46.125 c 0 0.605 -0.131 1.213 -0.496 1.609 c -0.365 0.396 -0.924 0.54 -1.48 0.54 c -0.557 0 -1.116 -0.143 -1.48 -0.54 c -0.365 -0.396 -0.496 -1.004 -0.496 -1.609 c 0 -0.603 0.131 -1.213 0.496 -1.609 c 0.365 -0.396 0.924 -0.537 1.48 -0.537 h 0.894 V 42.55 h -0.894 c -0.926 0 -1.857 0.236 -2.465 0.897 c -0.608 0.661 -0.824 1.672 -0.824 2.679 c 0 1.006 0.216 2.02 0.824 2.681 c 0.608 0.661 1.539 0.897 2.465 0.897 c 0.598 0 1.198 -0.134 1.592 -0.501 c 0.034 -0.032 0.066 -0.066 0.095 -0.1 h 0.289 v 0.6 h 1.573 V 40.25 H 33.16 V 46.125 z" style="stroke: none; stroke-width: 1; stroke-dasharray: none; stroke-linecap: butt; stroke-linejoin: miter; stroke-miterlimit: 10; fill: rgb(77,107,254); fill-rule: nonzero; opacity: 1;" transform=" matrix(1 0 0 1 0 0) " stroke-linecap="round"/>
	<path d="M 39.207 42.299 L 39.207 42.299 c -0.963 0 -1.93 0.245 -2.562 0.929 c -0.63 0.683 -0.856 1.731 -0.856 2.773 c 0 1.04 0.226 2.09 0.856 2.773 c 0.632 0.683 1.599 0.929 2.562 0.929 c 0.963 0 1.93 -0.246 2.562 -0.929 c 0.323 -0.352 0.542 -0.8 0.678 -1.296 h -1.556 c -0.044 0.066 -0.092 0.129 -0.146 0.187 c -0.379 0.411 -0.96 0.557 -1.539 0.557 c -0.576 0 -1.157 -0.146 -1.536 -0.557 c -0.379 -0.411 -0.515 -1.04 -0.515 -1.665 c 0 -0.625 0.136 -1.254 0.515 -1.665 c 0.379 -0.411 0.96 -0.557 1.536 -0.557 c 0.579 0 1.159 0.146 1.539 0.557 c 0.263 0.284 0.408 0.671 0.474 1.091 h -2.781 v 1.147 h 4.188 v -0.574 c 0 -1.043 -0.226 -2.09 -0.858 -2.773 C 41.14 42.545 40.17 42.299 39.207 42.299 z" style="stroke: none; stroke-width: 1; stroke-dasharray: none; stroke-linecap: butt; stroke-linejoin: miter; stroke-miterlimit: 10; fill: rgb(77,107,254); fill-rule: nonzero; opacity: 1;" transform=" matrix(1 0 0 1 0 0) " stroke-linecap="round"/>
	<path d="M 65.454 45.88 L 65.454 45.88 c -0.63 -0.404 -1.599 -0.547 -2.56 -0.547 h 0.034 c -0.411 0 -0.824 -0.056 -1.094 -0.214 c -0.27 -0.156 -0.365 -0.396 -0.365 -0.634 s 0.095 -0.479 0.365 -0.634 c 0.27 -0.158 0.683 -0.214 1.094 -0.214 c 0.411 0 0.824 0.058 1.091 0.214 c 0.27 0.156 0.367 0.396 0.367 0.634 h 1.602 c 0 -0.615 -0.207 -1.232 -0.778 -1.636 c -0.571 -0.404 -1.446 -0.549 -2.317 -0.549 s -1.745 0.146 -2.317 0.549 s -0.775 1.021 -0.775 1.636 c 0 0.615 0.204 1.235 0.775 1.636 c 0.571 0.404 1.446 0.549 2.317 0.549 c 0.452 0 0.948 0.056 1.245 0.211 c 0.299 0.158 0.406 0.399 0.406 0.637 c 0 0.238 -0.107 0.479 -0.406 0.634 c -0.297 0.156 -0.753 0.211 -1.208 0.211 c -0.452 0 -0.909 -0.056 -1.208 -0.211 c -0.297 -0.158 -0.404 -0.396 -0.404 -0.634 h -1.845 c 0 0.613 0.226 1.232 0.858 1.636 c 0.632 0.404 1.599 0.547 2.562 0.547 c 0.96 0 1.93 -0.143 2.56 -0.547 c 0.632 -0.404 0.858 -1.023 0.858 -1.636 C 66.312 46.903 66.086 46.283 65.454 45.88 z" style="stroke: none; stroke-width: 1; stroke-dasharray: none; stroke-linecap: butt; stroke-linejoin: miter; stroke-miterlimit: 10; fill: rgb(77,107,254); fill-rule: nonzero; opacity: 1;" transform=" matrix(1 0 0 1 0 0) " stroke-linecap="round"/>
	<rect x="83.16" y="39.92" rx="0" ry="0" width="1.57" height="9.78" style="stroke: none; stroke-width: 1; stroke-dasharray: none; stroke-linecap: butt; stroke-linejoin: miter; stroke-miterlimit: 10; fill: rgb(77,107,254); fill-rule: nonzero; opacity: 1;" transform=" matrix(1 0 0 1 0 0) "/>
	<path d="M 78.685 42.299 L 78.685 42.299 c -0.963 0 -1.93 0.245 -2.562 0.929 c -0.63 0.683 -0.858 1.731 -0.858 2.773 c 0 1.04 0.228 2.09 0.858 2.773 c 0.632 0.683 1.599 0.929 2.562 0.929 c 0.963 0 1.93 -0.246 2.562 -0.929 c 0.323 -0.352 0.542 -0.8 0.678 -1.296 h -1.556 c -0.044 0.066 -0.092 0.129 -0.146 0.187 c -0.379 0.411 -0.96 0.557 -1.539 0.557 c -0.576 0 -1.159 -0.146 -1.536 -0.557 c -0.379 -0.411 -0.515 -1.04 -0.515 -1.665 c 0 -0.625 0.136 -1.254 0.515 -1.665 c 0.377 -0.411 0.96 -0.557 1.536 -0.557 c 0.579 0 1.159 0.146 1.539 0.557 c 0.263 0.284 0.408 0.671 0.474 1.091 h -2.781 v 1.147 h 4.188 v -0.574 c 0 -1.043 -0.226 -2.09 -0.858 -2.773 C 80.615 42.545 79.648 42.299 78.685 42.299 z" style="stroke: none; stroke-width: 1; stroke-dasharray: none; stroke-linecap: butt; stroke-linejoin: miter; stroke-miterlimit: 10; fill: rgb(77,107,254); fill-rule: nonzero; opacity: 1;" transform=" matrix(1 0 0 1 0 0) " stroke-linecap="round"/>
	<polygon points="90,42.63 88.05,42.63 85.47,45.78 88.05,49.7 90,49.7 87.42,45.78 " style="stroke: none; stroke-width: 1; stroke-dasharray: none; stroke-linecap: butt; stroke-linejoin: miter; stroke-miterlimit: 10; fill: rgb(77,107,254); fill-rule: nonzero; opacity: 1;" transform="  matrix(1 0 0 1 0 0) "/>
	<path d="M 55.129 42.299 c -0.598 0 -1.201 0.131 -1.592 0.501 c -0.034 0.032 -0.066 0.066 -0.097 0.1 h -0.287 v -0.6 H 51.58 v 9.451 h 1.573 v -5.873 c 0 -0.605 0.131 -1.213 0.496 -1.609 c 0.365 -0.399 0.924 -0.54 1.48 -0.54 c 0.554 0 1.116 0.141 1.48 0.54 c 0.365 0.396 0.496 1.004 0.496 1.609 c 0 0.603 -0.131 1.211 -0.496 1.607 c -0.365 0.399 -0.926 0.54 -1.48 0.54 h -0.894 v 1.429 h 0.894 c 0.926 0 1.857 -0.236 2.465 -0.897 c 0.608 -0.661 0.824 -1.672 0.824 -2.679 c 0 -1.006 -0.216 -2.02 -0.824 -2.681 C 56.986 42.535 56.055 42.299 55.129 42.299 z" style="stroke: none; stroke-width: 1; stroke-dasharray: none; stroke-linecap: butt; stroke-linejoin: miter; stroke-miterlimit: 10; fill: rgb(77,107,254); fill-rule: nonzero; opacity: 1;" transform=" matrix(1 0 0 1 0 0) " stroke-linecap="round"/>
	<path d="M 47.102 42.299 L 47.102 42.299 c -0.96 0 -1.93 0.245 -2.56 0.929 c -0.632 0.683 -0.858 1.731 -0.858 2.773 c 0 1.04 0.226 2.09 0.858 2.773 c 0.63 0.683 1.599 0.929 2.56 0.929 c 0.963 0 1.93 -0.246 2.562 -0.929 c 0.326 -0.352 0.542 -0.8 0.678 -1.296 h -1.556 c -0.044 0.066 -0.092 0.129 -0.146 0.187 c -0.379 0.411 -0.96 0.557 -1.536 0.557 c -0.579 0 -1.159 -0.146 -1.539 -0.557 s -0.515 -1.04 -0.515 -1.665 c 0 -0.625 0.136 -1.254 0.515 -1.665 c 0.379 -0.411 0.96 -0.557 1.539 -0.557 c 0.576 0 1.157 0.146 1.536 0.557 c 0.263 0.284 0.408 0.671 0.474 1.091 h -2.781 v 1.147 h 4.188 v -0.574 c 0 -1.043 -0.226 -2.09 -0.858 -2.773 C 49.035 42.545 48.065 42.299 47.102 42.299 z" style="stroke: none; stroke-width: 1; stroke-dasharray: none; stroke-linecap: butt; stroke-linejoin: miter; stroke-miterlimit: 10; fill: rgb(77,107,254); fill-rule: nonzero; opacity: 1;" transform=" matrix(1 0 0 1 0 0) " stroke-linecap="round"/>
	<path d="M 70.79 42.299 L 70.79 42.299 c -0.963 0 -1.93 0.245 -2.562 0.929 c -0.63 0.683 -0.858 1.731 -0.858 2.773 c 0 1.04 0.228 2.09 0.858 2.773 c 0.632 0.683 1.599 0.929 2.562 0.929 s 1.93 -0.246 2.562 -0.929 c 0.323 -0.352 0.542 -0.8 0.676 -1.296 h -1.553 c -0.044 0.066 -0.092 0.129 -0.146 0.187 c -0.379 0.411 -0.96 0.557 -1.539 0.557 c -0.576 0 -1.159 -0.146 -1.536 -0.557 c -0.379 -0.411 -0.515 -1.04 -0.515 -1.665 c 0 -0.625 0.136 -1.254 0.515 -1.665 c 0.377 -0.411 0.96 -0.557 1.536 -0.557 c 0.579 0 1.159 0.146 1.539 0.557 c 0.263 0.284 0.408 0.671 0.474 1.091 h -2.783 v 1.147 h 4.191 v -0.574 c 0 -1.043 -0.226 -2.09 -0.858 -2.773 C 72.72 42.545 71.752 42.299 70.79 42.299 z" style="stroke: none; stroke-width: 1; stroke-dasharray: none; stroke-linecap: butt; stroke-linejoin: miter; stroke-miterlimit: 10; fill: rgb(77,107,254); fill-rule: nonzero; opacity: 1;" transform=" matrix(1 0 0 1 0 0) " stroke-linecap="round"/>
</g>
</svg>